<svg width="24" height="24" xmlns="http://www.w3.org/2000/svg"><path fill-rule="evenodd" clip-rule="evenodd" d="M11.454 1.815a1.718 1.718 0 011.388 0l7.864 3.477c.33.146.544.473.544.835v10.578c0 .687-.409 1.307-1.04 1.578l-7.702 3.312a.913.913 0 01-.718.001l-7.745-3.297A1.718 1.718 0 013 16.72V6.142c0-.361.213-.689.544-.835l7.91-3.492zm.693 1.689L6.18 6.139l5.966 2.611 5.934-2.623-5.933-2.623zm7.278 4.024L13.06 10.34v9.03l6.365-2.737V7.528zm-8.19 11.848v-9.032l-6.41-2.806v9.11l6.41 2.728z"/></svg>