<svg width="64" height="64" fill="none" xmlns="http://www.w3.org/2000/svg"><path fill-rule="evenodd" clip-rule="evenodd" d="M30.543 4.84a4.58 4.58 0 013.702.002l20.972 9.27a2.433 2.433 0 011.45 2.226v28.21a4.58 4.58 0 01-2.771 4.207l-20.541 8.831a2.433 2.433 0 01-1.915.003l-20.654-8.791A4.58 4.58 0 018 44.583V16.38c0-.963.569-1.836 1.45-2.226l21.093-9.312zm1.85 4.504L16.48 16.37l15.909 6.963 15.826-6.995-15.822-6.994zM51.8 20.074l-16.973 7.502v24.08L51.8 44.359V20.073zM29.96 51.67V27.583L12.867 20.1v24.293L29.96 51.67z" fill="#0057FF"/></svg>