<svg width="28" height="28" fill="none" xmlns="http://www.w3.org/2000/svg"><path d="M24.5 8.167h-21C2.8 8.167 2.333 7.7 2.333 7V4.667c0-.7.467-1.167 1.167-1.167h21c.7 0 1.167.467 1.167 1.167V7c0 .7-.467 1.167-1.167 1.167z" fill="#fff"/><path opacity=".3" d="M24.5 16.333h-21c-.7 0-1.167-.466-1.167-1.166v-2.334c0-.7.467-1.166 1.167-1.166h21c.7 0 1.167.466 1.167 1.166v2.334c0 .7-.467 1.166-1.167 1.166zm1.167 7V21c0-.7-.467-1.167-1.167-1.167h-21c-.7 0-1.167.467-1.167 1.167v2.333c0 .7.467 1.167 1.167 1.167h21c.7 0 1.167-.467 1.167-1.167z" fill="#fff"/></svg>