<svg width="64" height="64" fill="none" xmlns="http://www.w3.org/2000/svg"><path fill-rule="evenodd" clip-rule="evenodd" d="M26.667 9.333h10.666v5.334H26.667V9.333zm-5.334 0c0-2.945 2.274-5.333 5.08-5.333h11.174c2.806 0 5.08 2.388 5.08 5.333v5.334c0 2.945-2.274 5.333-5.08 5.333H26.413c-2.806 0-5.08-2.388-5.08-5.333V9.333zm-5.714 0h3.048v5.334h-3.048c-1.403 0-2.54 1.194-2.54 2.666V52c0 1.473 1.137 2.667 2.54 2.667h32.762c1.403 0 2.54-1.194 2.54-2.667V17.333c0-1.472-1.137-2.666-2.54-2.666h-3.048V9.333h3.048c4.208 0 7.619 3.582 7.619 8V52c0 4.418-3.411 8-7.62 8H15.62C11.411 60 8 56.418 8 52V17.333c0-4.418 3.411-8 7.619-8z" fill="#0057FF"/><path fill-rule="evenodd" clip-rule="evenodd" d="M42.667 24a2.667 2.667 0 012.666 2.667V48A2.667 2.667 0 1140 48V26.667A2.667 2.667 0 0142.667 24zM32 29.333A2.667 2.667 0 0134.667 32v16a2.667 2.667 0 11-5.334 0V32A2.667 2.667 0 0132 29.333zm-10.667 5.334A2.667 2.667 0 0124 37.333V48a2.667 2.667 0 11-5.333 0V37.333a2.667 2.667 0 012.666-2.666z" fill="#0057FF"/></svg>