<svg width="64" height="67" fill="none" xmlns="http://www.w3.org/2000/svg"><path d="M32.691 55.806c-13.154.37-24.127-9.975-24.497-23.13-.385-13.153 9.975-24.112 23.13-24.496 13.153-.371 24.112 9.975 24.497 23.129.37 13.153-9.99 24.127-23.13 24.497zm31.295-24.725C63.488 13.41 48.752-.5 31.081.014 13.424.527-.5 15.248.014 32.919.527 50.59 15.248 64.5 32.919 63.986c17.671-.498 31.58-15.234 31.067-32.905z" fill="#fff"/><path d="M31.993 55.25c-12.654 0-22.858-9.918-23.214-22.573C8.408 19.85 18.526 9.134 31.338 8.764c.228 0 .456-.014.684-.014 12.655 0 22.858 9.918 23.215 22.573a23.037 23.037 0 01-6.328 16.617c-4.26 4.517-10.032 7.097-16.232 7.282-.228.014-.47.028-.684.028zm0 .57c.228 0 .456 0 .699-.014 13.139-.37 23.5-11.344 23.129-24.497-.37-12.912-10.96-23.144-23.8-23.13h-.698c-13.153.385-23.5 11.344-23.129 24.498.37 12.925 10.96 23.143 23.8 23.143z" fill="#fff"/><path d="M32.008 9.334c-.214 0-.442 0-.656.014-12.498.357-22.36 10.817-22.003 23.3.356 12.342 10.303 22.018 22.645 22.018.213 0 .441 0 .655-.014 6.042-.171 11.672-2.693 15.833-7.097s6.356-10.16 6.17-16.203C54.297 19.01 44.35 9.334 32.009 9.334zm-.015 47.07c-6.37 0-12.398-2.45-16.972-6.882-4.59-4.447-7.226-10.418-7.397-16.816a24.271 24.271 0 016.641-17.444C18.74 10.517 24.797 7.81 31.31 7.624c.243-.014.47-.014.713-.014 6.37 0 12.398 2.45 16.973 6.883 4.589 4.446 7.21 10.417 7.396 16.816.185 6.513-2.166 12.712-6.64 17.457-4.476 4.732-10.532 7.454-17.045 7.639-.242-.014-.485 0-.713 0z" fill="#0066B3"/><path d="M54.594 50.163l-1.011-1.568-.742.927 1.753.64zm-3.577-.4a3.288 3.288 0 01-.17-.07.184.184 0 01-.072-.086c0-.028.014-.071.043-.128a4.4 4.4 0 01.157-.2c.07-.085.128-.156.17-.2l.1-.099c.029-.028.057-.028.072-.028.014 0 .042.014.07.014l.827.3.97-1.227-.47-.712a.326.326 0 00-.044-.071v-.086c.015-.028.029-.071.072-.114.028-.043.07-.114.128-.185.057-.071.114-.143.157-.171.042-.043.07-.057.114-.057.028 0 .07.014.1.043a.895.895 0 01.113.156l2.095 3.307.043.085c0 .029 0 .057-.014.1a.493.493 0 01-.086.128c-.042.057-.085.128-.156.214-.086.1-.143.185-.186.228l-.128.128c-.043.029-.071.029-.1.029-.028 0-.071 0-.1-.015l-3.705-1.282zm3.877-3.747a.826.826 0 00.242.085c.085.015.157 0 .228-.028a.622.622 0 00.214-.143.9.9 0 00.213-.299l.271-.47-1.04-.584-.271.484a.91.91 0 00-.128.314c-.014.085-.029.17-.014.256a.423.423 0 00.1.214c.028.071.099.128.185.17zm-.371.784a1.224 1.224 0 01-.613-.798 1.471 1.471 0 01.014-.556c.043-.2.143-.442.3-.727l.541-.955a.21.21 0 01.143-.128c.057-.029.128-.014.214.043l3.149 1.767c.085.043.128.1.142.17a.272.272 0 01-.028.186l-1.154 2.052-.043.043c-.014 0-.043.014-.071.014a.264.264 0 01-.1-.028c-.043-.015-.086-.043-.143-.072a.497.497 0 01-.128-.085.38.38 0 00-.085-.071c-.015-.029-.029-.043-.029-.057 0-.029 0-.043.014-.057l.87-1.54-.898-.512-.342.598a2.534 2.534 0 01-.385.542 1.21 1.21 0 01-.413.27c-.143.057-.3.072-.456.057a1.204 1.204 0 01-.499-.156zm.94-4.033c-.028-.015-.042-.015-.056-.043-.015-.014-.015-.043-.015-.071 0-.029 0-.086.015-.129.014-.057.028-.128.07-.213.03-.086.058-.157.072-.214.014-.057.043-.086.071-.128.015-.029.043-.043.072-.057.028-.015.057-.015.085-.015l.983.015c.143 0 .257 0 .357-.015a.679.679 0 00.256-.085.452.452 0 00.171-.157.955.955 0 00.114-.242l.057-.157-1.582-.527c-.028-.014-.042-.014-.042-.043a.11.11 0 01-.029-.071c0-.029 0-.072.014-.129.015-.056.029-.113.057-.199a4.48 4.48 0 00.072-.185.225.225 0 01.07-.114c.015-.029.044-.043.058-.043h.071l1.582.527.057-.157a.97.97 0 00.043-.27.666.666 0 00-.043-.243c-.043-.07-.085-.156-.157-.213a2.028 2.028 0 00-.256-.214l-.798-.584c-.029-.015-.043-.043-.057-.057-.015-.029-.015-.057-.015-.086 0-.043 0-.085.015-.142.014-.057.028-.129.057-.214a.92.92 0 01.085-.2c.014-.057.043-.085.057-.114l.057-.057h.057c.014 0 .029.015.043.015.014 0 .029.014.043.028.014.014.043.029.057.043a.38.38 0 01.085.071l.698.542c.129.1.243.185.314.27.085.086.157.157.2.243.042.085.085.156.1.242.028.085.028.17.042.256.043-.057.1-.114.157-.17a.514.514 0 01.214-.115c.085-.028.185-.057.285-.07a2.92 2.92 0 01.399-.03h.783c.072 0 .129 0 .171.015.043 0 .072.014.1.014.029.014.043.014.043.043.014.014.014.043.014.071 0 .029-.014.071-.014.128-.014.057-.029.129-.057.2a.917.917 0 01-.086.2c-.014.056-.042.1-.07.114-.015.028-.044.042-.072.056-.029 0-.043.015-.086.015l-.912-.029c-.128 0-.242 0-.327.014-.1.015-.171.043-.243.072a.454.454 0 00-.17.157.77.77 0 00-.115.242l-.057.157 1.51.47c.03.014.044.028.058.042.014.015.014.043.014.072 0 .028 0 .071-.014.128-.014.043-.029.114-.057.185-.014.072-.057.143-.071.186-.029.042-.043.085-.072.114-.014.028-.042.042-.057.057-.014.014-.042.014-.057 0l-1.482-.5-.057.158a.958.958 0 00-.042.256c0 .071.014.157.056.228a.933.933 0 00.143.214c.071.071.142.128.257.2l.74.527c.03.014.043.042.058.057.014.014.028.042.028.085 0 .029 0 .071-.014.128-.014.057-.029.129-.057.214-.029.086-.057.143-.071.185-.015.058-.043.086-.057.115-.015.028-.043.042-.057.056h-.057a.693.693 0 00-.1-.042c-.029-.014-.086-.057-.143-.1l-.613-.47a2.754 2.754 0 01-.284-.243c-.072-.085-.143-.156-.186-.228a.746.746 0 01-.1-.213c-.028-.072-.028-.157-.042-.243-.072.072-.129.143-.2.186a.657.657 0 01-.242.128.923.923 0 01-.3.071 3.36 3.36 0 01-.427.029l-.883.014h-.229c-.043-.014-.043-.014-.057-.014zm2.837-6.385a4.221 4.221 0 01-.556-.356 1.454 1.454 0 01-.328-.342.752.752 0 01-.142-.356 2.13 2.13 0 010-.428.71.71 0 01.028-.17.693.693 0 01.057-.158c.014-.042.043-.085.057-.128a.314.314 0 01.057-.071c.014-.014.029-.029.057-.029.014 0 .043-.014.071-.014h.114c.043 0 .1.014.171.014.128.015.214.043.257.057.057.029.071.057.071.1a.108.108 0 01-.029.057.313.313 0 00-.056.071c-.015.029-.043.072-.057.114a1.042 1.042 0 00-.043.157.197.197 0 000 .128c0 .043.014.072.042.114.015.043.058.072.1.114.043.043.1.086.185.143l2.95-.998c.072-.014.129-.028.172-.028a.13.13 0 01.1.043.284.284 0 01.028.128c0 .057-.014.142-.029.242-.014.1-.028.171-.042.242-.015.057-.029.1-.043.143a.17.17 0 01-.072.071.87.87 0 01-.114.043l-1.325.413-.427.128c-.143.043-.285.072-.428.114v.015c.128.057.27.128.4.2.127.07.27.142.398.213l1.197.641c.029.014.057.029.072.057.014.014.028.043.028.086 0 .042.014.085 0 .142 0 .057-.014.143-.028.228-.015.1-.029.171-.043.228-.014.057-.029.1-.057.114-.029.029-.057.029-.086.029-.028-.014-.071-.029-.128-.057l-2.58-1.454zm-.684-3.349c-.015 0-.043 0-.057-.014a.153.153 0 01-.043-.071c-.014-.029-.014-.072-.029-.129-.014-.056-.014-.114-.014-.199v-.2c0-.057.014-.1.014-.128.014-.028.014-.057.043-.071.014-.014.029-.014.057-.014l3.349-.1-.029-.898a20.006 20.006 0 01-1.296-.142c-.37-.057-.684-.1-.955-.171a2.948 2.948 0 01-.656-.214 1.248 1.248 0 01-.399-.285.917.917 0 01-.213-.356 1.528 1.528 0 01-.072-.457c0-.028 0-.056.014-.085a.22.22 0 01.043-.057.205.205 0 01.1-.029c.043-.014.1-.014.157-.014h.228c.057 0 .1.014.128.014.029.015.057.015.071.043.014.015.014.043.014.057a.4.4 0 00.043.185.57.57 0 00.157.171c.085.058.2.114.342.157.143.043.342.1.57.143.242.043.527.085.855.128.342.043.741.071 1.212.114.1.014.185.029.227.071.043.043.072.1.072.171l.057 2.038c0 .072-.014.143-.057.185a.282.282 0 01-.2.072l-3.733.085zm.299-4.26c-.057.014-.1.014-.129.014-.042 0-.07.014-.1 0-.028 0-.056 0-.07-.015-.015-.014-.043-.014-.072-.043a.419.419 0 01-.114-.114c-.042-.057-.1-.128-.157-.213-.056-.086-.1-.2-.156-.314a2.664 2.664 0 01-.114-.399 2.083 2.083 0 01-.015-.784c.043-.242.129-.456.271-.641.143-.185.328-.356.57-.485a2.83 2.83 0 01.87-.299c.342-.071.655-.085.954-.043.285.043.542.129.756.257.213.128.384.3.527.527.142.214.242.456.3.741.014.114.028.228.028.342 0 .114 0 .214-.015.314-.014.085-.028.185-.056.256-.029.086-.057.129-.072.171-.028.029-.043.057-.057.072a.31.31 0 01-.071.042.206.206 0 01-.1.029.42.42 0 01-.142.028c-.072.015-.114.015-.171.029h-.114a.109.109 0 01-.072-.029c-.014-.014-.028-.028-.028-.042 0-.029 0-.072.028-.129a1.66 1.66 0 00.086-.213 1.291 1.291 0 00.057-.698.934.934 0 00-.527-.684c-.143-.072-.3-.1-.485-.115-.185-.014-.385 0-.598.043a2.208 2.208 0 00-.613.2c-.171.085-.3.185-.385.299a.808.808 0 00-.185.385 1.224 1.224 0 000 .456c.028.142.071.27.128.37.057.1.114.185.171.257.057.07.1.128.157.17.042.043.071.086.071.1v.057c0 .015-.029.029-.043.043-.028.014-.057.029-.1.043-.07-.029-.128 0-.213.014zm-.157-9.877l-.2-.384a2.32 2.32 0 00-.227-.343.623.623 0 00-.214-.142.407.407 0 00-.228-.014.826.826 0 00-.243.085c-.085.043-.142.1-.2.157a.528.528 0 00-.099.456c.014.1.071.214.143.356l.213.4 1.055-.57zm-2.58 2.366c-.014.014-.042.014-.056.014-.015 0-.043-.014-.072-.043-.028-.028-.042-.057-.085-.1-.029-.042-.072-.1-.1-.17a.7.7 0 01-.086-.186c-.028-.057-.028-.085-.042-.128v-.085c0-.015.014-.029.042-.043l1.369-.741-.157-.27a.707.707 0 00-.171-.243c-.057-.043-.114-.086-.185-.1a1.252 1.252 0 00-.243-.028c-.085 0-.185.014-.299.028l-.94.157h-.072c-.028 0-.057-.029-.071-.043a.393.393 0 01-.085-.114 1.94 1.94 0 01-.114-.2c-.043-.085-.086-.156-.1-.213a.664.664 0 00-.043-.129c0-.028 0-.056.014-.07.014-.015.014-.03.029-.03.014-.013.043-.013.071-.028.029-.014.086-.014.143-.028l.869-.114c.114-.015.214-.029.313-.029.086 0 .171.014.257.029a.75.75 0 01.214.071.543.543 0 01.185.128 1.77 1.77 0 01-.043-.384c0-.115.029-.229.071-.328.043-.1.1-.2.186-.285.085-.086.185-.157.299-.228.17-.086.328-.143.499-.157.17-.014.327.014.484.071.157.057.3.171.456.3.143.142.3.356.456.655l.485.898a.218.218 0 01.028.185c-.014.057-.071.114-.156.157l-3.35 1.824zm-.441-6.812l-1.767.613.727.926 1.04-1.539zm-1.24 3.378c-.043.07-.086.114-.114.156a.13.13 0 01-.1.043c-.028 0-.071-.029-.114-.071a2.445 2.445 0 01-.157-.186c-.07-.085-.114-.156-.156-.199-.029-.057-.057-.086-.072-.114-.014-.029-.014-.057-.014-.086a.24.24 0 01.029-.07l.484-.742-.955-1.225-.812.285c-.028.014-.057.014-.085.014a.109.109 0 01-.072-.029.45.45 0 01-.1-.085c-.042-.043-.085-.1-.142-.171-.057-.072-.1-.143-.128-.186-.029-.042-.043-.085-.029-.128 0-.028.029-.057.072-.085.042-.029.1-.043.17-.072l3.706-1.254c.043-.014.071-.014.1-.014.028 0 .057.014.085.029.029.028.071.057.114.114.043.057.1.114.171.2.086.099.143.184.185.242a.578.578 0 01.086.156.278.278 0 01.014.1c0 .029-.014.057-.043.1l-2.123 3.277zm-1.71-6.128a.725.725 0 00.128-.186.327.327 0 00.029-.2.477.477 0 00-.072-.199 1.36 1.36 0 00-.2-.242l-.313-.3-.74.784.341.328a.762.762 0 00.243.171.572.572 0 00.213.043c.072 0 .129-.028.2-.057.057-.043.114-.085.17-.142zm-1.069 1.453a.623.623 0 00.142-.214c.029-.07.043-.156.029-.242a.73.73 0 00-.1-.256 1.357 1.357 0 00-.242-.285l-.356-.342-.813.869.442.413a.762.762 0 00.242.171.451.451 0 00.229.057.645.645 0 00.228-.043.436.436 0 00.199-.128zm.67.57c-.1.114-.214.185-.314.257-.114.057-.228.1-.342.114a1.484 1.484 0 01-.356 0c-.114-.014-.228-.057-.356-.1-.114-.057-.228-.114-.342-.2a5.199 5.199 0 01-.357-.285l-.798-.755a.203.203 0 01-.085-.17c-.014-.058.014-.13.085-.2l2.48-2.651a.244.244 0 01.185-.1c.072 0 .114.029.171.071l.77.713c.185.171.328.342.427.485.1.156.171.299.2.441a.873.873 0 01-.029.428c-.042.142-.128.27-.256.413a1.45 1.45 0 01-.228.185c-.086.043-.157.086-.242.1a.843.843 0 01-.271.014.638.638 0 01-.27-.07c.07.099.127.199.156.298.043.1.057.214.043.328a.979.979 0 01-.072.342c-.028.143-.114.242-.2.342zm-3.435-4.047c.129-.185.214-.356.285-.527.072-.171.1-.328.1-.485a.87.87 0 00-.114-.427 1.143 1.143 0 00-.37-.37 1.077 1.077 0 00-.5-.186.992.992 0 00-.455.071 1.089 1.089 0 00-.4.285c-.128.128-.242.27-.355.442-.129.185-.214.37-.286.541a1.26 1.26 0 00-.114.485c0 .157.043.3.114.427.072.129.2.257.371.371.171.114.342.171.499.185a.991.991 0 00.456-.071 1.54 1.54 0 00.413-.285c.128-.143.257-.285.356-.456zm.77.456c-.185.285-.385.527-.613.698-.214.185-.456.3-.698.37a1.745 1.745 0 01-.77.015 2.615 2.615 0 01-.812-.342 2.845 2.845 0 01-.641-.57 1.518 1.518 0 01-.3-.656c-.042-.242-.014-.484.057-.755a3.01 3.01 0 01.428-.855c.185-.285.385-.513.598-.684.214-.185.456-.3.699-.37a1.55 1.55 0 01.77-.015c.27.057.527.171.812.342.27.171.47.357.627.57.156.2.256.414.299.656.043.228.028.484-.057.755-.071.257-.2.542-.4.841zm-3.264-4.019c-.028.057-.057.114-.07.143-.03.042-.044.07-.072.085-.014.014-.043.029-.057.043-.014 0-.043 0-.057-.014l-1.254-.57-1.411 3.05c0 .014-.014.028-.043.042-.014 0-.042.014-.085 0-.029 0-.071-.014-.128-.028a1.034 1.034 0 01-.2-.086c-.071-.028-.128-.071-.185-.085a.973.973 0 01-.1-.072c-.029-.028-.043-.042-.043-.07-.014-.015 0-.044 0-.058l1.582-3.434a.312.312 0 01.142-.157c.057-.029.129-.014.2.014l1.796.827c.028.014.057.057.057.114a.883.883 0 01-.072.256zm-4.973-.2c.057-.213.1-.413.114-.584a1.31 1.31 0 00-.043-.484.803.803 0 00-.242-.37c-.114-.1-.27-.186-.47-.243-.2-.057-.371-.071-.528-.028a1.04 1.04 0 00-.413.213c-.114.1-.214.228-.3.4a2.743 2.743 0 00-.199.512c-.057.214-.1.414-.114.599-.014.185 0 .342.043.499.043.142.128.27.242.37.114.1.271.185.47.243.2.056.371.056.528.028.157-.028.285-.114.413-.214.114-.1.214-.242.3-.399.07-.17.142-.356.199-.541zm.855.186a2.928 2.928 0 01-.37.855 1.933 1.933 0 01-.556.57 1.757 1.757 0 01-.727.242c-.271.029-.556 0-.87-.085a2.34 2.34 0 01-.783-.356 1.316 1.316 0 01-.47-.542c-.115-.214-.157-.456-.172-.741 0-.285.043-.599.143-.955.085-.328.214-.598.37-.84.157-.243.342-.428.556-.556.214-.143.456-.214.727-.243.27-.028.556 0 .884.086.299.085.57.2.77.356.199.143.37.328.47.527.113.214.17.456.17.727 0 .3-.042.613-.142.955zm-5.358.727c0 .028-.015.042-.029.057a.109.109 0 01-.071.028c-.029.014-.072.014-.129.014-.056 0-.128 0-.199-.014-.086-.014-.157-.014-.2-.028a.663.663 0 01-.128-.043c-.028-.014-.057-.029-.057-.043-.014-.014-.014-.028-.014-.057l.313-3.335-.883-.085c-.114.485-.214.898-.3 1.254-.1.356-.185.67-.284.926a3.59 3.59 0 01-.285.613c-.1.157-.214.285-.328.37a.94.94 0 01-.385.172 1.677 1.677 0 01-.47.014.203.203 0 01-.086-.029.111.111 0 01-.057-.057c-.014-.028-.014-.057-.014-.1v-.156c.014-.086.014-.171.029-.228.014-.057.028-.1.028-.128.014-.029.029-.057.043-.057.014-.015.043-.015.057-.015.071.015.128 0 .2-.014a.407.407 0 00.185-.142 2.62 2.62 0 00.2-.314c.07-.142.142-.328.213-.556.071-.228.157-.513.228-.84.085-.328.17-.727.27-1.183.03-.114.058-.186.1-.228.043-.043.1-.057.171-.043l2.038.2a.325.325 0 01.171.085c.043.043.057.114.043.2l-.37 3.762zm-6.285-3.449l-.456 1.81 1.183-.086-.727-1.724zm2.137 2.907c.029.071.057.128.057.185.015.043 0 .072-.014.1-.014.029-.057.043-.114.057-.057.014-.142.014-.256.029-.1.014-.185.014-.257.014-.057 0-.114 0-.142-.014a.109.109 0 01-.072-.029c-.014-.014-.028-.043-.042-.071l-.342-.812-1.54.1-.199.826c-.014.028-.014.057-.028.085l-.057.057a.285.285 0 01-.129.029c-.057.014-.128.014-.228.028-.1 0-.17.015-.228.015-.057 0-.1-.015-.114-.043-.028-.029-.043-.057-.028-.1 0-.043.014-.1.028-.185l1.012-3.777c.014-.028.029-.07.043-.085.014-.029.043-.043.071-.057a.44.44 0 01.157-.029c.071-.014.157-.014.256-.028.129-.014.228-.014.3-.014.07 0 .128 0 .185.014a.693.693 0 01.1.043.308.308 0 01.057.1l1.524 3.562zm-4.602.641v.057c-.015.015-.029.043-.058.058-.028.014-.07.042-.114.056-.057.015-.114.043-.2.058-.085.014-.142.042-.199.042-.057.015-.1.015-.128.015a.11.11 0 01-.071-.029c-.014-.014-.029-.029-.029-.057L26.021 5.5l-1.51.37.413 1.64v.057c-.014.014-.029.043-.057.057-.029.014-.072.043-.114.057-.057.014-.114.043-.2.057a2.079 2.079 0 00-.2.043c-.056.014-.099.014-.128.014a.109.109 0 01-.07-.029.197.197 0 01-.044-.057l-.954-3.805v-.057c.014-.014.028-.042.057-.057.028-.014.07-.042.128-.057.057-.014.114-.042.2-.057a2.3 2.3 0 00.199-.042c.057-.015.1-.015.128 0a.11.11 0 01.072.028c.014.014.028.029.028.057l.37 1.482 1.511-.385-.37-1.482v-.057c.014-.014.028-.043.057-.057.028-.014.07-.043.114-.057.057-.014.114-.043.2-.057.085-.028.142-.028.199-.043.057 0 .1-.014.128 0a.11.11 0 01.071.029l.043.043.94 3.79zm-10.318.385l-.37.228a1.87 1.87 0 00-.329.257.85.85 0 00-.128.214.42.42 0 000 .228.655.655 0 00.1.228c.043.07.1.142.171.185a.744.744 0 00.214.1.54.54 0 00.256-.015c.1-.028.214-.085.357-.17l.384-.243-.655-1.012zm2.522 2.423c.014.014.014.043.014.057 0 .014-.014.043-.042.071-.015.029-.057.057-.1.086-.043.042-.1.07-.171.114-.071.043-.128.071-.171.1-.057.028-.086.042-.128.042a.09.09 0 01-.086 0c-.014-.014-.028-.014-.043-.042l-.826-1.312-.27.171a.832.832 0 00-.229.186.5.5 0 00-.086.2c-.014.07-.014.156-.014.241.014.086.029.186.057.3l.214.926v.086c0 .028-.014.056-.043.085l-.1.1c-.042.028-.114.071-.185.128-.085.057-.157.085-.2.114-.056.029-.085.043-.127.043-.029.014-.058.014-.072 0-.014 0-.028-.014-.043-.029a.11.11 0 01-.028-.071.886.886 0 01-.043-.143l-.17-.854c-.03-.115-.03-.214-.044-.314-.014-.086 0-.171 0-.257a1.17 1.17 0 01.057-.228.503.503 0 01.114-.185c-.128.043-.256.057-.37.071-.114 0-.228-.014-.328-.042a.804.804 0 01-.285-.157 1.216 1.216 0 01-.242-.285 1.4 1.4 0 01-.2-.485.929.929 0 01.043-.484c.057-.157.143-.314.27-.47.13-.157.343-.314.628-.5l.87-.54c.056-.044.113-.058.184-.044a.338.338 0 01.172.129l2.023 3.192zm-6.769.898l.727 1.71.883-.784-1.61-.926zm3.449 1.012c.071.042.128.07.156.1.043.028.058.056.058.085 0 .028-.029.071-.072.114-.043.043-.1.1-.185.17-.086.072-.143.13-.2.172-.057.043-.085.057-.114.085a.155.155 0 01-.07.015c-.03 0-.044-.015-.072-.029l-.77-.442-1.168 1.04.342.784c.014.029.014.057.028.086 0 .028 0 .057-.014.085a.456.456 0 01-.085.1c-.043.043-.1.086-.157.157-.071.057-.128.114-.185.143a.228.228 0 01-.114.042c-.029 0-.057-.028-.086-.071a.622.622 0 01-.086-.171l-1.482-3.606a.265.265 0 01-.028-.1c0-.028.014-.056.028-.085.029-.028.057-.071.1-.128.043-.043.114-.1.2-.171.1-.086.17-.157.228-.2.057-.042.114-.085.142-.1.043-.014.072-.028.1-.028.028 0 .057.029.1.043l3.406 1.91zm-3.264 3.306c.014.014.029.028.029.057 0 .028 0 .043-.014.085-.015.029-.029.072-.058.114-.028.043-.07.1-.114.171-.056.057-.1.114-.142.157-.043.043-.071.071-.1.086a.24.24 0 01-.071.028c-.028 0-.043 0-.057-.014l-1.311-1.055-.97 1.212 1.312 1.054c.014.014.028.029.028.043 0 .014 0 .043-.014.085-.014.029-.028.072-.057.114a2.59 2.59 0 01-.128.171c-.057.072-.1.114-.128.157a.456.456 0 01-.1.086c-.029.014-.057.028-.071.028-.029 0-.043 0-.057-.014l-3.064-2.451a.184.184 0 01-.043-.057c0-.014 0-.043.014-.086.014-.028.029-.071.057-.114.029-.042.071-.1.114-.17.057-.072.1-.115.128-.157a.452.452 0 01.1-.086.24.24 0 01.071-.029c.029 0 .043 0 .057.015l1.198.955.969-1.212-1.197-.955c-.015-.014-.029-.028-.029-.057 0-.028 0-.042.014-.085.015-.029.029-.071.057-.114.029-.043.072-.1.129-.171.057-.057.1-.114.142-.157a.43.43 0 01.1-.085.222.222 0 01.071-.029c.029 0 .043 0 .057.014l3.078 2.466zM8.85 18.426a.79.79 0 00-.271-.1.523.523 0 00-.485.157 1.785 1.785 0 00-.256.356l-.242.428 1.154.641.242-.442c.1-.185.157-.313.171-.427.015-.1.015-.2-.014-.285a.483.483 0 00-.128-.2l-.171-.128zm.356-.798c.171.1.314.214.428.342.114.128.2.285.242.456.043.171.043.37 0 .584a2.673 2.673 0 01-.328.813l-.499.912c-.014.028-.043.057-.057.085-.028.029-.043.043-.085.043-.029.014-.057.014-.1.014-.043 0-.071-.014-.114-.043l-3.306-1.852-.043-.043v-.085c.014-.029.029-.086.043-.129.028-.043.057-.114.085-.185.043-.071.072-.128.114-.171.029-.043.057-.085.086-.1.028-.028.043-.042.071-.042.014 0 .043 0 .057.014l1.24.684.285-.513c.157-.271.3-.485.442-.613a1.76 1.76 0 01.441-.3 1.18 1.18 0 01.5-.07c.142.056.327.1.498.199zm-.912 4.418c.014 0 .043.014.043.043.014.014.014.042.014.07 0 .03-.014.072-.014.129-.015.057-.043.114-.072.2-.028.085-.057.142-.07.185-.03.043-.044.085-.072.114-.029.028-.043.043-.057.043-.029.014-.043.014-.057 0l-3.164-1.126-.3.84c.443.229.828.428 1.155.613.328.186.599.357.827.5.214.156.399.298.527.44.128.143.214.272.27.4.058.142.072.27.072.413a1.88 1.88 0 01-.1.456.313.313 0 01-.042.072.311.311 0 01-.072.042h-.1a2.342 2.342 0 00-.156-.043 1.66 1.66 0 01-.214-.085c-.057-.014-.085-.043-.114-.071-.028-.029-.043-.043-.043-.057v-.072c.029-.056.029-.128.029-.2 0-.07-.043-.142-.086-.213a1.462 1.462 0 00-.256-.27 4.457 4.457 0 00-.485-.343c-.2-.128-.456-.27-.755-.427-.3-.157-.656-.342-1.083-.556a.606.606 0 01-.2-.157c-.028-.057-.028-.114 0-.185l.684-1.924c.029-.071.072-.128.129-.142.057-.029.128-.029.213.014l3.549 1.297zM3.405 27.29l1.639.884.2-1.155-1.84.271zm3.335-1.354c.085-.014.142-.014.185-.014a.13.13 0 01.1.043.179.179 0 01.014.128c0 .057-.014.142-.029.242-.014.114-.042.2-.057.257a1.71 1.71 0 01-.042.142.111.111 0 01-.057.057c-.015.015-.043.015-.072.015l-.869.128-.27 1.539.755.399c.028.014.042.029.07.043.015.014.03.043.044.071.014.029.014.085 0 .142 0 .058-.015.129-.029.214a1.97 1.97 0 01-.043.228c-.014.057-.042.086-.057.114-.028.014-.057.014-.114 0-.042-.014-.1-.043-.17-.071l-3.42-1.895c-.03-.015-.058-.043-.086-.057a.153.153 0 01-.029-.086v-.157c.014-.07.029-.156.043-.256.028-.128.043-.228.057-.3a.48.48 0 01.057-.17.146.146 0 01.071-.086c.029-.014.057-.014.1-.028l3.848-.642zm-3.193 4.846c-.142 0-.27.014-.356.07a.462.462 0 00-.214.186.727.727 0 00-.1.242c-.014.086-.028.171-.028.257l-.014.356 1.41.043.015-.385a1.23 1.23 0 00-.043-.342.62.62 0 00-.142-.228.62.62 0 00-.228-.142.66.66 0 00-.3-.057zm-.028-.898c.228 0 .442.057.613.128.185.071.327.185.441.328.114.142.214.313.271.527.057.2.086.442.071.713l-.014.342 1.326.042c.028 0 .042.015.057.029a.313.313 0 01.042.071c.015.029.015.071.029.128v.2c0 .085-.014.157-.014.214 0 .057-.015.1-.029.128a.265.265 0 01-.043.071c-.014.014-.042.014-.057.014l-3.748-.1a.3.3 0 01-.228-.085.35.35 0 01-.071-.214l.029-.983c0-.1.014-.2.014-.285.014-.085.028-.2.057-.313a1.3 1.3 0 01.142-.37 1.44 1.44 0 01.257-.329c.1-.085.228-.157.37-.2.157-.042.314-.056.485-.056zM6.04 33.93c.057 0 .114-.014.157-.014s.071 0 .1.014c.028.014.043.014.057.029.014.014.028.028.028.057l.243 2.08a.395.395 0 01-.043.185c-.043.058-.1.086-.2.1l-3.605.413c-.1.015-.157 0-.214-.056a.325.325 0 01-.085-.171L2.236 34.5c0-.014 0-.028.015-.057a.197.197 0 01.057-.043.207.207 0 01.1-.028c.042-.014.1-.014.156-.029.057-.014.114-.014.157-.014s.071 0 .1.014c.028 0 .042.015.057.029.014.014.014.028.028.057l.171 1.468 1.012-.114-.143-1.254c0-.015 0-.029.015-.057a.197.197 0 01.057-.043c.028-.014.057-.029.1-.043.042-.014.085-.014.156-.028.057-.015.114-.015.157-.015s.071 0 .1.015c.028 0 .042.014.057.028.014.014.028.029.028.057l.143 1.24 1.168-.128-.17-1.482c0-.015 0-.043.014-.057l.042-.043a.694.694 0 01.1-.043c.029.014.071.014.128 0zm-2.25 5.587l.27.927c.328-.057.613-.1.855-.129.243-.028.47-.056.656-.07.185-.015.356-.015.499-.015.142 0 .27 0 .37.014.1.014.2.029.285.057.086.029.157.043.214.072l-.456-1.61-2.693.754zm3.919-2.522c.028-.014.042-.014.057 0 .014.014.042.029.057.043.014.028.028.057.057.1.014.042.042.1.057.17.028.072.028.129.042.172 0 .042.015.085.015.114 0 .028-.015.056-.015.07-.014.015-.028.03-.042.03l-.94.27.754 2.665.941-.27a.043.043 0 01.057 0l.057.056c.014.029.043.057.057.1.014.043.043.1.057.171.014.071.028.128.043.185a.354.354 0 01.014.114c0 .029 0 .057-.014.072-.015.014-.029.028-.057.028l-1.44.413c-.057.029-.1.029-.128 0-.028-.014-.057-.057-.071-.1l-.057-.185a1.73 1.73 0 00-.257-.071 1.602 1.602 0 00-.299-.057c-.114-.014-.242-.014-.399-.014-.157 0-.342.014-.556.028-.213.015-.47.043-.755.086-.285.042-.627.085-1.026.157-.1.014-.171.014-.214-.015-.057-.028-.085-.071-.114-.142l-.584-2.038a.204.204 0 01.014-.185c.029-.057.086-.086.171-.114l3.078-.884-.1-.342c-.014-.057-.014-.1.015-.128a.225.225 0 01.114-.072l1.41-.427zm.213 5.045c.057-.029.1-.043.143-.057.043-.014.071-.014.1-.014.028 0 .057 0 .07.014.015.014.03.028.03.043l.897 1.895c.029.071.043.128.015.185-.015.057-.072.114-.157.157l-3.278 1.553a.3.3 0 01-.214.029.255.255 0 01-.128-.143l-.884-1.88c-.014-.015-.014-.03-.014-.058 0-.014.014-.043.043-.057.014-.014.043-.043.085-.071.043-.029.086-.043.143-.071a.977.977 0 01.142-.057c.043-.015.072-.015.1-.015.029 0 .057 0 .071.015l.043.042.642 1.34.912-.428-.528-1.14c-.014-.014-.014-.028-.014-.057 0-.014.014-.042.029-.057.014-.014.042-.042.085-.07.043-.03.086-.044.128-.072.057-.029.1-.043.143-.057.043-.014.071-.014.1-.029.028 0 .042 0 .057.015l.042.042.542 1.14 1.054-.498-.64-1.354c-.015-.014-.015-.029 0-.057 0-.014.013-.043.028-.057a.54.54 0 01.085-.071.31.31 0 01.128-.1zm.67 6.897a1.1 1.1 0 00.328.271c.114.057.214.1.328.1.1.014.214 0 .313-.043.1-.028.2-.085.3-.157.114-.085.213-.17.285-.256a.805.805 0 00.156-.285.896.896 0 00.015-.342 1.435 1.435 0 00-.157-.4l-1.568 1.112zm-.185-1.952a.936.936 0 00-.27.256.803.803 0 00-.158.285.894.894 0 00-.014.342c.029.129.071.257.157.4L9.69 47.17a1.1 1.1 0 00-.328-.27.586.586 0 00-.328-.1.655.655 0 00-.328.042c-.1.029-.2.086-.299.143zm-.513-.67c.185-.128.385-.228.584-.27.2-.058.4-.058.585-.015.199.043.399.128.584.257.2.128.385.299.556.527l.399-.27c.014-.015.042-.015.057-.015.014 0 .042.014.07.028.03.015.058.057.086.086.043.043.072.1.129.157.042.07.085.128.114.17.028.043.042.086.057.115.014.028.014.057.014.07 0 .015-.014.044-.043.058l-.399.27c.157.243.257.471.328.685.057.214.085.413.057.613-.029.2-.1.37-.214.541-.114.171-.285.328-.484.485-.186.128-.37.213-.57.256-.2.043-.385.057-.585.014a1.748 1.748 0 01-.584-.256c-.2-.128-.385-.3-.556-.513l-.37.256c-.015.015-.043.015-.057.015-.015 0-.043-.015-.072-.043-.028-.014-.057-.057-.085-.1-.043-.043-.071-.1-.128-.157-.043-.07-.086-.114-.114-.17-.029-.043-.043-.086-.057-.115-.015-.028-.015-.057-.015-.071 0-.014.015-.043.029-.043l.37-.256a2.96 2.96 0 01-.327-.684c-.057-.214-.086-.428-.057-.613.028-.2.085-.37.2-.542.142-.17.298-.327.498-.47zm37.267 5.8l-.128-.157c-.128-.156-.655-.684-1.91-.684-.441 0-.94.072-1.482.2-.484.114-1.083.313-1.795.556a1.802 1.802 0 00-.285-.442c-.513-.584-1.44-.87-2.722-.87-1.767.015-4.218.57-6.712 1.525-1.725.656-3.292.998-4.646 1.012-2.11.014-3.378-.74-4.49-1.396l-.584-.342-.726-.428-.143.84-1.468 8.893.542.243.256-1.54 1.24-7.495.014.014v-.014l.585.342c.84.498 1.838 1.083 3.235 1.34.456.085.969.128 1.525.128 1.439-.015 3.064-.357 4.845-1.055 2.437-.926 4.802-1.482 6.513-1.482.413 0 .783.028 1.097.085.541.1.94.3 1.197.585.2.213.3.484.313.784.884-.3 1.71-.585 2.323-.727.5-.129.941-.186 1.34-.186.043 0 .086 0 .128.015h.143c.042 0 .071 0 .114.014l.256.043h.015c.227.057.413.114.541.185.171.1.527-.228.527-.228L43.28 61.948l.513-.213c.029-.243.072-.5.114-.77.171-1.04.3-1.796.3-1.796l.028-.2.043-.241-.014-.029c.114-.712.228-1.41.327-2.08.314-1.981.585-3.592.627-3.834v-.028l.029-.2.043-.257-.129-.185z" fill="#0066B3"/><path d="M31.993 55.25c-12.654 0-22.858-9.918-23.214-22.573C8.408 19.85 18.526 9.134 31.338 8.764c.228 0 .456-.014.684-.014 12.655 0 22.858 9.918 23.215 22.573a23.037 23.037 0 01-6.328 16.617c-4.26 4.517-10.032 7.097-16.232 7.282-.228.014-.47.028-.684.028zm0 .57c.228 0 .456 0 .699-.014 13.139-.37 23.5-11.344 23.129-24.497-.37-12.912-10.96-23.144-23.8-23.13h-.698c-13.153.385-23.5 11.344-23.129 24.498.37 12.925 10.96 23.143 23.8 23.143z" fill="#fff"/><path d="M36.838 51.317c1.112 0 1.881.228 2.28.67.2.228.314.499.314.798.898-.3 1.724-.584 2.337-.727.499-.128.94-.185 1.34-.185 1.026 0 1.268.214 1.34.285l.37-.27-2.067 13.167-.556-.314c-.27-.156-.598-.228-.997-.228-1.126 0-2.523.585-3.89 1.14-1.041.428-2.024.827-2.822.955a5.68 5.68 0 01-.784.072c-1.226.014-1.425-.656-1.44-.984l.072-.684c-.328.129-.656.257-.97.37a53.75 53.75 0 01-1.795.67c-.926.328-2.08.5-3.335.514-2.907.014-6.014-.855-7.909-2.224l-.214-.156 2.01-12.156.584.342c1.126.655 2.508 1.496 4.788 1.482 1.44-.014 3.064-.356 4.846-1.055 2.436-.926 4.802-1.482 6.498-1.482z" fill="#fff"/><path d="M33.39 60.652l-.67 4.774c-.171.869.812.883 1.71.74 2.18-.341 5.985-2.935 7.995-1.823.299-2.395.812-5.43.812-5.43s-.499-.698-2.38-.242c-1.881.47-6.07 2.266-7.468 1.98z" fill="#ED1C24"/><path d="M43.023 60.295c.213-1.325.427-2.75.64-4.004-.284-.185-1.04-.499-2.479-.157-1.824.442-5.814 2.152-7.34 1.981l-.555 3.563c.171.584.827.727 1.739.641 2.18-.185 5.985-3.078 7.995-2.024z" fill="#0066B3"/><path d="M32.677 65.752c.128-.911 1.382-.94 2.209-.897.84.042 2.365.014 2.48-.656.156-.897.213-1.98.213-1.98l-4.36.057-.542 3.476z" fill="#BE1E2D"/><path d="M18.583 63.986l1.012-6.042c1.753 1.04 4.517 2.537 10.16.356 4.518-1.738 8.722-2.038 8.509-.256.028.028-.913 6.185-.913 6.185.328-2.124-5.073.413-7.909 1.396-3.078 1.083-8.151.314-10.859-1.639z" fill="#ED1C24"/><path d="M29.94 57.046c-5.458 2.095-8.308.228-10.09-.84l-.655 3.918c2.722 1.896 6.741 2.565 10.76 1.026 2.55-.983 7.467-2.679 8.009-1.154l.556-3.805c-.67-1.154-4.575-.67-8.58.855z" fill="#0066B3"/><path d="M42.652 35.812a11.62 11.62 0 00-.214-.499c.1.057.2.1.3.143.071.128.128.242.185.342-.086.014-.185.028-.257.057-.014-.029-.014-.043-.014-.043zm-2.152.014v-.114c-.085-.655-.213-1.211-.242-1.624.157.299.413 1.254.584 1.852-.114-.042-.228-.085-.342-.114zm-.926 5.487c0-.014 0-.014.014-.014h.014a.108.108 0 01-.028.057v-.043zm-.029.598c0-.028-.014-.07-.014-.1 0 .044.014.058.014.1zm3.008 3.007l-.528 1.126-.57-.27.385-.813c.27.014.499 0 .712-.043zm.527-.156l-.143.285-.313-.143c.17-.028.328-.085.456-.142zM26.078 47.54c.029-.1.086-.2.171-.271 0 .043-.014.071-.014.114 0 .028 0 .043.014.071l-.17.086zm-1.026-5.63c0-.014 0-.014 0 0zm-.627-.014c.014-.028.029-.057.014-.085.015.028 0 .071-.014.085.014.014.014.014 0 0zm-3.206-1.88c.014 0 .028.013.043.013h-.015c-.014-.014-.028-.014-.028-.014zm.912-2.267l-.27-.128-.272-.128-.1-.043a1.071 1.071 0 00-.555-.727.633.633 0 00-.072-.655.493.493 0 00.1-.129c.285-.456 1.14-2.109 1.454-2.565-.114.342-1.012 2.238-1.069 2.423-.214.627.328.74.542 1.154.342-.214.926-.043 1.154-.655.157-.414.513-1.839.698-2.223-.028.413-.157.968-.242 1.624-.086.613.513.613.84.955.286-.257.827-.185.913-.755.085-.485.1-1.71.1-1.71.085.056.128.085.213.17.214-.227.642-.227.784-.527.057.029.086.072.143.1.47.784.498 2.266-.143 2.807.2 0 .413-.028.57-.1-.014.043-.043.072-.057.1 0 .015-.014.029-.028.029-.015.028-.043.071-.057.1v.014a1.136 1.136 0 01-.186.185c-.342.257-.812.3-1.325.1.029.142.043.228.114.328-.798.114-1.14.427-1.44.94-.128.214-.156.442-.17.67l-.043-.043c0-.014-.014-.014-.014-.014h-.015c-.014 0-.014-.014-.028-.014-.014-.057-.071.014-.071-.072-.015-.042 0-.07-.057-.085h-.057l-.015-.014h-.142c-.014 0-.014.014-.029.014l-.028.043s-.014 0-.014.014l-.157.1c-.014 0-.057.014-.086.014-.114.029-.27.043-.285.214 0 .014 0 .028.015.043 0 .014.014.014 0 .014a.27.27 0 00-.029.114v.028s-.043-.014-.057-.028c0 0-.043-.014-.057-.029 0 0-.028-.014-.043-.028 0 0-.028-.014-.042-.014l-.086-.043s-.043-.014-.071-.029c0 0-.071-.028-.086-.042l-.028-.015-.257-.085.029.014.028.014a.658.658 0 00.072.029.36.36 0 01.07.028l.086.043c.015 0 .043.029.043.029.014 0 .043.028.043.028a.204.204 0 00.057.029.21.21 0 01.057.028.204.204 0 00.057.029.204.204 0 00.057.028l.057.029c.014 0 .028.014.043.014-.456-.214-.713-.328-.713-.328-.014 0-.028.014-.043.029-.057-.029-.128-.072-.17-.072l-.229-.071c-.014 0-.014 0-.028-.014l.627-1.283zm22.288-3.021a.242.242 0 000 .142c-.028-.028-.042-.07-.07-.114a.417.417 0 01.099-.227c.014.014.028.042.057.056-.057.043-.071.086-.086.143zm-2.237.043c.071.028.142.057.228.085.043.086.1.171.143.257-.057 0-.129 0-.2.014a8.34 8.34 0 01-.171-.356zm-4.56 2.422a1.056 1.056 0 01-.542-.541c.143.071.37.1.556.1-.641-.542-.613-2.024-.143-2.808.057-.028.1-.071.143-.1.157.3.57.3.784.528.085-.086.128-.1.213-.171 0 0 .015 1.225.1 1.71 0 .028.015.043.015.071-.371.185-.827.57-1.126 1.211zm2.294 8.907l-1.111-.513.769-1.639c.356.3.713.513 1.04.67l-.698 1.482zm-15.448-4.446v.085c0-.014-.014-.014-.029-.028.015-.014.015-.029.029-.057zm19.338-7.653l.257.086a.172.172 0 00.071.071l-.27-.071c-.015-.029-.043-.057-.057-.086zm-1.995-.028c.043.028.1.057.143.085.057.1.114.2.17.314-.042 0-.099 0-.142-.014-.042-.143-.114-.271-.17-.385zm-3.05 8.08c0 .071.015.157.015.242 0-.085 0-.17-.014-.242zm-.028-.328c0 .043.015.072.015.114 0-.043-.015-.085-.015-.114zm-3.092 5.116l.541.257c-.057.1-.17.256-.442.214-.085-.015-.156-.015-.227-.015-.015-.142-.029-.285-.057-.427.056-.014.128-.014.185-.029zm-5.03-1.069l.47-.242c-.086.4-.157.798-.214 1.24-.143.029-.3.029-.456 0 .028-.342.1-.684.2-.998zm-2.751 1.369l.27-.129c0 .086-.014.186-.014.285a.337.337 0 01-.256-.156zm3.15-2.466l.241.114c-.014.043-.014.086-.028.128l-.385.2c.057-.157.1-.3.171-.442zm4.958-4.76c-.64-.085-1.168.072-1.581.228-.228.086-.414.2-.599.357.214-.428.599-.798.926-.884.556-.128.998.014 1.255.3zm-1.31 3.235a5.13 5.13 0 01-.799-.484v-.029h.043a.377.377 0 00.128.015h.057-.014c.314.028.584.156.798.384l-.214.114zm-3.863.029c-.028 0-.057.014-.07.014.085-.085.17-.185.241-.285a4.504 4.504 0 00-.17.27zm.784-.014h-.028c.028-.1.057-.186.071-.271-.014.1-.029.185-.043.27zm2.352.954l.299-.142c.328.242.698.527.926.826a6.364 6.364 0 01-1.126-.555c-.042-.043-.07-.086-.1-.129zm-.214-.527c.014.014.028.014.028.029l-.042.014c.014-.014.014-.029.014-.043zm-1.34-.698c.043.157.086.328.128.484-.014-.014-.042-.014-.056-.028a6.018 6.018 0 00-.072-.456zM35 41.128c.015.413.385.698.556.77.257.113.798.156 1.183-.186.014.142.043.242.114.328l-1.881.969c0-.584-.442-.855-.84-1.112.142-.299.341-.541.598-.655.085-.057.185-.086.27-.114zm.043-.015c.328-.1.642-.085.955-.014-.257.228-.712.114-.955.014zm2.195.556c.043.029.085.057.114.086l.057-.029-.285.143c.028-.057.057-.114.114-.2zm-.242 2.879c-.114-.086-.257-.171-.385-.285-.342-.257-.77-.57-1.311-.827l2.394-1.197c.028.827-.1 1.739-.698 2.309zm-7.226-1.767s-.028-.014-.042-.014c0 0-.029-.015-.043-.015 0 0-.029-.014-.043-.028 0 0-.028-.014-.043-.014.057-.029.129-.043.2-.057l-.014.014c.057-.014.1-.014.156-.014.086 0 .171-.015.243-.029-.1.071-.2.142-.314.214 0 0-.028-.014-.043-.014 0 0-.028-.015-.042-.029.014 0 0-.014-.015-.014zm-.926-.428s-.029-.014-.043-.014c0 0-.028-.014-.043-.014 0 0-.028-.015-.042-.015 0 0-.029-.014-.043-.014 0 0-.029-.014-.043-.014 0 0-.028-.014-.043-.014 0 0-.028-.014-.042-.014 0 0-.029-.015-.043-.015 0 0-.029-.014-.043-.014 0 0-.028-.014-.042-.014 0 0-.029-.014-.043-.014 0 0-.029-.015-.043-.015 0 0-.028-.014-.043-.014 0 0-.028-.014-.043-.014 0 0-.028-.015-.042-.015 0 0-.029-.014-.043-.014 0 0-.028-.014-.043-.014 0 0-.028-.014-.043-.014 0 0-.028-.014-.042-.014 0 0-.029-.015-.043-.015 0 0-.029-.014-.043-.014a1.3 1.3 0 00.442-.071c.171-.072.556-.37.556-.798-.328.142-1.098.356-1.197-.442-.086-.698.527-1.268 1.453-1.026h.015c.028.014.057.014.085.028.656.271 1.482 1.568.656 2.124-.285.2-.67.385-.87.727 0 0-.028-.015-.042-.015 0 0-.029-.014-.043-.014 0 0-.029-.014-.043-.014 0 0-.028-.014-.043-.014 0 0-.028-.015-.042-.015 0 0-.029-.014-.043-.014 0 0-.029-.014-.043-.014.1-.129.071-.143.057-.143zm-1.069 4.333c0-.029.014-.057.029-.086.014.014.043.029.057.043l-.086.043zm-4.503-6.998c0 .015 0 .029.014.029 0 .014.014.043.014.057h-.014s-.028-.014-.043-.029l-.014-.014v-.043h.043zm7.553 8.665c-.171-.1-.3-.3-.37-.57.128.014.242.014.356.014v.143c-.015.128 0 .27.014.413zm2.252-2.038c.114-.185.213-.37.285-.541l.042.014c.129.456.214.912.214 1.44 0 .355-.071.669-.214.883a.585.585 0 01-.228.228c.015-.143.029-.271.029-.428 0-.57-.057-1.097-.128-1.596zm7.624-6.598v-.029c.014.015.028 0 .043 0v.043c.042-.014-.029.185-.029.3l-.584.299c-.014-.057-.014-.114-.014-.186h.028a.233.233 0 00.086-.042s.014 0 .014-.015c.128-.028.256-.042.328-.185l.028-.057c.071 0 .086-.071.1-.128zm2.08-7.126c.086.072.371.4.699.798a.986.986 0 01-.185-.07c-.271-.371-.485-.656-.513-.728zm-1.21.798c.028.043.07.1.099.157h-.043c-.014-.071-.043-.114-.057-.157zm-21.762 1.169c-.086-.014-.157-.029-.228-.029.584-.698 1.482-1.795 1.653-1.938-.071.157-.87 1.169-1.425 1.967zm-1.368 5.244c-.1.015-.185.015-.285.015a.605.605 0 01-.47.541s-.015 0-.015-.014c-.028-.014-.042-.029-.07-.043a.17.17 0 01-.072-.071c-.029-.029-.043-.057-.072-.086a1.05 1.05 0 01-.07-.228v-.128a.626.626 0 01.142-.328.747.747 0 01-.171-.2 1.226 1.226 0 01-.143-.227 1.335 1.335 0 01-.156-.528c-.015-.114-.015-.213-.015-.327.015-.1.029-.214.057-.3a1.593 1.593 0 011.354-1.14c.114-.014.228-.014.328 0a.587.587 0 01.484-.399h.143c.1.1.157.214.185.357a.59.59 0 01-.114.413c.228.242.385.556.428.912.085.855-.556 1.667-1.468 1.781zm12.854-22.117c.214.014.456.014.698.014.243 0 .485 0 .699-.014.527.527 1.71 1.197 2.878 1.44-.67 0-1.852-.058-1.995-.229.029.428.94.912 1.525 1.04-.484.058-.94 0-1.325-.185.214.3.442.542.84.67-.413.499-1.253.827-2.108.741.2.257.57.413.926.37-.684 1.07-1.311 2.252-1.44 3.877-.142-1.625-.769-2.807-1.453-3.876.342.042.727-.114.926-.37-.84.085-1.681-.243-2.095-.742.4-.128.627-.37.841-.67-.385.171-.84.228-1.325.185.598-.128 1.51-.612 1.525-1.04-.143.171-1.326.228-1.995.228 1.168-.242 2.35-.912 2.878-1.44zm-9.676 21.448a34.079 34.079 0 00-.086-.043c.015.014.029.014.043.028.014 0 .029.015.043.015zm17.927 2.38c-.014.014-.028.014-.042.028 0-.014.014-.043.014-.057 0-.029.014-.057.014-.086.014.029 0 .072.014.114zm-.028.085c-.014.043 0 .086.043.142a.03.03 0 00-.029.029c-.014-.057-.014-.114-.014-.171zm10.417-14.465c-.456-.285-1.197-.356-1.923-.313 1.154-.385 1.938-1.254 1.995-2.024-.627-.185-1.254-.085-1.81.029.584-.428 1.496-1.183 1.396-2.323-.541-.129-1.553.242-1.98.427 1.368-.755 1.852-2.522 1.125-3.534-.413.242-2.337 2.209-2.65 2.423.983-1.126 1.453-1.939 1.724-2.708.3-.84.328-2.28-.684-2.779-.485 1.112-2.195 3.976-3.164 5.145-.085-.086-.17-.2-.299-.228-.242.726-.926 1.695-1.525 2.137-.028-.057-.085-.228-.2-.385-.64.97-2.322 2.295-2.878 3.093-.413.613-.428 1.169.157 1.738.242.229.698.656.299 1.226-.641.926-2.052.884-2.465.1.897-.1 1.168-1.211.612-1.853-.242.428-.755.627-1.282.414-.328-.143-.584-.314-.713-.47.727.241 1.354-.186 1.269-.941-.585.498-1.183.014-1.297-.114-.385-.428-.47-.912-.328-1.653.128-.642.798-1.668 1.24-2.01.057.072.157.2.37.157.143-.029.357-.157.5-.2.44-.142.883-.014 1.153.143.514.314.456.641.456.912.784-.442.5-1.154-.498-1.44.698 0 1.254.628 1.396.713.37.257.927.2 1.24.057.613-.285.755-.997.584-1.154-.057.256-.27.484-.612.527-.528.057-1.04-.157-1.44-.328a3.13 3.13 0 00-1.268-.213c.684-.385 1.767-.342 2.152.242.228-.185.37-.356.442-.741.185-1.012-.599-1.54-1.468-1.54.014-.241-.157-.37-.385-.299 0-.1-.028-.17-.1-.213h.057c.87-.072 1.696-.342 2.138-.798.784-.813-.456-1.867-.014-2.694.413.2.726.428 1.325.528.057.113.1.37.128.484.185.926-.727 1.083-.499 2.066.1.442.442.585.556 1.112.015 0 .057.385-.285.698.755.015 1.14-.613.898-1.197-.1-.228-.356-.47-.342-.74.385.527.712.484 1.297.299.27-.072.3.299.142.584a.98.98 0 00.5-.798c0-.414-.314-.599-.628-.528-.185.043-.541.271-.57-.07-.043-.585.87-.557.67-1.497-.1-.499-.627-.727-1.44-.855a2.1 2.1 0 01-.399-.442c-.484-.755-.94-.955-1.21-.798-.329.185-.5.328-.785.47-.213.1-.441.157-.584.328-.356.456-.029 1.14.171 1.553.114.243.413.827.3 1.226-.157.499-.998.826-1.511.926-.015 0-.057.014-.086.014v-.199c.157-.27.285-.584.385-.855.328-.898-.171-1.283-.94-1.44a.418.418 0 00-.328-.042h-.015l-.014.128-.1-.014.015-.186h-.029a.398.398 0 00.114-.285c0-.1-.028-.185-.085-.242h.114l-.043-.042c-.029-.043-.071-.086-.114-.143a.297.297 0 01-.057-.086c.028.015.057.043.085.057.057.043.1.086.143.114l.043.043v-.84l-.043.042a1.043 1.043 0 00-.143.128c-.028.029-.057.043-.085.057a.297.297 0 01.057-.085c.043-.057.085-.114.114-.143l.043-.042h-.855l.042.042c.029.029.072.086.114.143.029.028.043.057.057.085-.028-.014-.057-.042-.085-.056-.057-.043-.114-.086-.143-.129l-.042-.043v.841l.042-.043c.029-.028.086-.07.143-.114a.297.297 0 01.085-.057.285.285 0 01-.057.086c-.042.057-.085.1-.114.143l-.042.042h.114a.387.387 0 00-.086.242c0 .114.043.2.114.285h-.014l.014.186-.1.014-.014-.128h-.014a.334.334 0 00-.328.043c-.77.156-1.268.541-.926 1.439.1.285.228.584.384.855v.128c-.755-.242-2.137-1.069-2.493-1.582-.043-.057-.086-.1-.1-.128v-.541c.285-.442.513-.998.698-1.483.485-1.296-.242-1.852-1.368-2.094-.114-.086-.256-.114-.442-.057l-.028.213-.228-.028.014-.257c-.043 0-.085.015-.128.015a.53.53 0 00.285-.47.575.575 0 00-.2-.414h.185c-.085-.1-.299-.314-.327-.442.128.029.342.228.442.314v-1.055c-.1.086-.314.285-.442.314.028-.129.228-.357.313-.442h-1.069c.086.1.285.313.314.442-.128-.029-.342-.228-.442-.314V12c.1-.086.314-.285.442-.314-.029.128-.228.342-.314.442h.186a.55.55 0 00-.2.413c0 .214.114.385.285.47-.043 0-.085-.014-.142-.014l.014.257-.242.028-.029-.213c-.185-.057-.328-.029-.442.057-1.14.242-1.852.783-1.368 2.095.186.484.414 1.04.699 1.482v.555c-.029.029-.057.072-.1.114-.356.513-1.753 1.34-2.494 1.582v-.128c.157-.27.285-.584.385-.855.342-.898-.171-1.283-.927-1.44a.418.418 0 00-.327-.042h-.015l-.014.128-.1-.014.015-.186h-.015a.398.398 0 00.114-.285c0-.1-.028-.185-.085-.242h.114l-.043-.042c-.028-.043-.085-.086-.128-.143a.297.297 0 01-.057-.086.297.297 0 01.085.057c.057.043.114.086.143.114l.043.043v-.84l-.043.042c-.029.029-.086.071-.143.128-.028.029-.057.043-.085.057a.297.297 0 01.057-.085c.043-.057.1-.114.128-.143l.043-.042h-.798l.043.042c.028.029.07.086.114.143a.297.297 0 01.057.085c-.029-.014-.057-.042-.086-.056-.057-.043-.114-.086-.142-.129l-.057-.043v.841l.057-.043c.028-.028.085-.07.142-.114a.297.297 0 01.086-.057.297.297 0 01-.057.086c-.043.057-.086.1-.129.143l-.042.042h.114a.387.387 0 00-.086.242c0 .114.043.2.114.285h-.028l.014.186-.1.014-.014-.128h-.014a.334.334 0 00-.328.043c-.77.156-1.268.541-.927 1.439.1.285.243.584.385.855v.2c-.028 0-.057-.015-.085-.015-.513-.114-1.34-.427-1.497-.926-.128-.4.172-.983.3-1.226.2-.413.527-1.111.17-1.553-.128-.171-.37-.228-.584-.328-.285-.142-.441-.285-.77-.47-.284-.157-.74.043-1.225.798a2.1 2.1 0 01-.399.442c-.812.114-1.34.356-1.44.855-.184.955.728.912.67 1.496-.028.342-.384.114-.57.071-.313-.07-.626.114-.626.528 0 .185.1.584.498.798-.156-.285-.128-.656.143-.585.584.186.926.214 1.297-.299.014.271-.257.513-.342.741-.242.599.142 1.212.898 1.197-.328-.313-.285-.698-.271-.698.114-.527.456-.655.556-1.112.228-.997-.684-1.14-.5-2.066.03-.114.072-.37.13-.484.598-.1.911-.314 1.324-.528.442.827-.798 1.881-.014 2.694.442.456 1.268.726 2.138.798h.057a.217.217 0 00-.086.213c-.228-.056-.399.058-.385.3-.869 0-1.653.527-1.467 1.539.07.385.213.556.441.74.385-.598 1.468-.64 2.152-.241a3.17 3.17 0 00-1.268.213c-.399.171-.912.4-1.44.328a.705.705 0 01-.612-.527c-.171.17-.029.87.584 1.154.328.143.87.2 1.254-.057.143-.1.699-.712 1.397-.712-.998.285-1.283.983-.499 1.439-.014-.27-.057-.599.456-.912.27-.157.713-.285 1.154-.143.143.043.357.172.5.2.213.043.313-.085.37-.157.456.342 1.111 1.368 1.24 2.01.142.74.056 1.225-.328 1.653-.114.128-.727.612-1.311.114-.086.755.555 1.183 1.282.94-.142.157-.385.328-.727.47-.527.214-1.04.015-1.282-.413-.556.642-.285 1.753.613 1.853-.414.798-1.824.826-2.466-.1-.399-.57.072-.997.3-1.226.598-.57.584-1.125.17-1.738-.541-.812-2.237-2.123-2.878-3.093-.128.157-.171.328-.2.385-.598-.442-1.296-1.41-1.524-2.137-.129.028-.214.142-.3.228-.955-1.183-2.679-4.033-3.15-5.145-1.025.499-.997 1.938-.697 2.779.285.77.74 1.568 1.724 2.708-.314-.214-2.238-2.18-2.65-2.423-.713 1.012-.229 2.779 1.125 3.534-.442-.185-1.44-.556-1.98-.427-.1 1.126.811 1.895 1.396 2.323-.542-.129-1.183-.214-1.81-.029.057.77.855 1.639 1.995 2.024-.727-.043-1.454.028-1.924.313.1.784.998 1.482 2.11 1.653-.742.086-1.397.414-1.725.841.399.513.983.927 1.881.912-.428.143-.955.57-1.154 1.112.513.413 1.168.67 2.65.142-1.71.713-1.368 1.055-1.639 1.782.314.114.585.441 1.397.242.456-.114 1.226-.84 1.881-1.268-.214.228-1.168.926-1.596 1.325-.47.442-.142.912-.142 1.311.07 0 .156.014.242.029-.014.028-.043.056-.057.085-.57-.242-1.254.057-1.54.67a1.32 1.32 0 00-.113.385c-.328-.072-.67.114-.841.456-.014.014-.029.057-.029.057-.014.014-.014.042-.014.057 0 .014 0 .014-.014.028 0 .029-.014.043-.014.043v.271c0 .028.014.057.014.057 0 .014.014.057.014.057 0 .028.014.057.014.057.015.014.029.057.029.057a.107.107 0 01.028.057.182.182 0 01.029.042l.043.043.042.043c.015.014.029.029.043.029a.202.202 0 00-.028.042c-.015.014-.029.043-.029.043a.202.202 0 00-.028.043s-.015.014-.015.028l-.014.015c-.014.014-.014.028-.014.028-.014.014-.029.043-.029.043 0 .014-.028.042-.028.042-.014.015-.014.029-.014.043a26.008 26.008 0 00-.057.114.211.211 0 01-.029.057c0 .014-.014.043-.014.043v.014c0 .015-.014.057-.014.057a.323.323 0 01-.015.057.323.323 0 01-.014.057v.285c0 .014.014.057.014.057 0 .014.015.057.015.057 0 .014.014.057.014.057 0 .014.014.057.014.057.014.014.014.057.014.057a.197.197 0 01.029.057c0 .014.014.057.014.057.014.015.029.057.029.057.014.015.028.043.028.043a.206.206 0 01.029.043.198.198 0 01.028.043.206.206 0 01.029.042l.042.043.043.043.043.043a.208.208 0 00.043.028.206.206 0 00.042.029.208.208 0 00.043.028.206.206 0 00.043.029c.014.014.028.028.043.028-.015.014-.029.057-.029.057-.014.014-.014.057-.014.057a.325.325 0 01-.014.057v.184a.14.14 0 00.014.043c0 .014.014.057.014.057.014.014.029.057.029.057 0 .014.014.029.014.043l.014.014a.208.208 0 01.029.043.198.198 0 01.028.043l.043.042a.18.18 0 00.043.029.206.206 0 00.043.028c.014.015.028.015.056.029.015.014.029.014.058.014.014 0 .042.014.056.014-.014.015-.014.043-.014.043a.144.144 0 01-.014.043c0 .014-.014.043-.014.043a.141.141 0 01-.014.042c0 .015-.015.043-.015.043v.342c0 .014.015.043.015.043 0 .014.014.043.014.043 0 .014.014.042.014.042a.14.14 0 00.014.043c.014.014.014.043.014.043 0 .014.015.028.015.028 0 .015.014.029.014.029v.014c.014.014.043.057.043.057.014.029.043.057.043.057a.191.191 0 00.056.057l.058.057c.014.015.07.043.07.043.03.014.044.029.072.043.014 0 .029.014.043.014 0 0 .028.014.043.014 0 0 .028 0 .042.014 0 0 .029.015.043.015h.043s.028 0 .043.014h.242s.028-.014.043-.014h.028s.029.014.043.014c0 0 .028.014.043.014 0 0 .028 0 .042.015h.213s.014 0 .028-.015h.043s.029-.014.043-.014c0 0 .029 0 .043-.014 0 0 .028-.014.043-.014l.028-.015.029-.014s.028-.014.028-.029l.029-.014s.042-.028.07-.042c0 0 .044-.029.058-.057l.057-.058s.043-.042.057-.07c0 0 .028-.03.043-.058h.028s.029 0 .057-.014h.014c.015 0 .029-.014.043-.014.014 0 .029.014.043.014 0 0 .043.014.057.014h.228s.043-.014.057-.014c0 0 .028-.014.043-.014 0 0 .042-.015.057-.029 0 0 .028-.014.042-.028 0 0 .029-.029.043-.029l.043-.043.043-.042.042-.043s.029-.029.029-.043h.185s.029.014.043.014h.014c.014 0 .029 0 .057.015 0 0 .043 0 .057.014h.114s.043 0 .057-.014h.057s.043-.015.057-.015c0 0 .043-.014.057-.014 0 0 .043-.014.057-.014 0 0 .029-.014.057-.014l.442.2.314.028.598-1.254a.23.23 0 00.1.057l.285.114v.128l1.824.855c-.014.028-.014.057-.014.071v.1c0 .014-.015.014-.015.014s-.014 0-.014.014c-.043.043-.028.114-.014.157-.014 0-.014 0-.014.014-.015 0-.029.015-.029.058.014.085.029.185.114.242a.414.414 0 00.385.071.42.42 0 00.228-.385c0-.028-.014-.057-.014-.085h.014c0 .014 0 .014.014.028.029.086 0 .171-.043.257a.427.427 0 00-.042.299v.014l.028.029c.043.057.1.114.2.128.028.043.1.043.157.043h.057c.014 0 .014-.015.028-.015.057-.014.142-.042.128-.128 0 0 0-.014.014-.014v.014c0 .072.015.128.043.2.014.043.043.057.086.071.043.029.1.029.157.029h.07c.015 0 .03.014.044.028h.028c.014 0 .043.014.057.014.057 0 .1-.057.128-.085l.015-.014c.057-.086.057-.157.057-.228v-.058l3.405 1.582c-.47.243-.84.513-1.14.741-.37.271-.67.5-.926.5-.214 0-.313-.115-.356-.2-.086-.171-.029-.613.157-.713a.617.617 0 00-.314.029c-.27.1-.77.427-.77 1.026 0 .085.015.185.043.285-.228.1-.442.242-.655.456-1.354 1.368-.485 2.308-.485 2.308 0-.399.342-.94.813-1.368a1.253 1.253 0 00-.029.228c0 .086.014.157.028.243.058.313.214.498.343.67.057.07.1.128.128.185l-1.838.954s-.186.1-.086.257l.014.014c.072.157.257.086.257.086l1.71-.855-.029.128.157-.043a.567.567 0 00.385-.328l.399-.2a1.5 1.5 0 00.256.471c.257.3.613.47 1.012.47h.086c-.015.015-.029.043-.043.058-.114.17-.257.327-.428.413a1.974 1.974 0 01-.399.17 3.82 3.82 0 01-.783.158c-.485.028-.927-.043-1.183-.214 0 0 .256 1.254 2.152.969 1.069-.157 1.567-.912 1.81-1.568.285.428.755.684 1.325.684.342 0 .67-.1.926-.27.2.441.499.812.898 1.054l.043.029.042-.029c.385-.242.699-.613.898-1.054.257.17.585.27.927.27.484 0 .898-.17 1.197-.513.142-.157.256-.356.328-.57.014 0 .014.014.028.014.242.186.527.4.983.4.4 0 .756-.172 1.012-.47.143-.158.228-.357.285-.57l.314.142a.651.651 0 00.17.342c.058.07.3.17.414.2-.043-.086-.057-.2-.071-.3l2.437 1.14.014.014a.71.71 0 00.342.043h.085c.015 0 .043-.014.057-.014.015 0 .043-.014.057-.014.015 0 .029-.015.043-.015.014 0 .029-.014.043-.028 0 0 .028-.015.043-.029l.042-.042.029-.029.043-.043s.014-.028.028-.043l.029-.056c0-.015.014-.029.014-.057 0 0 0-.029.014-.043v-.029c0-.014 0-.028.014-.042v-.157c0-.015 0-.029-.014-.043 0-.014-.014-.029-.014-.057 0-.014-.014-.029-.014-.043-.015-.014-.015-.028-.029-.043-.014-.014-.014-.028-.028-.042-.015-.015-.029-.029-.029-.043l-.043-.043c-.014-.014-.028-.028-.042-.028-.015-.015-.029-.029-.043-.029-.014-.014-.029-.014-.057-.028h-.014l-.015-.015s-.014 0-.014-.014a2.023 2.023 0 00-.157-.071c-.014 0-.014-.014-.014-.014s-.028-.015-.043-.015c-.142-.07-.327-.156-.57-.27l.271-.556 1.24.584 1.254-2.993-.014-.142-.385-.185c.014 0 .029-.015.029-.015.855-.37 1.567-1.724 1.182-2.707-.37-.984-.94-.984-.94-.984-.542.086-.798-.07-.798-.07 0 .284.556.769.556.769s.213.142.128.185c-.086.028-.228-.014-.228-.014-.285-.086-.613-.342-.613-.342s-.128.128.3.484c.427.37.526.642.526.642.186.584-.384.954-.384.954-1.482.727-3.05-.826-3.52-1.353.028-.015.057-.029.071-.072a.271.271 0 00.043-.2v-.014.015c0 .1.085.128.142.142.015 0 .015 0 .029.014h.057c.057 0 .114 0 .157-.042.085-.014.142-.072.2-.129l.013-.014v-.014c.043-.114 0-.2-.042-.3-.029-.085-.072-.156-.043-.256 0-.043.014-.085.028-.128a.714.714 0 00-.028.171c-.014.142.085.313.228.385.142.028.27.014.385-.072.085-.056.1-.156.114-.242 0-.028-.015-.042-.029-.057 0-.014-.014-.014-.014-.014.014-.043.014-.114-.014-.157l-.015-.014h-.014s-.014 0-.014-.014v-.1c0-.029 0-.057-.029-.1.129-.1.214-.242.271-.442l.057-.028a.269.269 0 00.114-.029l.014-.014.043-.043.157-.07.014.013c.1.029.157-.014.214-.114l3.463-1.724.043.085 1.04-.541-.043-.071.428-.214c-.143-.142-.328-.613-.328-.613l-.413.214-.043-.086-1.04.514.057.1-3.335 1.71c0-.015-.014-.015-.014-.03-.015-.013-.029-.013-.043-.013 0 .014-.014 0-.014.014 0-.014 0-.014-.015-.014l.029-.029c.014-.014.014-.028.014-.028v-.015c0-.028 0-.028-.014-.057-.014-.014-.014-.042-.014-.07 0-.044 0-.072-.029-.115v-.014c0-.014.014-.029 0-.043 0-.157-.157-.185-.27-.214-.043 0-.072-.014-.086-.014l-.157-.1s-.014 0-.014-.014l-.029-.043c-.014-.014-.014-.014-.028-.014h-.128c-.015 0-.015 0-.015.014H40.5c-.057.014-.042.043-.057.086 0 .071-.057.014-.07.071l-.015.014h-.014s-.015 0-.015.014c-.014 0-.014.015-.028.029a1.19 1.19 0 00-.171-.655c-.285-.485-.613-.784-1.326-.913a1.85 1.85 0 01.741-.698s.642-.242 1.012.257c0 0 .157.256.214.812.043.556.228.527.228.527s0-.399.071-.67c0 0 .029-.156.114-.213.086-.043.1.213.1.213s.071.727.3.898c0 0 .014-.299.413-.684 0 0 .27-.37-.1-1.097.1.028.185.043.27.1.2-.385.656-.513.585-.984.2.129.627.37 1.354.414l.256.028s-.042-.028-.085-.071c.014 0 .028 0 .028.014 0-.028.015-.043.015-.057.07.086.142.143.142.143s-.2.1-.2.299c0 .2.271.356.271.356s-.156.128-.1.285c.058.157.271.157.271.157s-.1.2.029.328c.1-.057.584-.285.883-.442-.27-.1-.527-.314-.67-.584a.737.737 0 01.1-.684c.171-.228.5-.228.656-.485a.649.649 0 00.185-.399c.171-.029.314-.071.442-.071 0-.413.328-.87-.142-1.311-.414-.4-1.383-1.098-1.597-1.326.656.428 1.411 1.14 1.881 1.269.799.2 1.084-.129 1.383-.243-.257-.726.071-1.068-1.639-1.78 1.496.526 2.138.27 2.65-.143-.199-.542-.726-.97-1.154-1.112.898.014 1.497-.399 1.896-.912-.328-.442-.998-.77-1.739-.84 1.083-.215 1.967-.913 2.066-1.697z" fill="#fff"/><path d="M47.256 35.613a1.318 1.318 0 00-.67.869l-.085.057-.043.114c-.057-.015-.114-.029-.185 0-.242.114-.114.384-.114.384s.114.3.2.485c.128.256.285.47.285.47s.185.214.37.114c.085-.043.114-.128.128-.2l.1.029.171.014c.328.114.684.1 1.012-.057.627-.328.898-1.097.57-1.724a1.294 1.294 0 00-1.739-.555zm-2.65 2.251c-.143-.228-.043-.313-.043-.313s-.057 0-.114-.043c0 0-.385.185-.47.228-.086.056-.242.156-.271.27.27.057.613.014.898-.142zm-.215-.385c-.085-.071-.114-.128-.1-.214 0 0 .029-.156.1-.199-.028 0-.071-.028-.071-.028s-.257-.014-.3 0c0 0-.498.07-.769.341.27.27.827.185 1.14.1zm-.101-.485s-.157-.114-.142-.27c0-.086 0-.157.128-.27 0 0-1.026-.114-1.525.113.257.27.57.398 1.097.413.015-.015.442.014.442.014zm3.165 2.224c-.3-.029-.485.242-.784.242a.731.731 0 01-.613-.313 1.193 1.193 0 01-.086-.884c-.299.143-.783.4-.883.442.028.171.256.214.256.214s-.114.17-.028.299c.085.142.285.085.285.085s-.029.3.128.414c.157.128.356.014.356.014s-.014.3.171.428c.172.128.371 0 .371 0s.071.228.171.27c.114.043.257-.028.342-.142.029.142.157.385.314.442.17.057.256.042.427-.057.228-.171.086.1.071.156-.1.328-.228.656-.328.984-.07.228-.156.57-.014.784.015.028.143.156.242.128.1-.37.229-.741.328-1.098.129-.413.257-.826.257-1.268-.057-.285-.057-.627-.27-.84a.78.78 0 00-.713-.3z" fill="#808D9C"/><path d="M45.275 38.961s-.129.029-.228-.227a1.333 1.333 0 00-.642.64c.114.042.285-.015.37-.057.1-.043.457-.228.457-.242a.647.647 0 01.043-.114zm.285.499s0-.057.014-.086c-.072.029-.214-.042-.214-.042-.086-.029-.114-.1-.114-.2-.27.2-.656.598-.599.983.385-.057.727-.413.727-.413.029-.029.185-.242.185-.242zm.142.328c-.128-.1-.142-.285-.142-.285s-.229.356-.257.385c-.3.428-.385.741-.313 1.111.484-.256.997-1.154.997-1.154-.157.043-.214 0-.285-.057zm.727.513s-.143.014-.257-.128c-.142-.157-.128-.328-.128-.328s-.128.228-.143.228c-.541.841-.456 1.482-.456 1.482.171-.07.428-.384.428-.384.057-.043.556-.87.556-.87zm.156.813l.342-.585a.258.258 0 01-.242-.1c-.057-.07-.086-.156-.086-.156s-.057.028-.1.028l-.213.356s-.456.784-.47 1.64c0 0 .213-.186.27-.3.157-.228.499-.883.499-.883zm.741-.385a.964.964 0 01-.2-.314s-.042.071-.127.1a24.55 24.55 0 00-.414.755c-.285.513-.684 1.624-.499 1.923.357-.27.741-1.253.741-1.253l.5-1.211zm.129 1.424l.527-1.439c-.299.2-.413.143-.598.072 0 0-.342.826-.542 1.325-.142.285-.413 1.225-.27 1.766.128-.07.213-.213.299-.342.071-.1.157-.299.157-.299l.427-1.083zm.028.172s-.527 1.225-.527 1.652c.014.428.128.841.228 1.04l.67-2.18s-.342.03-.37-.512z" fill="#808D9C"/><path d="M31.963 27.931h-4.46v9.22c0 1.14.485 1.682 1.453 1.682h1.483c.77 0 1.31.585 1.51 1.283.2-.698.741-1.283 1.51-1.283h1.483c.983 0 1.453-.541 1.453-1.681v-9.22h-4.432z" fill="#ED1C24"/><path d="M30.155 36.795c-.085 0-.171 0-.242-.014-.015-.114-.086-.17-.1-.285-.057-.028-.014-.1-.014-.142.014-.057-.029-.114-.029-.171 0-.114.029-.214.057-.3.071-.17.185-.313.242-.498.086-.072.186-.171.243-.214.085-.086.156-.171.242-.271.185-.142.428-.228.599-.399.114.086.1.356.014.456a.426.426 0 01.057.142c.071.029.142.072.228.072.242.185.47.37.556.712.028.086.042.143.1.214.014-.028-.015-.057-.015-.1.029.029.057.057.1.086a.11.11 0 00-.071.028c-.015.057-.015.143.057.143-.072.028-.214-.014-.257.071a.37.37 0 00-.2.086c-.07 0-.113.042-.17.057.014-.043 0-.057 0-.1a.513.513 0 00.014-.257c-.071-.313-.285-.47-.613-.47-.029 0-.057 0-.1.014l-.213.043a.713.713 0 00-.186.071c-.256.186-.442.485-.299.87 0 0 0 .014-.014.014s-.029-.029-.043-.029c0 0-.014 0-.014.015-.014.085.071.07.071.156zm2.152-.969l-.385-1.382a.997.997 0 00.086-.328c.085.014.185.014.285.029.042.1.128.213.114.327.042.043-.015.143-.015.228.015.057.043.072.057.129.029 0 .043.014.072.014.1 0 .156-.057.242-.071 0 .014.014.028.014.043a.196.196 0 01.086-.029c.042 0 .07.029.1.071.085.086.156.257.242.328.014.071.057.128.057.185.1.157.242.285.285.5h-.029c-.114 0-.142.142-.085.213a.218.218 0 01.071-.114h.014c.029 0 .029.014.043.014.014-.014 0-.028.014-.043.029.029.029.072.043.114h-.014c-.086 0-.157.114-.086.171.014-.014.014-.042.029-.057h.028c.014 0 .043.015.057.015.015 0 .015 0 .029-.015.014.043.014.1.014.157-.028.029-.071.043-.085.086-.029 0-.058-.015-.086-.015-.057 0-.114.015-.128.043 0 .014.014.014.014.014.014 0 .043-.028.071-.028h.029c.014.028 0 .043 0 .085h-.015a.03.03 0 00-.028.029c-.014-.029-.071-.014-.114-.029.043-.028-.086-.07-.128-.1a.43.43 0 00-.114-.056h-.1c-.029-.029-.114-.043-.157-.043h-.014v-.029h.014c.043 0 .071-.028.086-.028 0 0 .014 0 .028.014.057-.014.086-.071.157-.085a.109.109 0 01-.029.07c.015.015.015.03.029.03.043 0 .071-.072.071-.129-.014-.071-.114-.085-.157-.1-.1.015-.156.114-.228.157-.028.014-.085.014-.114.029-.042.028-.057.1-.1.128.015-.057.058-.143.015-.214.1-.028.114-.17.228-.185 0 .028 0 .071-.014.085.014 0 .014.015.028.015.086 0 .114-.157.043-.214-.014 0-.014.014-.029.014-.028 0-.042-.014-.07-.014-.03 0-.044.014-.072.014-.014 0-.043-.014-.057-.014h-.014c-.114.014-.057.157-.129.214-.014-.043.043-.114 0-.171a.146.146 0 01-.07-.086s-.015 0-.015-.014h-.043c-.028 0-.043 0-.043.014-.014 0-.028.014-.028.014zM30.34 28.83c-.014 0-.014 0-.028.014-.015.015-.015.029-.015.057l.1.357c-.042.028-.114.114-.114.17v.257c-.1 0-.256.057-.37.071-.143 0-.357 0-.528.072-.114.042-.327.185-.327.342 0 .07.042.128.085.17-.085.072-.185.229-.185.343 0 .043 0 .085.028.114.015.028.072.028.1.057.014.014.014.028.029.042a.38.38 0 00-.043.172.17.17 0 00.128.156c-.014.043.114.129.214.129.028 0 .1-.072.128-.1.086 0 .128.028.185.085.015.029.029 0 .043.029.029.071.043.17.057.213 0 .029.029.043.057.043h.014c.058-.014.143-.1.2-.157.029 0 .057 0 .1.015h.071c.057 0 .1 0 .128-.015a.437.437 0 00.1.072c.014-.029.029-.057.057-.057h.014c.057 0 .143.057.228.057a.224.224 0 01.186-.1l.085.313h-.071c-.029.257.157.385.17.628-.014.014-.028.028-.056.028-.029 0-.057-.014-.1-.014h-.128c-.285 0-.556.071-.713.2-.014.014-.028.014-.043.014h-.042c-.114-.143-.186-.328-.385-.385a.591.591 0 00-.228-.043.7.7 0 00-.328.071c-.085.043-.128.1-.185.157-.029.029-.071.057-.1.086a.945.945 0 00-.128.27c-.029.114-.014.243-.043.37-.014.1-.057.186-.071.272-.029.028-.057.057-.043.128.057-.014.128-.057.157-.071a1.533 1.533 0 00-.029.513c.015.185.015.114.015.242.1-.1.2-.2.228-.356.028.228-.015.37-.043.427.085-.071.128-.128.228-.213.043-.029.1-.043.142-.072.086-.071.086-.2.129-.313.028.17.057.37-.057.47a.256.256 0 00.1-.071c.042 0 .113-.043.128-.072.17-.2.028-.541.014-.783-.014-.129-.057-.228-.043-.357.014-.07.043-.17.1-.213.029-.029.057-.029.1-.029.085 0 .185.086.213.157a1.005 1.005 0 00-.128.556c.014.342.157.57.328.77.043.042.028.199.014.242 0 .014.014.014.014.042a.838.838 0 01-.085.285c-.071.1-.171.143-.3.214-.056.029-.056.114-.07.185-.015.057-.072.143-.015.185-.014.214-.071.385-.114.57-.071.186-.3.271-.27.5.014 0 .014-.03.028-.03h.014c-.014.03.014.03.014.044.029 0 .015-.043.043-.043 0 .028 0 .028.014.028 0 0 .015-.014.029-.014 0 .114-.086.143-.071.257-.015.014-.029.028-.043.028-.057 0-.086-.157-.1-.214-.043-.213-.028-.456-.142-.584a.418.418 0 00-.271-.1c-.043 0-.086 0-.114.029h.014c.171 0 .27.17.3.342.014.128-.015.242 0 .356.014.185.056.37.142.499.071.114.17.157.27.256.172.072.386.114.585.114.114 0 .228-.014.328-.042v.1a.765.765 0 01-.228.142c0 .043.157 0 .356 0 .413 0 .356.256.356.256s-.043.043.029.043c.057-.014.114-.014.156-.014.257 0 .442.071.57.128.129.057.186.1.214.1.015 0 .243-.086.385-.086.029 0 .071 0 .1.015.114.014.228.057.342.057.028 0-.014 0 .085-.014.1-.015.114-.143.186-.285.057-.03.2-.086.2-.086s.042-.014.056-.014c.057-.015.029-.129.014-.271.057 0 .086-.071.143-.1.028-.014.071-.014.1-.014.014.014.028.014.057.014.014-.014.042-.014.071-.014.029 0 .057.014.1.014h.042c.1.043.171.185.3.185.028 0 .057 0 .071-.014l.086-.128c.028-.014.07-.014.114-.014h.114c.042 0 .085-.029.128-.043h.171c.085-.014.185-.029.256-.029a.271.271 0 00.129-.042c.028-.029.028-.1.057-.157.028-.057.07-.1.057-.185-.029.042-.057.1-.086.142.029 0 .043-.071.071-.071a.271.271 0 01-.1.157c0-.086.1-.228.015-.328 0 .114-.057.242-.171.285.014-.043.043-.157 0-.2 0 .057-.029.086-.057.129 0-.043 0-.086-.029-.1-.014.1-.071.142-.157.17 0-.028-.028-.028-.028-.07-.029.014-.029.042-.071.042-.014-.028-.014-.07-.043-.085-.014.014-.029.057-.057.071-.029 0-.014-.071-.043-.085-.014 0-.014.042-.042.042a.618.618 0 00-.114-.213c.056-.029 0-.072.056-.1.015 0 .015.014.015.014.014 0 .028-.014.043-.014 0 0 .014 0 .028.014.014-.028 0-.057.029-.071.014.014.014.043.042.043.029-.015.014-.057 0-.086.029 0 .043-.028.072-.043.056.029.1.043.114.114.028-.07.014-.156 0-.228h.014c.014 0 .014-.014.043-.014.028.043.07.114.056.157.043-.029.029-.128.015-.171.042.014.057.071.085.114.029-.1-.057-.228-.128-.242-.071 0-.143.114-.214.142-.028.014-.071 0-.114.014-.028.015-.057.057-.071.072-.071.057-.157.085-.214.128-.043-.071-.128-.114-.157-.2a.306.306 0 00.057-.17c-.014-.043-.085-.03-.1-.086.015-.029.03-.043.03-.086-.015-.028-.072-.014-.1-.028-.029-.143-.114-.328-.086-.47 0-.029.029-.058.029-.1 0-.057-.029-.086-.029-.129 0-.028 0-.056-.014-.07-.029-.044-.072-.086-.1-.129-.014-.029-.014-.057-.028-.1-.029-.17-.1-.37-.143-.541-.014-.057-.043-.114-.043-.185.029 0 0 .042.014.042.015-.014 0-.057.015-.057.071.029.142.057.2.086.242-.057.327-.242.527-.357.085-.042.17-.114.27-.156.043-.029.114-.029.157-.057.071-.029.1-.072.185-.072h.029c.057.243.043.485-.157.57-.071.029-.142.029-.157.129 0 .028.029.028.043.028-.043.029-.014.086-.043.143-.014 0-.014.014-.028.014-.057-.029-.086-.071-.143-.071h-.014c-.114.014-.2.285-.142.413.014 0 .014 0 .014.014h.042c.171 0 .257-.085.428-.085.057-.057.185-.072.242-.157.029-.028.029-.128.043-.185.043-.114.128-.257.157-.37.014-.072.014-.158.028-.229 0-.185.072-.313.1-.47-.057-.071-.043-.214-.128-.257-.029-.014-.057-.014-.086-.014-.128 0-.256.071-.37.1-.214.057-.428.085-.656.128.1-.356-.114-.613-.157-.912-.014-.1-.042-.2-.056-.3 0 0 .014 0 .014-.013a.162.162 0 00.114.042.12.12 0 00.1-.057c.042-.07.07-.128.142-.142v.028c0 .072.057.114.128.114h.014c.072 0 .1-.028.114-.07 0 .013 0 .013.015.028.014.014.028.014.042.014.015.014.029.028.086.028h.028c.057-.07.186-.042.257-.1.086-.07.014-.313 0-.555-.014-.242-.057-.456-.142-.57.028 0 .07-.015.056-.043a.27.27 0 00.115.028h.014c-.043-.1-.014-.242-.072-.327.03-.029.072-.057.1-.1a.488.488 0 00-.256-.057.223.223 0 00-.171-.085h-.043c.043-.058.1-.115.142-.186h-.028c-.071 0-.171.014-.242.029-.043-.043-.114-.057-.171-.057h-.043c-.1-.057-.185-.043-.27-.057a.372.372 0 00-.157-.043c-.129 0-.257.085-.428.1.085.014.157.042.185.1-.071-.015-.128-.043-.185-.043h-.014c-.171 0-.3.142-.385.17h.043c-.072.015-.129.086-.143.158.029-.015.057-.015.086-.015h.014c-.043.072-.328 0-.37.143.028-.015.056-.015.085-.015.071 0 .128.029.185.043-.142.072-.128.3-.313.3h-.029c0-.114-.057-.214-.128-.328-.057-.072-.143-.186-.214-.228-.043-.029-.071-.043-.085-.043 0 .014.014.014.014.029-.014-.015-.043-.029-.043-.072.014-.028-.014-.057.014-.1a.24.24 0 00.072.029h.014c.014 0 .028-.014.043-.043l.042-.043c.043.043.072.072.1.072.1 0 .171-.072.185-.186 0-.028-.014-.057 0-.07.015-.058.072-.143.072-.229 0-.128-.1-.185-.143-.242-.043-.071-.142-.157-.242-.157h-.014c-.057 0-.086-.028-.129-.028-.1 0-.2.042-.285.114h.029l.028-.015a.846.846 0 01.228-.085c.043 0 .057.028.072.028.014 0 .014.015.028.015h.014c.029 0 .043-.015.072-.015h.028c.185.043.157.2.228.228.071.029.071.1.071.129 0 .128-.07.17-.07.242 0 .028 0 .043-.015.071a.206.206 0 01-.143.143h-.014c-.028 0-.057-.029-.1-.043l.057-.057s0-.014.015-.014c.014-.029.057-.072.057-.114 0 0 0-.015.014-.029h.028s.015 0 .029-.014v-.029c.014-.042.028-.114 0-.128.028-.028.043-.1.028-.142-.014.042-.014.114-.042.142-.057-.014.042-.142-.029-.157a.19.19 0 01-.014.129c-.029 0 .014-.043 0-.072-.029 0-.014.043-.029.057-.042-.014-.057-.057-.1-.057 0-.014.015 0 .03-.028-.186.014-.343.242-.371.427a.413.413 0 01-.114-.057c-.029-.028-.015-.085.014-.114-.029 0-.043.029-.057.043-.014.014-.014.029-.029.029-.014 0-.014-.043-.014-.057a.262.262 0 01.128-.2c-.085.029-.128.128-.185.214-.014 0-.043-.029-.043-.043 0-.043 0-.1.015-.114a.278.278 0 01.142-.142h-.014c-.057 0-.128.057-.157.1-.028 0-.043-.043-.043-.043 0-.043.043-.086.1-.143a.34.34 0 01.157-.085c.057-.015.114-.015.185-.072-.057.015-.114.043-.17.057h-.03a.295.295 0 00-.142.086c-.071.057-.1.1-.114.142-.014.043.029.072.043.129.014.028 0 .07.014.1 0 .014.043.042.071.056h.015s.014 0 .028-.014v.043c.014.014.057 0 .057.014-.028.086-.1.157-.1.157-.07-.071-.156-.114-.213-.157-.114-.057-.171-.071-.243-.1-.057-.028-.157-.142-.328-.17h-.128v-.086a.03.03 0 00.029-.029c.014-.014.014-.07 0-.085-.014-.014-.043-.114-.114-.143.014 0 .014-.014.014-.028-.029 0-.043-.014-.057-.029h-.057l-.1-.384c-.014-.057-.014-.072-.057-.086z" fill="#fff"/><path d="M30.155 36.795c-.085 0-.171 0-.242-.014-.015-.114-.086-.17-.1-.285-.057-.028-.014-.1-.014-.142.014-.057-.029-.114-.029-.171 0-.114.029-.214.057-.3.071-.17.185-.313.242-.498.086-.072.186-.171.243-.214.085-.086.156-.171.242-.271.185-.142.428-.228.599-.399.114.086.1.356.014.456a.426.426 0 01.057.142c.071.029.142.072.228.072.242.185.47.37.556.712.028.086.042.143.1.214.014-.028-.015-.057-.015-.1.029.029.057.057.1.086a.11.11 0 00-.071.028c-.015.057-.015.143.057.143-.072.028-.214-.014-.257.071a.37.37 0 00-.2.086c-.07 0-.113.042-.17.057.014-.043 0-.057 0-.1a.513.513 0 00.014-.257c-.071-.313-.285-.47-.613-.47-.029 0-.057 0-.1.014l-.213.043a.713.713 0 00-.186.071c-.256.186-.442.485-.299.87 0 0 0 .014-.014.014s-.029-.029-.043-.029c0 0-.014 0-.014.015-.014.085.071.07.071.156zm2.152-.969l-.385-1.382a.997.997 0 00.086-.328c.085.014.185.014.285.029.042.1.128.213.114.327.042.043-.015.143-.015.228.015.057.043.072.057.129.029 0 .043.014.072.014.1 0 .156-.057.242-.071 0 .014.014.028.014.043a.196.196 0 01.086-.029c.042 0 .07.029.1.071.085.086.156.257.242.328.014.071.057.128.057.185.1.157.242.285.285.5h-.029c-.114 0-.142.142-.085.213a.218.218 0 01.071-.114h.014c.029 0 .029.014.043.014.014-.014 0-.028.014-.043.029.029.029.072.043.114h-.014c-.086 0-.157.114-.086.171.014-.014.014-.042.029-.057h.028c.014 0 .043.015.057.015.015 0 .015 0 .029-.015.014.043.014.1.014.157-.028.029-.071.043-.085.086-.029 0-.058-.015-.086-.015-.057 0-.114.015-.128.043 0 .014.014.014.014.014.014 0 .043-.028.071-.028h.029c.014.028 0 .043 0 .085h-.015a.03.03 0 00-.028.029c-.014-.029-.071-.014-.114-.029.043-.028-.086-.07-.128-.1a.43.43 0 00-.114-.056h-.1c-.029-.029-.114-.043-.157-.043h-.014v-.029h.014c.043 0 .071-.028.086-.028 0 0 .014 0 .028.014.057-.014.086-.071.157-.085a.109.109 0 01-.029.07c.015.015.015.03.029.03.043 0 .071-.072.071-.129-.014-.071-.114-.085-.157-.1-.1.015-.156.114-.228.157-.028.014-.085.014-.114.029-.042.028-.057.1-.1.128.015-.057.058-.143.015-.214.1-.028.114-.17.228-.185 0 .028 0 .071-.014.085.014 0 .014.015.028.015.086 0 .114-.157.043-.214-.014 0-.014.014-.029.014-.028 0-.042-.014-.07-.014-.03 0-.044.014-.072.014-.014 0-.043-.014-.057-.014h-.014c-.114.014-.057.157-.129.214-.014-.043.043-.114 0-.171a.146.146 0 01-.07-.086s-.015 0-.015-.014h-.043c-.028 0-.043 0-.043.014-.014 0-.028.014-.028.014zM30.34 28.83c-.014 0-.014 0-.028.014-.015.015-.015.029-.015.057l.1.357c-.042.028-.114.114-.114.17v.257c-.1 0-.256.057-.37.071-.143 0-.357 0-.528.072-.114.042-.327.185-.327.342 0 .07.042.128.085.17-.085.072-.185.229-.185.343 0 .043 0 .085.028.114.015.028.072.028.1.057.014.014.014.028.029.042a.38.38 0 00-.043.172.17.17 0 00.128.156c-.014.043.114.129.214.129.028 0 .1-.072.128-.1.086 0 .128.028.185.085.015.029.029 0 .043.029.029.071.043.17.057.213 0 .029.029.043.057.043h.014c.058-.014.143-.1.2-.157.029 0 .057 0 .1.015h.071c.057 0 .1 0 .128-.015a.437.437 0 00.1.072c.014-.029.029-.057.057-.057h.014c.057 0 .143.057.228.057a.224.224 0 01.186-.1l.085.313h-.071c-.029.257.157.385.17.628-.014.014-.028.028-.056.028-.029 0-.057-.014-.1-.014h-.128c-.285 0-.556.071-.713.2-.014.014-.028.014-.043.014h-.042c-.114-.143-.186-.328-.385-.385a.591.591 0 00-.228-.043.7.7 0 00-.328.071c-.085.043-.128.1-.185.157-.029.029-.071.057-.1.086a.945.945 0 00-.128.27c-.029.114-.014.243-.043.37-.014.1-.057.186-.071.272-.029.028-.057.057-.043.128.057-.014.128-.057.157-.071a1.533 1.533 0 00-.029.513c.015.185.015.114.015.242.1-.1.2-.2.228-.356.028.228-.015.37-.043.427.085-.071.128-.128.228-.213.043-.029.1-.043.142-.072.086-.071.086-.2.129-.313.028.17.057.37-.057.47a.256.256 0 00.1-.071c.042 0 .113-.043.128-.072.17-.2.028-.541.014-.783-.014-.129-.057-.228-.043-.357.014-.07.043-.17.1-.213.029-.029.057-.029.1-.029.085 0 .185.086.213.157a1.005 1.005 0 00-.128.556c.014.342.157.57.328.77.043.042.028.199.014.242 0 .014.014.014.014.042a.838.838 0 01-.085.285c-.071.1-.171.143-.3.214-.056.029-.056.114-.07.185-.015.057-.072.143-.015.185-.014.214-.071.385-.114.57-.071.186-.3.271-.27.5.014 0 .014-.03.028-.03h.014c-.014.03.014.03.014.044.029 0 .015-.043.043-.043 0 .028 0 .028.014.028 0 0 .015-.014.029-.014 0 .114-.086.143-.071.257-.015.014-.029.028-.043.028-.057 0-.086-.157-.1-.214-.043-.213-.028-.456-.142-.584a.418.418 0 00-.271-.1c-.043 0-.086 0-.114.029h.014c.171 0 .27.17.3.342.014.128-.015.242 0 .356.014.185.056.37.142.499.071.114.17.157.27.256.172.072.386.114.585.114.114 0 .228-.014.328-.042v.1a.765.765 0 01-.228.142c0 .043.157 0 .356 0 .413 0 .356.256.356.256s-.043.043.029.043c.057-.014.114-.014.156-.014.257 0 .442.071.57.128.129.057.186.1.214.1.015 0 .243-.086.385-.086.029 0 .071 0 .1.015.114.014.228.057.342.057.028 0-.014 0 .085-.014.1-.015.114-.143.186-.285.057-.03.2-.086.2-.086s.042-.014.056-.014c.057-.015.029-.129.014-.271.057 0 .086-.071.143-.1.028-.014.071-.014.1-.014.014.014.028.014.057.014.014-.014.042-.014.071-.014.029 0 .057.014.1.014h.042c.1.043.171.185.3.185.028 0 .057 0 .071-.014l.086-.128c.028-.014.07-.014.114-.014h.114c.042 0 .085-.029.128-.043h.171c.085-.014.185-.029.256-.029a.271.271 0 00.129-.042c.028-.029.028-.1.057-.157.028-.057.07-.1.057-.185-.029.042-.057.1-.086.142.029 0 .043-.071.071-.071a.271.271 0 01-.1.157c0-.086.1-.228.015-.328 0 .114-.057.242-.171.285.014-.043.043-.157 0-.2 0 .057-.029.086-.057.129 0-.043 0-.086-.029-.1-.014.1-.071.142-.157.17 0-.028-.028-.028-.028-.07-.029.014-.029.042-.071.042-.014-.028-.014-.07-.043-.085-.014.014-.029.057-.057.071-.029 0-.014-.071-.043-.085-.014 0-.014.042-.042.042a.618.618 0 00-.114-.213c.056-.029 0-.072.056-.1.015 0 .015.014.015.014.014 0 .028-.014.043-.014 0 0 .014 0 .028.014.014-.028 0-.057.029-.071.014.014.014.043.042.043.029-.015.014-.057 0-.086.029 0 .043-.028.072-.043.056.029.1.043.114.114.028-.07.014-.156 0-.228h.014c.014 0 .014-.014.043-.014.028.043.07.114.056.157.043-.029.029-.128.015-.171.042.014.057.071.085.114.029-.1-.057-.228-.128-.242-.071 0-.143.114-.214.142-.028.014-.071 0-.114.014-.028.015-.057.057-.071.072-.071.057-.157.085-.214.128-.043-.071-.128-.114-.157-.2a.306.306 0 00.057-.17c-.014-.043-.085-.03-.1-.086.015-.029.03-.043.03-.086-.015-.028-.072-.014-.1-.028-.029-.143-.114-.328-.086-.47 0-.029.029-.058.029-.1 0-.057-.029-.086-.029-.129 0-.028 0-.056-.014-.07-.029-.044-.072-.086-.1-.129-.014-.029-.014-.057-.028-.1-.029-.17-.1-.37-.143-.541-.014-.057-.043-.114-.043-.185.029 0 0 .042.014.042.015-.014 0-.057.015-.057.071.029.142.057.2.086.242-.057.327-.242.527-.357.085-.042.17-.114.27-.156.043-.029.114-.029.157-.057.071-.029.1-.072.185-.072h.029c.057.243.043.485-.157.57-.071.029-.142.029-.157.129 0 .028.029.028.043.028-.043.029-.014.086-.043.143-.014 0-.014.014-.028.014-.057-.029-.086-.071-.143-.071h-.014c-.114.014-.2.285-.142.413.014 0 .014 0 .014.014h.042c.171 0 .257-.085.428-.085.057-.057.185-.072.242-.157.029-.028.029-.128.043-.185.043-.114.128-.257.157-.37.014-.072.014-.158.028-.229 0-.185.072-.313.1-.47-.057-.071-.043-.214-.128-.257-.029-.014-.057-.014-.086-.014-.128 0-.256.071-.37.1-.214.057-.428.085-.656.128.1-.356-.114-.613-.157-.912-.014-.1-.042-.2-.056-.3 0 0 .014 0 .014-.013a.162.162 0 00.114.042.12.12 0 00.1-.057c.042-.07.07-.128.142-.142v.028c0 .072.057.114.128.114h.014c.072 0 .1-.028.114-.07 0 .013 0 .013.015.028.014.014.028.014.042.014.015.014.029.028.086.028h.028c.057-.07.186-.042.257-.1.086-.07.014-.313 0-.555-.014-.242-.057-.456-.142-.57.028 0 .07-.015.056-.043a.27.27 0 00.115.028h.014c-.043-.1-.014-.242-.072-.327.03-.029.072-.057.1-.1a.488.488 0 00-.256-.057.223.223 0 00-.171-.085h-.043c.043-.058.1-.115.142-.186h-.028c-.071 0-.171.014-.242.029-.043-.043-.114-.057-.171-.057h-.043c-.1-.057-.185-.043-.27-.057a.372.372 0 00-.157-.043c-.129 0-.257.085-.428.1.085.014.157.042.185.1-.071-.015-.128-.043-.185-.043h-.014c-.171 0-.3.142-.385.17h.043c-.072.015-.129.086-.143.158.029-.015.057-.015.086-.015h.014c-.043.072-.328 0-.37.143.028-.015.056-.015.085-.015.071 0 .128.029.185.043-.142.072-.128.3-.313.3h-.029c0-.114-.057-.214-.128-.328-.057-.072-.143-.186-.214-.228-.043-.029-.071-.043-.085-.043 0 .014.014.014.014.029-.014-.015-.043-.029-.043-.072.014-.028-.014-.057.014-.1a.24.24 0 00.072.029h.014c.014 0 .028-.014.043-.043l.042-.043c.043.043.072.072.1.072.1 0 .171-.072.185-.186 0-.028-.014-.057 0-.07.015-.058.072-.143.072-.229 0-.128-.1-.185-.143-.242-.043-.071-.142-.157-.242-.157h-.014c-.057 0-.086-.028-.129-.028-.1 0-.2.042-.285.114h.029l.028-.015a.846.846 0 01.228-.085c.043 0 .057.028.072.028.014 0 .014.015.028.015h.014c.029 0 .043-.015.072-.015h.028c.185.043.157.2.228.228.071.029.071.1.071.129 0 .128-.07.17-.07.242 0 .028 0 .043-.015.071a.206.206 0 01-.143.143h-.014c-.028 0-.057-.029-.1-.043l.057-.057s0-.014.015-.014c.014-.029.057-.072.057-.114 0 0 0-.015.014-.029h.028s.015 0 .029-.014v-.029c.014-.042.028-.114 0-.128.028-.028.043-.1.028-.142-.014.042-.014.114-.042.142-.057-.014.042-.142-.029-.157a.19.19 0 01-.014.129c-.029 0 .014-.043 0-.072-.029 0-.014.043-.029.057-.042-.014-.057-.057-.1-.057 0-.014.015 0 .03-.028-.186.014-.343.242-.371.427a.413.413 0 01-.114-.057c-.029-.028-.015-.085.014-.114-.029 0-.043.029-.057.043-.014.014-.014.029-.029.029-.014 0-.014-.043-.014-.057a.262.262 0 01.128-.2c-.085.029-.128.128-.185.214-.014 0-.043-.029-.043-.043 0-.043 0-.1.015-.114a.278.278 0 01.142-.142h-.014c-.057 0-.128.057-.157.1-.028 0-.043-.043-.043-.043 0-.043.043-.086.1-.143a.34.34 0 01.157-.085c.057-.015.114-.015.185-.072-.057.015-.114.043-.17.057h-.03a.295.295 0 00-.142.086c-.071.057-.1.1-.114.142-.014.043.029.072.043.129.014.028 0 .07.014.1 0 .014.043.042.071.056h.015s.014 0 .028-.014v.043c.014.014.057 0 .057.014-.028.086-.1.157-.1.157-.07-.071-.156-.114-.213-.157-.114-.057-.171-.071-.243-.1-.057-.028-.157-.142-.328-.17h-.128v-.086a.03.03 0 00.029-.029c.014-.014.014-.07 0-.085-.014-.014-.043-.114-.114-.143.014 0 .014-.014.014-.028-.029 0-.043-.014-.057-.029h-.057l-.1-.384c-.014-.057-.014-.072-.057-.086z" stroke="#fff" stroke-width=".2" stroke-miterlimit="10"/><path d="M43.578 41.399a.11.11 0 00-.07.028c-.015.014-.015.043-.015.057 0 .043.043.086.1.086.028 0 .042-.015.057-.029a.107.107 0 00.028-.057c-.014-.057-.057-.085-.1-.085zm0 .242c-.085 0-.156-.057-.17-.157 0-.043 0-.085.042-.114.029-.028.071-.057.114-.057h.014c.086 0 .157.071.157.157 0 .043 0 .085-.043.114a.13.13 0 01-.114.057zm-2.123-4.304c-.057 0-.1.043-.085.1a.09.09 0 00.085.085c.043 0 .086-.042.086-.1a.083.083 0 00-.086-.085zm0 .257c-.085 0-.157-.072-.171-.157 0-.086.071-.157.157-.171h.014c.086 0 .157.071.171.157 0 .085-.071.156-.171.17zm6.37 5.201l-.684 2.195a3.15 3.15 0 01-.228-1.04c0-.428.527-1.668.527-1.668.057.542.385.513.385.513zm-.826.4s-.086.199-.157.298c-.086.129-.171.271-.3.343-.142-.542.129-1.483.271-1.782.2-.499.542-1.325.542-1.325.185.071.3.128.598-.071l-.541 1.439-.413 1.097zm-.2-1.298s-.385.984-.74 1.269c-.186-.3.227-1.425.498-1.938 0 0 .356-.67.413-.756.071-.014.128-.085.128-.085.043.114.086.2.2.313l-.499 1.197zm-.755.043c-.072.114-.285.3-.285.3.014-.856.484-1.654.484-1.654l.214-.356c.043 0 .1-.028.1-.028s.028.085.085.156c.057.072.143.1.243.1l-.342.584c.014.015-.342.684-.5.898zm-.214-.826s-.256.327-.427.384c0 0-.086-.64.456-1.482l.142-.228s-.014.171.128.328c.114.143.257.128.257.128s-.499.827-.556.87zm.114-1.311s-.513.897-.998 1.154c-.07-.37.015-.698.314-1.126.029-.029.257-.385.257-.385s0 .186.142.285c.057.057.114.1.285.072zm-1.368.256c-.057-.37.342-.784.599-.983.014.114.042.17.114.2 0 0 .142.07.227.042-.014.029-.014.086-.014.086s-.142.199-.185.227c0 .015-.356.371-.741.428zm.599-1.026s-.371.2-.47.242c-.1.043-.272.1-.386.057.129-.256.357-.513.656-.641.1.256.228.228.228.228s-.014.029-.029.114zm2.992.456c.228.214.214.556.271.84 0 .443-.128.87-.257 1.283-.1.37-.228.727-.327 1.112-.1.029-.228-.1-.243-.128-.156-.228-.057-.556.015-.798l.342-.984c.014-.07.17-.342-.072-.156-.185.1-.256.114-.441.057-.143-.057-.285-.3-.314-.442-.1.128-.242.2-.356.142-.114-.042-.185-.27-.185-.27s-.2.114-.37-.015c-.186-.142-.172-.427-.172-.427s-.2.114-.37-.015c-.157-.128-.129-.413-.129-.413s-.2.057-.299-.085c-.085-.143.029-.314.029-.314s-.229-.042-.257-.228c.1-.043.584-.3.884-.442-.086.285-.057.613.085.884.128.214.37.313.613.313.3.015.484-.27.784-.242a.81.81 0 01.77.328zm-7.496-7.125l2.195.755s-.214.242.2.598c0 0-1.326-.299-1.668-.555a3.14 3.14 0 01-.727-.798zm2.195 1.98c-.328-.07-1.254-.399-1.61-.826.142-.071.313-.043.456-.043.113 0 .341.057.341.057l1.14.3 1.497.427c-.342.128-.37.242-.413.442 0 0-.884-.214-1.411-.357zm-1.354-.042c.442-.114 1.482.156 1.482.156l1.283.328c.028.143.07.242.128.342 0 0-.086 0-.143.043l-.869-.114c-.584-.086-1.739-.428-1.881-.755zm2.209 1.368s-.912-.1-1.625-.599c0 0 .285-.057.414-.042.27.014 1.026.113 1.026.113l.67.072a.225.225 0 00-.058.242c.015.1.072.171.072.171s-.043.029-.072.071l-.427-.028zm.242.655c-1.026-.071-1.496-.513-1.496-.513.157-.1.57-.114.57-.114.071-.014 1.04.057 1.04.057s-.1.1-.043.285c.043.2.186.3.186.3l-.257-.015zm-.214.585c-.541-.015-.84-.143-1.097-.414.513-.242 1.54-.114 1.54-.114-.13.114-.13.186-.13.271 0 .157.143.27.143.27s-.413-.028-.456-.013zm-.57.413c.271-.27.784-.356.784-.356.043-.015.3 0 .3 0s.056.042.085.042c-.071.043-.1.2-.1.2-.014.085.014.142.1.214-.342.085-.912.17-1.169-.1zm.442.627c.029-.128.185-.214.27-.27.086-.044.457-.229.471-.229.071.043.114.043.114.043s-.085.085.057.313c-.285.157-.627.2-.912.143zm-.712-4.546c0-.029-.043-.2.042-.27.37.142.727.256 1.098.384.413.142.84.3 1.197.556.2.213.484.413.527.712.071.271.028.57-.171.784-.157.257-.499.242-.67.484-.142.2-.2.457-.1.685.143.27.4.498.67.584-.299.157-.798.399-.883.442-.129-.129-.029-.328-.029-.328s-.2 0-.27-.157c-.058-.157.1-.285.1-.285s-.272-.142-.272-.356.2-.3.2-.3-.242-.17-.242-.398c0-.214.213-.3.213-.3s-.142-.185-.114-.299c.015-.114.171-.185.328-.2-.1-.1-.214-.356-.17-.513.056-.17.127-.228.313-.313.285-.086-.015-.128-.086-.157-.328-.114-.67-.2-1.012-.313-.256-.057-.57-.186-.67-.442zm-.442 11.486l-.527 1.112-.699-.328.37-.77c.314.043.6.029.856-.014zm.527-.157l-.142.3-.314-.157c.185-.043.328-.086.456-.143zm-4.503.741l.798-1.695c.427.37.826.627 1.225.812l-.712 1.496-1.311-.613zm-.3 1.326c-.527-.242-1.111-.513-1.738-.798.228-.043.427-.129.613-.257a.51.51 0 00.142-.1l1.24.585-.257.57zm-7.153-.185c-.57.313-1.34.113-1.996-.214l2.68-1.326.456.2a2.4 2.4 0 01-1.14 1.34zm.1-1.81l-2.21 1.125c.157-.655.428-1.282.984-1.539.057-.028.114-.042.185-.07l1.04.484zm3.405-3.62c.912-.47 1.896-.029 2.651.541l-3.691 1.867c.1-.912.356-2.109 1.04-2.408zm-.855 2.936l3.862-1.91c.043.998-.156 2.138-1.126 2.608-.712.385-1.938-.214-2.736-.698zM18.44 39.817a.865.865 0 01-.271 0c-.014.27-.228.499-.527.541a.574.574 0 01-.656-.513.604.604 0 01.143-.47 1.62 1.62 0 01-.485-.97c-.1-.868.527-1.68 1.41-1.78a1.37 1.37 0 01.343 0 .567.567 0 01.499-.4.574.574 0 01.655.514.663.663 0 01-.1.413c.229.242.371.541.414.898.1.855-.527 1.653-1.425 1.767zm30.54-3.72a1.315 1.315 0 00-1.753-.57c-.37.185-.613.513-.684.884-.4.313-.485.57-.456.784l-7.568 3.862c-.028-.143-.042-.285-.085-.428 0 0-.841-2.964.94-3.876 0 0 .656-.242 1.012.256 0 0 .171.257.214.813.043.555.228.527.228.527s0-.4.085-.684c0 0 .029-.157.115-.214.085-.043.1.2.1.2s.07.74.313.912c0 0 .014-.3.413-.684 0 0 .342-.456-.242-1.34-.584-.883-2.11-1.111-2.936-.656-.798.385-2.024 1.625-1.425 4.504-1.368-.827-2.337-.542-3.035-.3-1.297.457-1.696 2.366-1.825 3.264-.47-.157-1.225-.342-2.023-.2-4.518-2.094-8.708-4.033-8.708-4.033l-.441-.199.598-1.254-.556-.257-.085-.042a1.071 1.071 0 00-.556-.727c.143-.314.029-.67-.256-.798a.264.264 0 00-.1-.029c.185-.427.028-.926-.37-1.111-.4-.186-.884.014-1.084.427a.23.23 0 00-.1-.057c-.285-.128-.627.015-.783.314-.556-.228-1.24.057-1.525.655a1.37 1.37 0 00-.114.37c-.314-.07-.656.115-.813.443-.156.327-.07.712.186.912-.086.1-.157.2-.214.327-.285.613-.085 1.297.456 1.582-.143.314-.029.656.257.784a.269.269 0 00.114.029c-.186.427-.029.912.356 1.111.399.185.883-.014 1.097-.427.029.014.057.042.1.057.285.128.627-.015.77-.314.299.128.627.1.926-.043l.014-.028.085.043.556.256.556-1.169.613.286 7.624 3.52c-.285.256-.77.84-.983 1.98-.2-.142-.328-.242-.356-.256-.086-.057-1.967-1.283-3.335.085-1.368 1.368-.499 2.323-.499 2.323 0-.442.413-1.054.926-1.482a3.6 3.6 0 01.57-.37c.357-.171.841-.1 1.24.028.485.143.87.37.87.37.07.058.128.1.185.143l-4.361 2.238s-.185.114-.1.256l.014.029c.072.156.257.085.257.085L27.859 47c-.014.285-.042.77-.113 1.055-.043.142-.1.3-.157.456-.057.128-.114.27-.2.385a1.078 1.078 0 01-.427.413 2.1 2.1 0 01-.413.17 3.768 3.768 0 01-.799.158c-.484.028-.94-.043-1.197-.228 0 0 .257 1.254 2.18.969 1.355-.2 1.81-1.34 1.967-2.052.072-.3.072-.742.072-.998 1.567.755 2.48.3 2.48.3 1.054-.4 1.624-1.226 1.909-1.896l7.71 3.563s.014 0 .014.014a.599.599 0 00.784-.285.568.568 0 00-.271-.77h-.029s-.313-.142-.855-.399l.271-.584 1.297.599 1.44-3.022-.4-.185c.015-.014.029-.014.029-.014.855-.385 1.582-1.739 1.197-2.722-.37-.998-.955-.998-.955-.998-.541.086-.798-.085-.798-.085 0 .285.556.784.556.784s.214.142.128.185c-.085.043-.228-.014-.228-.014-.3-.086-.627-.342-.627-.342s-.128.128.285.498c.428.37.542.642.542.642.185.598-.385.969-.385.969-1.796.883-3.72-1.54-3.72-1.54-.142-.156-.27-.299-.413-.441l7.667-3.79c.143.142.385.184.884.042a1.3 1.3 0 001.126-.029c.64-.299.897-1.068.57-1.71z" fill="#FABC42"/></svg>