<svg width="32" height="34" fill="none" xmlns="http://www.w3.org/2000/svg"><path d="M16.346 27.903c-6.577.185-12.064-4.988-12.25-11.564-.192-6.577 4.989-12.057 11.566-12.25 6.576-.184 12.056 4.989 12.248 11.565.186 6.577-4.995 12.064-11.564 12.25zM31.993 15.54C31.743 6.705 24.376-.25 15.54.007 6.712.263-.25 7.624.007 16.46c.256 8.835 7.617 15.79 16.453 15.533 8.835-.25 15.79-7.617 15.533-16.453z" fill="#F5F8FF"/><path d="M15.997 27.625A11.557 11.557 0 014.389 16.338c-.185-6.412 4.874-11.77 11.28-11.956.114 0 .228-.007.342-.007 6.327 0 11.43 4.96 11.607 11.287a11.518 11.518 0 01-3.163 8.308 11.56 11.56 0 01-8.116 3.641 5.662 5.662 0 01-.342.014zm0 .285c.114 0 .228 0 .349-.007 6.57-.185 11.75-5.672 11.564-12.248-.185-6.456-5.479-11.572-11.9-11.565h-.348c-6.577.192-11.75 5.672-11.565 12.248.185 6.463 5.48 11.572 11.9 11.572z" fill="#F5F8FF"/><path d="M16.004 4.667c-.107 0-.221 0-.328.007-6.249.178-11.18 5.408-11.002 11.65a11.277 11.277 0 0011.323 11.01c.107 0 .22 0 .328-.008a11.267 11.267 0 007.916-3.548 11.222 11.222 0 003.085-8.102A11.277 11.277 0 0016.004 4.667zm-.007 23.536A12.14 12.14 0 017.51 24.76a12.098 12.098 0 01-3.698-8.408 12.136 12.136 0 013.32-8.722 12.108 12.108 0 018.523-3.819c.12-.007.235-.007.356-.007 3.185 0 6.2 1.225 8.486 3.441a12.128 12.128 0 013.699 8.409 12.134 12.134 0 01-3.32 8.728 12.138 12.138 0 01-8.523 3.82c-.121-.008-.242 0-.356 0z" fill="#0066B3"/><path d="M27.297 25.082l-.506-.784-.37.463.876.32zm-1.788-.2c-.036-.014-.072-.028-.086-.036-.021-.014-.028-.028-.036-.042 0-.015.008-.036.022-.064a2.27 2.27 0 01.078-.1c.036-.043.064-.079.086-.1l.05-.05c.014-.014.028-.014.035-.014.007 0 .022.007.036.007l.413.15.485-.613-.235-.356c-.008-.015-.015-.029-.022-.036v-.043c.007-.014.014-.035.036-.057.014-.021.035-.057.064-.092a.462.462 0 01.078-.086c.022-.021.036-.028.057-.028.014 0 .036.007.05.021a.44.44 0 01.057.078l1.048 1.654.021.042c0 .014 0 .029-.007.05-.007.014-.021.043-.043.064-.021.029-.043.064-.078.107-.043.05-.071.093-.093.114l-.064.064c-.021.015-.036.015-.05.015-.014 0-.036 0-.05-.008l-1.852-.64zm1.938-1.874a.414.414 0 00.12.043c.044.007.08 0 .115-.014a.45.45 0 00.214-.22l.135-.236-.52-.293-.136.243a.455.455 0 00-.064.156.4.4 0 00-.007.129.211.211 0 00.05.107c.014.035.05.064.093.085zm-.186.392a.613.613 0 01-.306-.4.737.737 0 01.007-.277 1.4 1.4 0 01.15-.363l.27-.478a.105.105 0 01.072-.064c.028-.014.064-.007.107.021l1.574.884c.043.021.065.05.072.086a.136.136 0 01-.015.092l-.577 1.026-.021.022c-.007 0-.021.007-.036.007a.132.132 0 01-.05-.014c-.021-.008-.042-.022-.07-.036a.25.25 0 01-.065-.043.19.19 0 00-.043-.035c-.007-.015-.014-.022-.014-.029 0-.014 0-.021.007-.029l.435-.77-.45-.256-.17.3a1.274 1.274 0 01-.193.27.608.608 0 01-.206.136.5.5 0 01-.228.028.603.603 0 01-.25-.078zm.47-2.016c-.014-.008-.02-.008-.028-.022-.007-.007-.007-.021-.007-.035 0-.015 0-.043.007-.065.007-.028.015-.064.036-.107.014-.042.028-.078.035-.106.008-.029.022-.043.036-.065.007-.014.021-.02.036-.028.014-.007.028-.007.043-.007l.491.007c.071 0 .128 0 .178-.007a.34.34 0 00.128-.043.225.225 0 00.086-.078c.021-.036.043-.072.057-.122l.029-.078-.791-.264c-.015-.007-.022-.007-.022-.02a.054.054 0 01-.014-.037c0-.014 0-.035.007-.064a1.223 1.223 0 01.064-.192.112.112 0 01.036-.057c.007-.014.021-.021.028-.021h.036l.79.263.03-.078a.483.483 0 00.02-.136.331.331 0 00-.02-.12c-.022-.036-.043-.079-.079-.108a1.005 1.005 0 00-.128-.106l-.4-.293c-.014-.007-.02-.02-.028-.028-.007-.014-.007-.029-.007-.043 0-.021 0-.043.007-.071.007-.029.014-.064.029-.107a.46.46 0 01.043-.1c.007-.028.02-.043.028-.057l.029-.028h.028c.007 0 .014.007.021.007.008 0 .015.007.022.014.007.007.021.014.028.021a.19.19 0 01.043.036l.35.27c.063.05.12.094.156.136a.498.498 0 01.1.122c.021.042.042.078.05.12.014.043.014.086.02.129a.847.847 0 01.08-.086.258.258 0 01.106-.057.836.836 0 01.143-.035c.057-.007.12-.015.2-.015h.391c.036 0 .064 0 .086.008.021 0 .035.007.05.007.014.007.02.007.02.021.008.007.008.021.008.036 0 .014-.007.035-.007.064-.007.028-.014.064-.029.1a.46.46 0 01-.042.1c-.008.028-.022.05-.036.056-.007.015-.021.022-.036.029-.014 0-.021.007-.042.007l-.456-.014c-.064 0-.122 0-.164.007a.485.485 0 00-.121.035.227.227 0 00-.086.079.382.382 0 00-.057.121l-.028.078.755.236c.014.007.021.014.028.02.008.008.008.022.008.037 0 .014 0 .035-.008.064-.007.021-.014.057-.028.092-.007.036-.029.072-.036.093-.014.021-.021.043-.035.057-.008.014-.022.021-.029.028a.022.022 0 01-.028 0l-.741-.249-.029.078a.477.477 0 00-.021.129c0 .035.007.078.028.114.014.035.043.07.071.107a.672.672 0 00.129.1l.37.263c.014.007.022.021.029.029.007.007.014.02.014.042 0 .014 0 .036-.007.064-.007.029-.014.064-.029.107-.014.043-.028.072-.035.093-.007.028-.022.043-.029.057-.007.014-.021.021-.028.028h-.029a.333.333 0 00-.05-.021.699.699 0 01-.07-.05l-.307-.235a1.371 1.371 0 01-.143-.121c-.035-.043-.071-.078-.093-.114-.02-.036-.042-.071-.05-.107-.014-.036-.014-.078-.02-.121-.036.035-.065.071-.1.092a.327.327 0 01-.122.065.46.46 0 01-.15.035 1.689 1.689 0 01-.213.015l-.442.007h-.114c-.021-.007-.021-.007-.028-.007zm1.419-3.193a2.108 2.108 0 01-.278-.178.726.726 0 01-.164-.17.376.376 0 01-.071-.179 1.058 1.058 0 01.014-.3.349.349 0 01.028-.078c.008-.021.022-.042.029-.064.007-.014.021-.028.028-.035.008-.008.015-.015.029-.015.007 0 .021-.007.035-.007h.058c.02 0 .05.007.085.007.064.007.107.022.128.029.029.014.036.028.036.05a.054.054 0 01-.014.028.156.156 0 00-.029.036c-.007.014-.021.035-.028.057-.007.021-.015.043-.022.078a.1.1 0 000 .064c0 .022.007.036.022.057.007.022.028.036.05.057.02.022.05.043.092.072l1.475-.5c.036-.006.064-.013.086-.013a.07.07 0 01.05.02.142.142 0 01.014.065c0 .029-.007.071-.015.121-.007.05-.014.086-.02.121l-.022.072a.086.086 0 01-.036.035.5.5 0 01-.057.022l-.662.206-.214.064c-.072.022-.143.036-.214.057v.008c.064.028.135.064.2.1.064.035.135.07.199.106l.599.32c.014.008.028.015.035.03.007.006.014.02.014.042 0 .021.008.043 0 .071a.814.814 0 01-.014.114c-.007.05-.014.086-.021.114-.007.029-.014.05-.029.057-.014.015-.028.015-.043.015-.014-.008-.035-.015-.064-.029l-1.29-.727zm-.342-1.674c-.008 0-.022 0-.029-.007a.075.075 0 01-.021-.036c-.007-.014-.007-.036-.014-.064-.008-.029-.008-.057-.008-.1v-.1c0-.028.008-.05.008-.064.007-.014.007-.028.02-.035.008-.008.015-.008.03-.008l1.674-.05-.014-.448c-.25-.022-.463-.043-.649-.072-.185-.028-.342-.05-.477-.085A1.477 1.477 0 0129 15.34a.624.624 0 01-.2-.143.458.458 0 01-.106-.178.764.764 0 01-.036-.228c0-.014 0-.028.007-.042.007-.015.014-.022.021-.029.015-.007.029-.014.05-.014.022-.007.05-.007.079-.007h.114c.028 0 .05.007.064.007.014.007.028.007.036.021.007.007.007.022.007.029 0 .035.007.064.021.092a.284.284 0 00.078.086c.043.028.1.057.171.078.072.022.171.05.285.072.122.02.264.042.428.064.171.021.37.035.606.057.05.007.092.014.114.035a.12.12 0 01.035.086l.029 1.019c0 .035-.007.071-.029.092a.14.14 0 01-.1.036l-1.866.043zm.15-2.13c-.03.006-.05.006-.065.006-.021 0-.035.007-.05 0-.014 0-.028 0-.035-.007-.008-.007-.022-.007-.036-.021a.212.212 0 01-.057-.057c-.021-.029-.05-.064-.078-.107-.029-.043-.05-.1-.079-.157a1.322 1.322 0 01-.057-.2 1.042 1.042 0 01-.007-.391.72.72 0 01.136-.32.872.872 0 01.285-.243c.12-.064.263-.121.434-.15a1.37 1.37 0 01.478-.021c.142.021.27.064.377.128a.78.78 0 01.264.264c.071.107.121.228.15.37.007.057.014.114.014.171 0 .057 0 .107-.007.157-.008.043-.015.093-.029.128-.014.043-.028.065-.035.086-.015.014-.022.028-.029.036a.154.154 0 01-.036.02.102.102 0 01-.05.015.202.202 0 01-.07.014c-.036.008-.058.008-.086.015h-.057a.054.054 0 01-.036-.015c-.007-.007-.014-.014-.014-.021 0-.014 0-.036.014-.064a.83.83 0 00.079-.257.647.647 0 00-.008-.2.466.466 0 00-.264-.342.637.637 0 00-.241-.056c-.093-.007-.193 0-.3.021a1.1 1.1 0 00-.306.1.533.533 0 00-.193.15.404.404 0 00-.092.192.627.627 0 00.064.413c.028.05.057.093.085.128.029.036.05.065.079.086.021.021.035.043.035.05v.028c0 .008-.014.015-.02.022a.338.338 0 01-.05.021c-.036-.014-.065 0-.108.007zm-.08-4.939l-.099-.192a1.164 1.164 0 00-.114-.171.312.312 0 00-.107-.071.204.204 0 00-.114-.007.412.412 0 00-.22.12.263.263 0 00-.05.229c.007.05.035.107.07.178l.108.2.527-.286zm-1.289 1.183c-.007.007-.021.007-.028.007-.007 0-.022-.007-.036-.021-.014-.014-.021-.029-.043-.05-.014-.021-.035-.05-.05-.085a.35.35 0 01-.042-.093c-.015-.029-.015-.043-.022-.064v-.043c0-.007.007-.014.022-.021l.684-.37-.079-.136a.353.353 0 00-.085-.121.235.235 0 00-.093-.05.627.627 0 00-.12-.015c-.044 0-.093.008-.15.015l-.47.078h-.037c-.014 0-.028-.014-.035-.021-.014-.015-.029-.029-.043-.057a.953.953 0 01-.057-.1c-.021-.043-.043-.078-.05-.107a.331.331 0 00-.021-.064c0-.014 0-.029.007-.036.007-.007.007-.014.014-.014.007-.007.022-.007.036-.014.014-.007.043-.007.071-.014l.435-.057c.057-.008.107-.015.157-.015.042 0 .085.007.128.015a.375.375 0 01.107.035.273.273 0 01.092.064.881.881 0 01-.021-.192c0-.057.014-.114.036-.164.021-.05.05-.1.092-.143a.676.676 0 01.4-.192.557.557 0 01.241.036.81.81 0 01.229.15c.07.07.15.178.228.327l.242.449a.11.11 0 01.014.093c-.007.028-.036.057-.078.078l-1.675.912zm-.22-3.406l-.884.307.363.463.52-.77zm-.62 1.689c-.022.036-.043.057-.058.078a.065.065 0 01-.05.022c-.014 0-.035-.015-.056-.036a1.285 1.285 0 01-.079-.093c-.035-.042-.057-.078-.078-.1-.015-.028-.029-.042-.036-.056-.007-.015-.007-.029-.007-.043 0-.007.007-.022.014-.036l.242-.37-.477-.613-.406.142c-.014.008-.028.008-.043.008a.054.054 0 01-.035-.015c-.015-.007-.029-.021-.05-.042-.022-.022-.043-.05-.072-.086-.028-.036-.05-.071-.064-.093-.014-.021-.021-.042-.014-.064 0-.014.014-.028.036-.042.021-.015.05-.022.085-.036l1.853-.627c.021-.007.035-.007.05-.007.014 0 .028.007.043.014.014.014.035.028.056.057.022.028.05.057.086.1.043.05.071.092.093.12a.289.289 0 01.042.08.138.138 0 01.007.05c0 .013-.007.028-.02.049l-1.063 1.639zm-.856-3.064a.364.364 0 00.064-.093c.015-.035.022-.064.015-.1a.239.239 0 00-.036-.1.681.681 0 00-.1-.12l-.156-.15-.37.392.17.164a.38.38 0 00.121.085.286.286 0 00.107.022c.036 0 .064-.015.1-.029a.761.761 0 00.085-.071zm-.534.727a.311.311 0 00.071-.107c.014-.036.022-.079.014-.121a.364.364 0 00-.05-.129.68.68 0 00-.12-.142l-.179-.171-.406.435.221.206a.38.38 0 00.121.086.225.225 0 00.114.028.322.322 0 00.114-.021.218.218 0 00.1-.064zm.335.285c-.05.057-.107.092-.157.128a.538.538 0 01-.35.057c-.056-.007-.113-.029-.177-.05a1.063 1.063 0 01-.171-.1 2.344 2.344 0 01-.178-.142l-.4-.378a.102.102 0 01-.042-.085c-.007-.029.007-.064.043-.1l1.24-1.325a.122.122 0 01.092-.05c.036 0 .057.014.086.035l.384.357c.093.085.164.17.214.242.05.078.086.15.1.22a.437.437 0 01-.014.215.547.547 0 01-.129.206.725.725 0 01-.114.093c-.042.021-.078.043-.12.05-.044.007-.086.014-.136.007a.32.32 0 01-.135-.036c.035.05.064.1.078.15.021.05.028.107.021.164a.49.49 0 01-.035.17.376.376 0 01-.1.172zm-1.717-2.024c.064-.093.107-.178.142-.264a.615.615 0 00.05-.242.436.436 0 00-.057-.214.572.572 0 00-.185-.185.496.496 0 00-.477-.057.545.545 0 00-.2.143 1.419 1.419 0 00-.178.22 1.426 1.426 0 00-.143.271.63.63 0 00-.057.243c0 .078.021.15.057.213.036.064.1.129.185.186a.495.495 0 00.477.057.768.768 0 00.207-.143c.065-.071.129-.142.179-.228zm.384.228a1.349 1.349 0 01-.306.35.923.923 0 01-.35.185.872.872 0 01-.384.007 1.307 1.307 0 01-.406-.171 1.423 1.423 0 01-.32-.285.76.76 0 01-.15-.328.867.867 0 01.028-.378c.043-.135.107-.278.214-.427a1.43 1.43 0 01.3-.342.923.923 0 01.348-.186.779.779 0 01.385-.007c.136.029.264.086.406.171.136.086.235.178.314.285.078.1.128.207.15.328a.777.777 0 01-.03.378 1.46 1.46 0 01-.199.42zm-1.631-2.01l-.036.072c-.014.021-.021.036-.036.043-.007.007-.021.014-.028.021-.007 0-.021 0-.029-.007l-.627-.285-.705 1.525c0 .007-.007.014-.021.021-.008 0-.022.007-.043 0-.014 0-.036-.007-.064-.014a.516.516 0 01-.1-.043c-.036-.014-.064-.035-.093-.043-.021-.014-.043-.028-.05-.035-.014-.014-.021-.022-.021-.036-.007-.007 0-.021 0-.028l.79-1.718a.156.156 0 01.072-.078c.029-.014.064-.007.1.007l.898.413c.014.008.028.029.028.057a.442.442 0 01-.035.129zm-2.487-.099c.028-.107.05-.207.057-.292a.655.655 0 00-.021-.242.402.402 0 00-.122-.186.607.607 0 00-.235-.12.484.484 0 00-.263-.015.52.52 0 00-.207.107.636.636 0 00-.15.2 1.368 1.368 0 00-.1.256c-.028.107-.05.206-.057.3a.71.71 0 00.022.248.401.401 0 00.121.186c.057.05.135.092.235.12.1.03.185.03.264.015a.48.48 0 00.207-.107.732.732 0 00.15-.2c.035-.085.07-.177.099-.27zm.427.093a1.464 1.464 0 01-.185.427.966.966 0 01-.278.285.879.879 0 01-.363.121c-.136.015-.278 0-.435-.042a1.17 1.17 0 01-.392-.179.658.658 0 01-.235-.27.86.86 0 01-.085-.37c0-.143.021-.3.07-.478.044-.164.108-.3.186-.42a.862.862 0 01.278-.279.787.787 0 01.363-.12c.136-.015.278 0 .442.042.15.043.285.1.385.178a.75.75 0 01.235.264.76.76 0 01.086.363c0 .15-.022.307-.072.478zm-2.679.363c0 .014-.007.021-.014.029a.054.054 0 01-.036.014c-.014.007-.035.007-.064.007-.028 0-.064 0-.1-.007-.042-.007-.078-.007-.1-.014a.334.334 0 01-.064-.022c-.014-.007-.028-.014-.028-.021-.007-.007-.007-.014-.007-.029l.157-1.667-.442-.043-.15.627c-.05.178-.092.335-.142.463-.05.129-.093.228-.143.307a.705.705 0 01-.164.185.47.47 0 01-.192.086.839.839 0 01-.235.007.101.101 0 01-.043-.015.055.055 0 01-.028-.028c-.008-.014-.008-.029-.008-.05v-.078c.008-.043.008-.086.015-.114.007-.029.014-.05.014-.065.007-.014.014-.028.021-.028.008-.007.022-.007.029-.007.035.007.064 0 .1-.007a.203.203 0 00.092-.072 1.16 1.16 0 00.1-.156 1.92 1.92 0 00.107-.278c.035-.114.078-.257.114-.42.043-.164.085-.364.135-.592.015-.057.029-.093.05-.114.021-.021.05-.029.086-.021l1.019.1a.163.163 0 01.085.042c.021.022.029.057.021.1l-.185 1.881zM14.85 1.689l-.228.905.591-.043-.363-.862zm1.069 1.453c.014.036.028.064.028.093.007.021 0 .035-.007.05-.007.014-.028.021-.057.028-.028.007-.071.007-.128.014-.05.008-.093.008-.128.008-.029 0-.057 0-.072-.007a.054.054 0 01-.035-.015.124.124 0 01-.022-.035l-.17-.407-.77.05-.1.414c-.007.014-.007.028-.014.042l-.029.029a.142.142 0 01-.064.014c-.028.007-.064.007-.114.014-.05 0-.085.008-.114.008-.028 0-.05-.008-.057-.022-.014-.014-.021-.028-.014-.05 0-.021.007-.05.014-.092l.506-1.889c.007-.014.014-.035.021-.042.008-.015.022-.022.036-.029a.22.22 0 01.078-.014c.036-.007.079-.007.129-.014.064-.008.114-.008.15-.008.035 0 .063 0 .092.008a.36.36 0 01.05.021.155.155 0 01.028.05l.763 1.781zm-2.302.32v.03c-.007.007-.014.02-.028.028-.015.007-.036.021-.057.028-.029.008-.057.022-.1.029-.043.007-.071.021-.1.021-.028.007-.05.007-.064.007a.054.054 0 01-.036-.014c-.007-.007-.014-.014-.014-.028l-.207-.813-.755.186.207.819v.029c-.007.007-.014.02-.029.028-.014.007-.035.021-.057.029-.028.007-.057.02-.1.028a1.148 1.148 0 00-.1.021c-.028.008-.05.008-.063.008a.054.054 0 01-.036-.015.097.097 0 01-.021-.028l-.478-1.903v-.028c.007-.007.014-.022.029-.029.014-.007.035-.021.064-.028.028-.007.057-.022.1-.029.042-.007.07-.014.1-.021.028-.007.05-.007.063 0 .015 0 .029.007.036.014.007.007.014.014.014.029l.186.74.755-.192-.185-.74v-.03c.007-.006.014-.02.028-.028.014-.007.036-.021.057-.028.029-.007.057-.022.1-.029.043-.014.071-.014.1-.021.028 0 .05-.007.064 0 .014 0 .028.007.035.014l.022.022.47 1.895zm-5.159.193l-.185.114a.935.935 0 00-.164.129.425.425 0 00-.064.106c-.007.036-.014.079 0 .114a.327.327 0 00.05.114c.021.036.05.072.085.093a.372.372 0 00.107.05.27.27 0 00.129-.007.783.783 0 00.178-.086l.192-.12-.328-.507zM9.72 4.867c.007.007.007.021.007.028 0 .007-.007.021-.022.036-.007.014-.028.028-.05.042-.021.022-.05.036-.085.057-.036.022-.064.036-.086.05-.028.015-.042.022-.064.022a.045.045 0 01-.043 0c-.007-.007-.014-.007-.02-.022l-.414-.655-.136.085a.416.416 0 00-.114.093.25.25 0 00-.042.1c-.007.035-.007.078-.007.12.007.044.014.093.028.15l.107.464v.042c0 .015-.007.029-.021.043l-.05.05c-.022.014-.057.036-.093.064-.043.029-.078.043-.1.057-.028.014-.042.022-.064.022-.014.007-.028.007-.035 0-.008 0-.015-.008-.022-.015a.054.054 0 01-.014-.035.47.47 0 01-.021-.072l-.086-.427c-.014-.057-.014-.107-.021-.157-.007-.043 0-.085 0-.128a.534.534 0 01.028-.114.251.251 0 01.057-.093c-.064.022-.128.029-.185.036a.607.607 0 01-.164-.022.402.402 0 01-.142-.078.7.7 0 01-.22-.385.464.464 0 01.02-.242.799.799 0 01.135-.235 1.44 1.44 0 01.314-.25l.435-.27a.108.108 0 01.092-.022.17.17 0 01.086.064L9.72 4.867zm-3.385.449l.363.855.442-.392-.805-.463zm1.724.505c.036.022.064.036.079.05.021.015.028.029.028.043 0 .014-.014.036-.035.057-.022.021-.05.05-.093.086-.043.035-.071.064-.1.085-.028.021-.043.029-.057.043-.014.007-.028.007-.035.007-.015 0-.022-.007-.036-.014l-.385-.221-.584.52.17.392c.008.014.008.028.015.043 0 .014 0 .028-.007.042a.227.227 0 01-.043.05c-.021.022-.05.043-.078.079-.036.028-.064.057-.093.07a.114.114 0 01-.057.022c-.014 0-.028-.014-.043-.035-.014-.022-.028-.043-.042-.086L5.92 5.251a.132.132 0 01-.015-.05c0-.014.008-.028.015-.042.014-.015.028-.036.05-.064.02-.022.057-.05.1-.086.05-.043.085-.078.113-.1.029-.021.057-.042.072-.05.02-.007.035-.014.05-.014.014 0 .028.014.05.022l1.702.954zM6.427 7.475c.007.007.014.014.014.028s0 .021-.007.043c-.007.014-.015.035-.029.057-.014.021-.035.05-.057.085-.028.029-.05.057-.071.079a.227.227 0 01-.05.042.12.12 0 01-.036.015c-.014 0-.021 0-.028-.007l-.656-.528-.484.606.655.527c.008.007.015.014.015.022 0 .007 0 .021-.007.042-.008.015-.015.036-.029.057a1.31 1.31 0 01-.064.086c-.029.035-.05.057-.064.078a.228.228 0 01-.05.043.122.122 0 01-.036.014c-.014 0-.021 0-.028-.007L3.883 7.532c-.007-.008-.014-.015-.022-.029 0-.007 0-.021.007-.043.008-.014.015-.035.029-.057.014-.021.036-.05.057-.085.029-.036.05-.057.064-.079.022-.021.036-.035.05-.042.014-.007.029-.015.036-.015.014 0 .021 0 .028.008l.599.477.484-.606-.598-.477c-.007-.007-.015-.014-.015-.029 0-.014 0-.021.008-.042.007-.015.014-.036.028-.057.014-.022.036-.05.064-.086.029-.028.05-.057.071-.078a.228.228 0 01.05-.043c.015-.007.029-.014.036-.014.014 0 .021 0 .028.007l1.54 1.233zM4.424 9.213a.396.396 0 00-.135-.05.262.262 0 00-.242.079.892.892 0 00-.129.178l-.12.214.576.32.122-.22a.656.656 0 00.085-.214.316.316 0 00-.007-.143.242.242 0 00-.064-.1l-.086-.064zm.178-.399c.086.05.157.107.214.171.057.064.1.143.121.228a.672.672 0 010 .292c-.021.107-.07.25-.164.406l-.249.457c-.007.014-.021.028-.028.042-.015.014-.022.022-.043.022-.014.007-.029.007-.05.007s-.036-.007-.057-.022l-1.653-.926-.022-.021v-.043c.008-.014.015-.043.022-.064.014-.022.028-.057.043-.093.02-.035.035-.064.057-.085.014-.022.028-.043.042-.05.015-.014.022-.022.036-.022.007 0 .021 0 .028.008l.62.342.143-.257a1.34 1.34 0 01.22-.306.864.864 0 01.222-.15.59.59 0 01.249-.036c.071.029.164.05.25.1zm-.456 2.209c.008 0 .022.007.022.021.007.008.007.022.007.036 0 .014-.007.036-.007.064-.007.029-.022.057-.036.1-.014.043-.028.071-.035.092-.015.022-.022.043-.036.057-.014.015-.021.022-.029.022-.014.007-.021.007-.028 0l-1.582-.563-.15.42c.221.114.414.214.578.307.163.092.299.178.413.25.107.078.2.149.263.22a.76.76 0 01.136.2.527.527 0 01.035.206.938.938 0 01-.05.228.155.155 0 01-.02.036c-.008.007-.022.014-.036.021h-.05a.829.829 0 01-.185-.064c-.029-.007-.043-.021-.058-.036-.014-.014-.02-.02-.02-.028v-.036c.013-.028.013-.064.013-.1 0-.035-.021-.07-.042-.106a.732.732 0 00-.129-.136 2.249 2.249 0 00-.242-.17 5.103 5.103 0 00-.378-.214c-.15-.079-.327-.171-.541-.278a.303.303 0 01-.1-.079c-.014-.028-.014-.057 0-.092l.342-.962c.014-.036.036-.064.064-.072.029-.014.064-.014.107.008l1.774.648zm-2.444 2.622l.82.442.1-.577-.92.135zm1.668-.677c.042-.007.071-.007.092-.007.022 0 .036.007.05.021a.09.09 0 01.007.065c0 .028-.007.07-.014.12-.007.058-.021.1-.028.129l-.022.071a.056.056 0 01-.028.029c-.007.007-.022.007-.036.007l-.435.064-.135.77.378.2c.014.006.021.013.035.02a.189.189 0 01.022.036c.007.014.007.043 0 .071 0 .029-.007.065-.015.107-.007.05-.014.086-.02.114-.008.029-.022.043-.03.057-.014.007-.028.007-.056 0-.022-.007-.05-.021-.086-.035l-1.71-.948c-.014-.007-.029-.021-.043-.028a.077.077 0 01-.014-.043v-.079c.007-.035.014-.078.021-.128.015-.064.022-.114.029-.15a.24.24 0 01.028-.085.073.073 0 01.036-.043c.014-.007.028-.007.05-.014l1.924-.32zm-1.596 2.423a.332.332 0 00-.179.036.23.23 0 00-.106.092.363.363 0 00-.05.121c-.007.043-.015.086-.015.129l-.007.178.706.021.007-.192a.624.624 0 00-.021-.171.31.31 0 00-.072-.114.311.311 0 00-.114-.072.332.332 0 00-.15-.028zm-.015-.449c.114 0 .221.028.307.064a.515.515 0 01.22.164.71.71 0 01.136.264c.029.1.043.22.036.356l-.007.171.662.021c.014 0 .022.008.029.015.007.007.014.021.021.035.007.015.007.036.014.064v.1c0 .043-.007.078-.007.107 0 .028-.007.05-.014.064a.154.154 0 01-.021.036c-.008.007-.022.007-.029.007l-1.874-.05a.15.15 0 01-.114-.043.175.175 0 01-.036-.107l.015-.491c0-.05.007-.1.007-.143.007-.043.014-.1.028-.157a.661.661 0 01.2-.349.514.514 0 01.185-.1.906.906 0 01.242-.028zm1.262 2.024c.028 0 .057-.008.078-.008.021 0 .036 0 .05.008.014.007.021.007.028.014.007.007.015.014.015.028l.12 1.04a.197.197 0 01-.02.093c-.022.029-.05.043-.1.05l-1.803.207c-.05.007-.079 0-.107-.029a.163.163 0 01-.043-.085l-.12-1.033c0-.007 0-.015.006-.029.007-.007.014-.014.029-.021.014-.007.028-.014.05-.014.021-.008.05-.008.078-.015.028-.007.057-.007.078-.007.022 0 .036 0 .05.007.014 0 .022.007.029.015.007.007.007.014.014.028l.085.734.506-.057-.07-.627c0-.007 0-.014.006-.029.007-.007.014-.014.029-.02a.337.337 0 01.05-.022c.021-.007.042-.007.078-.015.029-.007.057-.007.078-.007.022 0 .036 0 .05.007.015 0 .022.008.029.015.007.007.014.014.014.028l.071.62.585-.064-.086-.741c0-.007 0-.021.007-.029l.022-.021c.014-.007.028-.014.05-.021.014.007.035.007.064 0zm-1.126 2.793l.135.463a7.94 7.94 0 01.428-.064c.12-.014.235-.029.327-.036.093-.007.179-.007.25-.007.071 0 .135 0 .185.007.05.007.1.015.143.029.042.014.078.021.106.035l-.228-.805-1.346.378zm1.96-1.261c.014-.008.02-.008.028 0 .007.007.021.014.028.021a.406.406 0 00.029.05c.007.021.021.05.028.085.015.036.015.064.022.086 0 .021.007.043.007.057 0 .014-.007.028-.007.035-.007.008-.015.015-.022.015l-.47.135.378 1.333.47-.136a.022.022 0 01.028 0l.029.029c.007.014.021.028.028.05.008.021.022.05.029.085.007.036.014.064.021.093a.18.18 0 01.007.057c0 .014 0 .028-.007.035-.007.008-.014.015-.028.015l-.72.206c-.028.015-.05.015-.064 0-.014-.007-.029-.028-.036-.05l-.028-.092a.852.852 0 00-.128-.036.8.8 0 00-.15-.028c-.057-.008-.121-.008-.2-.008-.078 0-.17.008-.277.015a4.74 4.74 0 00-.378.043c-.143.02-.314.042-.513.078-.05.007-.086.007-.107-.007-.029-.015-.043-.036-.057-.072l-.292-1.018a.102.102 0 01.007-.093c.014-.029.043-.043.085-.057l1.54-.442-.05-.17c-.007-.03-.007-.05.007-.065.014-.014.028-.029.057-.036l.705-.213zm.106 2.522a.483.483 0 01.071-.028c.022-.008.036-.008.05-.008.015 0 .029 0 .036.008.007.007.014.014.014.02l.45.949c.013.035.02.064.006.092-.007.029-.035.057-.078.079l-1.64.776a.15.15 0 01-.106.015.128.128 0 01-.064-.072l-.442-.94c-.007-.007-.007-.015-.007-.029 0-.007.007-.021.021-.028a.275.275 0 01.043-.036c.022-.014.043-.021.071-.036a.483.483 0 01.072-.028c.021-.007.035-.007.05-.007.014 0 .028 0 .035.007l.022.021.32.67.456-.214-.263-.57c-.008-.007-.008-.014-.008-.028 0-.007.008-.021.015-.029.007-.007.021-.021.042-.035.022-.014.043-.022.065-.036a.483.483 0 01.07-.028c.022-.008.036-.008.05-.015.015 0 .022 0 .03.008l.02.02.271.57.528-.248-.321-.677c-.007-.008-.007-.015 0-.029 0-.007.007-.021.014-.028a.27.27 0 01.043-.036.155.155 0 01.064-.05zm.335 3.449a.55.55 0 00.164.135c.057.029.107.05.164.05a.3.3 0 00.157-.021c.05-.015.1-.043.15-.079a.857.857 0 00.142-.128.401.401 0 00.078-.142.447.447 0 00.007-.171.718.718 0 00-.078-.2l-.784.556zm-.093-.976a.467.467 0 00-.135.128.401.401 0 00-.078.142.447.447 0 00-.007.171.643.643 0 00.078.2l.784-.549a.55.55 0 00-.164-.135.293.293 0 00-.164-.05.327.327 0 00-.164.021.716.716 0 00-.15.072zm-.256-.335a.835.835 0 01.292-.136c.1-.028.2-.028.292-.007.1.022.2.064.292.128.1.065.193.15.278.264l.2-.135c.007-.007.021-.007.028-.007a.12.12 0 01.036.014c.014.007.028.028.043.043.021.021.035.05.064.078.021.036.042.064.057.085.014.022.021.043.028.058.007.014.007.028.007.035 0 .007-.007.021-.021.029l-.2.135c.079.121.129.235.164.342.029.107.043.207.029.306a.636.636 0 01-.107.271 1.11 1.11 0 01-.242.242.784.784 0 01-.285.129.673.673 0 01-.292.007.874.874 0 01-.293-.128c-.1-.065-.192-.15-.277-.257l-.186.128c-.007.007-.021.007-.028.007-.007 0-.022-.007-.036-.02-.014-.008-.028-.03-.043-.05-.021-.022-.035-.05-.064-.08-.021-.035-.043-.056-.057-.085-.014-.021-.021-.042-.028-.057-.007-.014-.007-.028-.007-.035 0-.008.007-.022.014-.022l.185-.128a1.479 1.479 0 01-.164-.342.771.771 0 01-.028-.306.625.625 0 01.1-.271c.07-.086.15-.164.249-.235zm18.633 2.9l-.063-.079c-.065-.078-.328-.342-.955-.342-.221 0-.47.036-.741.1a10.59 10.59 0 00-.898.278.9.9 0 00-.143-.221c-.256-.292-.72-.435-1.36-.435-.884.007-2.11.285-3.357.763-.862.327-1.646.498-2.323.506-1.054.007-1.688-.371-2.244-.699l-.292-.17-.364-.215-.07.42-.735 4.447.27.121.13-.77.62-3.747.006.007v-.007l.292.17c.42.25.92.542 1.618.67.228.043.484.065.762.065.72-.008 1.532-.179 2.423-.528 1.218-.463 2.401-.74 3.256-.74.207 0 .392.014.549.042.27.05.47.15.599.292.1.107.15.242.156.392.442-.15.855-.292 1.162-.363.25-.064.47-.093.67-.093.02 0 .042 0 .064.007h.07c.022 0 .037 0 .058.007l.128.022h.007c.114.028.207.057.271.092.085.05.264-.114.264-.114l-.77 5.038.257-.107c.014-.121.035-.25.057-.385.085-.52.15-.897.15-.897l.014-.1.02-.121-.006-.015c.057-.356.114-.705.164-1.04.156-.99.292-1.796.313-1.917v-.014l.014-.1.022-.128-.064-.092z" fill="#0066B3"/><path d="M15.997 27.625A11.557 11.557 0 014.389 16.338c-.185-6.412 4.874-11.77 11.28-11.956.114 0 .228-.007.342-.007 6.327 0 11.43 4.96 11.607 11.287a11.518 11.518 0 01-3.163 8.308 11.56 11.56 0 01-8.116 3.641 5.662 5.662 0 01-.342.014zm0 .285c.114 0 .228 0 .349-.007 6.57-.185 11.75-5.672 11.564-12.248-.185-6.456-5.479-11.572-11.9-11.565h-.348c-6.577.192-11.75 5.672-11.565 12.248.185 6.463 5.48 11.572 11.9 11.572z" fill="#F5F8FF"/><path d="M18.419 25.659c.556 0 .94.114 1.14.334a.6.6 0 01.157.4c.449-.15.862-.293 1.168-.364.25-.064.47-.093.67-.093.513 0 .634.107.67.143l.185-.136-1.033 6.585-.278-.157a.975.975 0 00-.499-.114c-.563 0-1.26.292-1.945.57-.52.214-1.012.413-1.41.477-.15.021-.279.036-.393.036-.612.007-.712-.328-.72-.492l.036-.342c-.164.064-.327.128-.484.185-.328.129-.634.243-.898.335-.463.164-1.04.25-1.667.257-1.454.007-3.007-.428-3.955-1.112l-.107-.078 1.005-6.078.292.17c.563.329 1.254.749 2.394.742.72-.007 1.532-.178 2.423-.527 1.218-.464 2.401-.741 3.249-.741z" fill="#F5F8FF"/><path d="M16.695 30.326l-.335 2.387c-.086.434.406.442.855.37 1.09-.17 2.993-1.467 3.997-.912.15-1.197.407-2.715.407-2.715s-.25-.349-1.19-.12c-.941.234-3.036 1.132-3.734.99z" fill="#ED1C24"/><path d="M21.511 30.148c.107-.663.214-1.375.32-2.003-.142-.092-.52-.249-1.239-.078-.912.221-2.907 1.076-3.67.99l-.277 1.782c.085.292.413.363.869.32 1.09-.092 2.992-1.539 3.997-1.011z" fill="#0066B3"/><path d="M16.338 32.876c.064-.456.692-.47 1.105-.448.42.02 1.183.007 1.24-.328.078-.449.107-.99.107-.99l-2.18.028-.272 1.738z" fill="#BE1E2D"/><path d="M9.292 31.993l.505-3.021c.877.52 2.26 1.268 5.08.178 2.26-.87 4.362-1.019 4.255-.128.014.014-.456 3.092-.456 3.092.164-1.061-2.537.207-3.955.699-1.539.541-4.076.156-5.43-.82z" fill="#ED1C24"/><path d="M14.97 28.523c-2.729 1.047-4.154.114-5.045-.42l-.327 1.96c1.36.947 3.37 1.282 5.38.512 1.275-.491 3.733-1.34 4.004-.577l.278-1.902c-.335-.578-2.288-.335-4.29.427z" fill="#0066B3"/><path d="M21.326 17.906a5.791 5.791 0 00-.107-.25c.05.03.1.05.15.072.035.064.064.121.093.17-.043.008-.093.015-.129.03-.007-.015-.007-.022-.007-.022zm-1.076.007v-.057c-.043-.328-.107-.606-.121-.812.078.15.207.627.292.926a1.609 1.609 0 00-.17-.057zm-.463 2.743c0-.007 0-.007.007-.007h.007a.054.054 0 01-.014.029v-.022zm-.014.3c0-.015-.007-.036-.007-.05 0 .021.007.028.007.05zm1.503 1.503l-.263.563-.285-.135.192-.407c.135.008.25 0 .356-.02zm.264-.078l-.071.142-.157-.071a.952.952 0 00.228-.071zm-8.5 1.39c.013-.05.042-.1.085-.136 0 .021-.007.035-.007.057 0 .014 0 .021.007.035l-.086.043zm-.514-2.815c0-.007 0-.007 0 0zm-.313-.007c.007-.015.014-.029.007-.043.007.014 0 .035-.007.043.007.007.007.007 0 0zm-1.604-.941c.008 0 .015.007.022.007h-.007c-.008-.007-.015-.007-.015-.007zm.456-1.133l-.135-.064-.135-.064-.05-.022a.535.535 0 00-.278-.363.316.316 0 00-.036-.328c.014-.014.036-.035.05-.064.143-.228.57-1.054.727-1.282-.057.17-.506 1.118-.534 1.21-.107.314.163.371.27.578.171-.107.463-.021.577-.328.079-.206.257-.919.35-1.111-.015.206-.079.484-.122.812-.042.306.257.306.42.477.143-.128.414-.092.457-.377.043-.243.05-.855.05-.855a.53.53 0 01.107.085c.107-.114.32-.114.392-.263.028.014.042.035.07.05.236.391.25 1.132-.07 1.403a.72.72 0 00.285-.05c-.008.022-.022.036-.029.05a.015.015 0 01-.014.014c-.007.015-.021.036-.029.05v.007a.571.571 0 01-.092.093c-.171.128-.406.15-.663.05.014.071.021.114.057.164-.399.057-.57.214-.72.47a.708.708 0 00-.085.335l-.021-.021c0-.008-.008-.008-.008-.008h-.007c-.007 0-.007-.007-.014-.007-.007-.028-.036.008-.036-.035-.007-.022 0-.036-.028-.043h-.029l-.007-.007h-.071c-.007 0-.007.007-.014.007l-.014.021s-.008 0-.008.008l-.078.05c-.007 0-.029.006-.043.006-.057.015-.135.022-.142.107 0 .008 0 .015.007.022 0 .007.007.007 0 .007a.135.135 0 00-.014.057v.014s-.022-.007-.029-.014c0 0-.021-.007-.028-.014 0 0-.015-.008-.022-.015 0 0-.014-.007-.021-.007l-.043-.021s-.021-.007-.036-.014c0 0-.035-.015-.042-.022l-.015-.007-.128-.043.014.008.015.007a.33.33 0 00.035.014c.007 0 .036.014.036.014l.043.021c.007 0 .021.015.021.015.007 0 .021.014.021.014a.116.116 0 00.029.014.1.1 0 01.028.015.116.116 0 00.029.014.1.1 0 00.028.014l.029.014c.007 0 .014.007.021.007a21.474 21.474 0 00-.356-.163c-.007 0-.014.007-.021.014-.029-.014-.064-.036-.086-.036l-.114-.036c-.007 0-.007 0-.014-.007l.313-.641zm11.145-1.51a.12.12 0 000 .07c-.015-.014-.022-.035-.036-.056a.209.209 0 01.05-.114c.007.007.014.021.028.028-.028.022-.035.043-.042.071zm-1.119.02c.036.015.071.03.114.044.021.042.05.085.071.128a.52.52 0 00-.1.007 4.238 4.238 0 01-.085-.178zm-2.28 1.212a.528.528 0 01-.271-.27.7.7 0 00.278.05c-.32-.271-.306-1.013-.071-1.404.028-.015.05-.036.07-.05.08.15.286.15.393.263.043-.042.064-.05.107-.085 0 0 .007.613.05.855 0 .014.007.021.007.035a1.271 1.271 0 00-.563.606zm1.147 4.454l-.556-.257.385-.82c.178.15.356.257.52.335l-.349.742zm-7.724-2.224v.043c0-.007-.007-.007-.014-.014.007-.007.007-.014.014-.029zm9.67-3.826l.128.043a.086.086 0 00.035.035l-.135-.035c-.007-.015-.022-.029-.029-.043zm-.998-.014c.021.014.05.028.071.043.029.05.057.1.085.156-.02 0-.05 0-.07-.007-.022-.071-.058-.135-.086-.192zm-1.525 4.04c0 .036.007.078.007.121 0-.043 0-.085-.007-.121zm-.014-.164c0 .021.007.036.007.057 0-.021-.007-.043-.007-.057zm-1.547 2.558l.271.128c-.028.05-.085.129-.22.107-.043-.007-.08-.007-.115-.007-.007-.071-.014-.142-.028-.214.028-.007.064-.007.092-.014zm-2.515-.534l.235-.121c-.042.2-.078.399-.107.62a.615.615 0 01-.228 0c.015-.171.05-.343.1-.5zm-1.375.684l.135-.064c0 .042-.007.092-.007.142a.168.168 0 01-.128-.078zm1.575-1.233l.12.057c-.006.021-.006.043-.014.064l-.192.1c.029-.079.05-.15.086-.221zm2.48-2.38a1.577 1.577 0 00-.792.114.981.981 0 00-.299.178c.107-.213.3-.399.463-.442.278-.064.499.008.627.15zm-.656 1.618a2.571 2.571 0 01-.4-.243v-.014h.022c.021.007.043.007.064.007h.029-.007a.608.608 0 01.399.193l-.107.057zm-1.931.014c-.014 0-.029.007-.036.007.043-.043.086-.093.121-.143a2.25 2.25 0 00-.085.136zm.392-.007h-.015c.015-.05.029-.093.036-.136l-.021.136zm1.175.477l.15-.071c.164.121.35.264.463.413a3.192 3.192 0 01-.563-.278c-.021-.021-.035-.043-.05-.064zm-.107-.263c.008.007.015.007.015.014l-.022.007c.007-.007.007-.014.007-.021zm-.67-.35l.065.243c-.007-.008-.022-.008-.029-.015a3.002 3.002 0 00-.035-.228zm1.312-.883c.007.206.192.349.278.385a.588.588 0 00.591-.093.282.282 0 00.057.164l-.94.484c0-.292-.221-.427-.42-.555.07-.15.17-.271.298-.328.043-.029.093-.043.136-.057zm.021-.007a.906.906 0 01.477-.008c-.128.114-.356.058-.477.008zm1.097.277c.022.015.043.03.057.043l.029-.014-.143.071c.015-.028.029-.057.057-.1zm-.12 1.44c-.058-.043-.129-.086-.193-.143a3.75 3.75 0 00-.656-.413l1.197-.598c.015.413-.05.869-.349 1.154zm-3.613-.884s-.015-.007-.022-.007c0 0-.014-.007-.021-.007 0 0-.014-.007-.021-.014 0 0-.015-.007-.022-.007a.41.41 0 01.1-.029l-.007.007c.028-.007.05-.007.078-.007a.63.63 0 00.121-.014c-.05.036-.1.071-.156.107 0 0-.015-.007-.022-.007 0 0-.014-.007-.021-.014.007 0 0-.008-.007-.008zm-.463-.213s-.015-.008-.022-.008c0 0-.014-.007-.021-.007 0 0-.014-.007-.022-.007 0 0-.014-.007-.021-.007 0 0-.014-.007-.021-.007 0 0-.015-.007-.022-.007 0 0-.014-.007-.021-.007 0 0-.014-.007-.021-.007 0 0-.015-.008-.022-.008 0 0-.014-.007-.021-.007 0 0-.014-.007-.022-.007 0 0-.014-.007-.021-.007 0 0-.014-.007-.021-.007 0 0-.015-.007-.022-.007 0 0-.014-.007-.021-.007 0 0-.014-.007-.022-.007 0 0-.014-.008-.02-.008 0 0-.015-.007-.022-.007 0 0-.014-.007-.022-.007 0 0-.014-.007-.021-.007 0 0-.014-.007-.021-.007a.65.65 0 00.22-.036c.086-.035.278-.185.278-.399-.164.072-.548.178-.598-.22-.043-.35.264-.635.727-.514h.007c.014.008.028.008.043.015.327.135.74.783.327 1.061-.142.1-.335.193-.434.364 0 0-.015-.007-.022-.007 0 0-.014-.008-.021-.008 0 0-.014-.007-.021-.007 0 0-.015-.007-.022-.007 0 0-.014-.007-.021-.007 0 0-.014-.007-.022-.007 0 0-.014-.007-.021-.007.05-.064.036-.071.028-.071zm-.535 2.166a.1.1 0 01.014-.043c.008.007.022.014.029.021l-.043.022zm-2.252-3.499c0 .007 0 .014.008.014 0 .008.007.022.007.029h-.007s-.015-.007-.022-.014l-.007-.008v-.02h.021zm3.777 4.332c-.086-.05-.15-.15-.185-.285.064.008.12.008.178.008v.07c-.007.065 0 .136.007.207zm1.126-1.018c.057-.093.107-.186.142-.271l.022.007c.064.228.107.456.107.72a.812.812 0 01-.107.441.293.293 0 01-.114.114c.007-.071.014-.135.014-.213 0-.285-.029-.55-.064-.799zm3.812-3.3v-.014c.007.007.014 0 .021 0v.021c.022-.007-.014.093-.014.15l-.292.15c-.007-.029-.007-.057-.007-.093h.014a.114.114 0 00.043-.021s.007 0 .007-.007c.064-.015.128-.022.164-.093l.014-.029c.036 0 .043-.035.05-.064zm1.04-3.562c.043.035.186.2.35.399a.49.49 0 01-.093-.036c-.136-.185-.242-.328-.257-.363zm-.605.399c.014.021.035.05.05.078h-.022c-.007-.036-.021-.057-.028-.078zm-10.881.584c-.043-.007-.078-.014-.114-.014.292-.35.741-.898.827-.97-.036.079-.435.585-.713.984zM9.22 19.9c-.05.007-.093.007-.143.007a.303.303 0 01-.235.271s-.007 0-.007-.007c-.014-.007-.021-.014-.035-.021a.086.086 0 01-.036-.036c-.014-.014-.021-.029-.036-.043a.533.533 0 01-.035-.114v-.064a.314.314 0 01.07-.164.374.374 0 01-.085-.1.613.613 0 01-.07-.114.667.667 0 01-.08-.263c-.006-.057-.006-.107-.006-.164.007-.05.014-.107.028-.15a.797.797 0 01.84-.57.294.294 0 01.243-.2h.071a.33.33 0 01.093.179.295.295 0 01-.057.206.802.802 0 01.214.456.832.832 0 01-.734.891zm6.427-11.059c.107.008.228.008.35.008.12 0 .241 0 .348-.008.264.264.856.599 1.44.72-.335 0-.927-.028-.998-.114.014.214.47.456.763.52a1.2 1.2 0 01-.663-.092c.107.15.22.27.42.335-.206.249-.627.413-1.054.37.1.128.285.207.463.185-.342.535-.656 1.126-.72 1.938-.071-.812-.385-1.403-.726-1.938a.533.533 0 00.463-.185c-.42.043-.841-.121-1.048-.37.2-.065.314-.186.42-.335-.192.085-.42.114-.662.092.3-.064.755-.306.762-.52-.07.086-.662.114-.997.114.584-.121 1.175-.456 1.44-.72zM10.81 19.566l-.043-.021c.007.007.014.007.021.014.008 0 .015.007.022.007zm8.964 1.19c-.007.007-.014.007-.022.014 0-.007.008-.021.008-.028 0-.014.007-.029.007-.043.007.014 0 .036.007.057zm-.014.043c-.008.021 0 .043.02.071-.006 0-.013.007-.013.014-.007-.028-.007-.057-.007-.085zm5.208-7.232c-.228-.143-.598-.179-.962-.157.577-.193.97-.627.998-1.012-.314-.093-.627-.043-.905.014.292-.214.748-.591.698-1.161-.27-.064-.776.12-.99.213.684-.377.926-1.26.563-1.767-.207.122-1.169 1.105-1.326 1.212.492-.563.727-.97.863-1.354.15-.42.163-1.14-.342-1.39-.243.556-1.098 1.989-1.582 2.573-.043-.043-.086-.1-.15-.114-.121.363-.463.848-.762 1.069-.015-.029-.043-.114-.1-.193-.32.485-1.162 1.147-1.44 1.546-.206.307-.213.585.079.87.121.114.349.327.15.612-.321.464-1.027.442-1.233.05.449-.05.584-.605.306-.926a.499.499 0 01-.641.207.99.99 0 01-.356-.235c.363.12.677-.093.634-.47-.292.249-.592.006-.649-.058-.192-.213-.235-.456-.163-.826.064-.32.398-.834.62-1.005.028.036.078.1.185.078.07-.014.178-.078.25-.1a.734.734 0 01.576.072c.257.157.228.32.228.456.392-.22.25-.577-.25-.72.35 0 .628.314.7.357.184.128.462.1.62.028.306-.143.377-.499.291-.577a.344.344 0 01-.306.264c-.264.028-.52-.079-.72-.164a1.564 1.564 0 00-.634-.107c.342-.193.884-.171 1.076.12a.543.543 0 00.22-.37c.093-.505-.299-.77-.733-.77.007-.12-.079-.184-.193-.149 0-.05-.014-.085-.05-.107h.03c.434-.035.847-.17 1.068-.399.392-.406-.228-.933-.007-1.346.206.1.363.213.663.263.028.057.05.185.064.242.092.464-.364.542-.25 1.034.05.22.221.292.278.555.007 0 .029.193-.142.35.377.007.57-.307.448-.599-.05-.114-.178-.235-.17-.37.192.263.356.242.648.15.135-.036.15.149.071.291a.49.49 0 00.25-.399c0-.206-.157-.299-.314-.263-.093.021-.27.135-.285-.036-.021-.292.435-.278.335-.748-.05-.25-.314-.364-.72-.428a1.045 1.045 0 01-.2-.22c-.241-.378-.47-.478-.605-.4-.164.093-.25.164-.392.236-.107.05-.22.078-.292.163-.178.228-.014.57.085.777.057.121.207.413.15.613-.078.25-.499.413-.755.463-.007 0-.029.007-.043.007v-.1c.078-.135.143-.292.192-.427.164-.449-.085-.641-.47-.72a.21.21 0 00-.164-.021h-.007l-.007.064-.05-.007.007-.093h-.014a.2.2 0 00.057-.142.168.168 0 00-.043-.121h.057l-.021-.022c-.014-.021-.036-.043-.057-.071-.014-.014-.021-.029-.029-.043.015.007.029.022.043.029.029.021.05.042.071.057l.022.021v-.42l-.022.021a.518.518 0 00-.07.064.15.15 0 01-.044.029c.008-.015.015-.029.029-.043a.81.81 0 01.057-.071l.021-.022h-.427l.021.022a.832.832 0 01.086.114c-.015-.007-.029-.022-.043-.029a.303.303 0 01-.071-.064l-.022-.021v.42l.022-.021c.014-.015.042-.036.07-.057a.15.15 0 01.044-.029.15.15 0 01-.029.043c-.021.028-.043.05-.057.071l-.021.022h.057a.193.193 0 00-.043.12c0 .058.021.1.057.143h-.007l.007.093-.05.007-.007-.064h-.007a.167.167 0 00-.164.021c-.385.079-.634.271-.463.72.05.142.114.292.192.427v.065c-.377-.122-1.069-.535-1.247-.791-.021-.029-.042-.05-.05-.065v-.27c.143-.221.257-.5.35-.741.242-.649-.121-.927-.684-1.048-.058-.043-.129-.057-.221-.028l-.015.107-.114-.015.008-.128c-.022 0-.043.007-.065.007a.265.265 0 00.143-.235.287.287 0 00-.1-.207h.093c-.043-.05-.15-.156-.164-.22.064.014.17.114.22.156v-.527c-.05.043-.156.143-.22.157.014-.064.114-.178.157-.221h-.535c.043.05.143.157.157.22-.064-.013-.171-.113-.22-.156v.527c.049-.042.156-.142.22-.156-.014.064-.114.17-.157.22h.093a.275.275 0 00-.1.207c0 .107.057.192.143.235-.022 0-.043-.007-.072-.007l.008.128-.122.015-.014-.107c-.092-.029-.164-.015-.22.028-.57.121-.927.392-.685 1.048a4.1 4.1 0 00.35.74v.279c-.015.014-.03.035-.05.057-.179.256-.877.67-1.248.79v-.064c.079-.135.143-.292.193-.427.17-.449-.086-.641-.463-.72a.21.21 0 00-.164-.021h-.007l-.007.064-.05-.007.007-.093h-.007a.2.2 0 00.057-.142.168.168 0 00-.043-.121h.057l-.021-.022c-.015-.021-.043-.043-.065-.071-.014-.014-.02-.029-.028-.043a.15.15 0 01.043.029c.028.021.057.042.071.057l.021.021v-.42l-.021.021c-.014.014-.043.036-.071.064a.15.15 0 01-.043.029.138.138 0 01.028-.043.709.709 0 01.065-.071l.021-.022h-.4l.022.022c.015.014.036.042.057.07a.148.148 0 01.029.044c-.014-.007-.029-.022-.043-.029a.325.325 0 01-.071-.064l-.029-.021v.42l.029-.021c.014-.015.043-.036.071-.057.014-.015.029-.022.043-.029a.643.643 0 01-.093.114l-.021.022h.057a.193.193 0 00-.043.12c0 .058.021.1.057.143h-.014l.007.093-.05.007-.007-.064h-.007a.167.167 0 00-.164.021c-.385.079-.634.271-.463.72.05.142.12.292.192.427v.1c-.014 0-.028-.007-.043-.007-.256-.057-.67-.214-.748-.463-.064-.2.086-.492.15-.613.1-.207.264-.556.085-.777-.064-.085-.185-.114-.292-.163-.142-.072-.22-.143-.385-.236-.142-.078-.37.022-.612.4a1.03 1.03 0 01-.2.22c-.406.057-.67.178-.72.428-.092.477.364.456.335.748-.014.171-.192.057-.285.036-.156-.036-.313.057-.313.263 0 .093.05.292.25.4-.08-.143-.065-.328.07-.293.293.093.464.107.649-.15.007.136-.128.257-.171.371-.121.3.071.606.449.599-.164-.157-.143-.35-.136-.35.057-.263.228-.327.278-.555.114-.5-.342-.57-.25-1.034.015-.057.037-.185.065-.242.3-.05.456-.157.663-.263.22.413-.4.94-.007 1.346.22.228.634.364 1.068.4h.029a.109.109 0 00-.043.106c-.114-.028-.2.029-.192.15-.435 0-.827.264-.734.77a.543.543 0 00.22.37c.193-.3.735-.32 1.077-.121a1.585 1.585 0 00-.634.107c-.2.085-.456.2-.72.164a.352.352 0 01-.307-.264c-.085.085-.014.434.293.577.164.071.434.1.627-.028.07-.05.349-.357.698-.357-.499.143-.641.492-.25.72-.007-.135-.028-.3.229-.456a.734.734 0 01.577-.071c.071.021.178.085.25.1.106.02.156-.043.184-.079.228.171.556.684.62 1.005.072.37.029.613-.164.826-.057.064-.363.307-.655.057-.043.378.278.592.641.47a1.03 1.03 0 01-.363.236.499.499 0 01-.642-.207c-.277.32-.142.877.307.926-.207.4-.912.414-1.233-.05-.2-.285.036-.498.15-.612.299-.285.292-.563.085-.87-.27-.406-1.118-1.061-1.44-1.546-.063.079-.085.164-.099.193-.3-.221-.648-.706-.762-1.07-.064.015-.107.072-.15.115-.477-.592-1.34-2.017-1.575-2.573-.513.25-.498.97-.349 1.39.143.385.37.784.862 1.354-.156-.107-1.118-1.09-1.325-1.212-.356.506-.114 1.39.563 1.768-.22-.093-.72-.278-.99-.214-.05.563.406.947.698 1.161-.27-.064-.592-.107-.905-.014.028.385.427.82.997 1.012-.363-.022-.726.014-.961.157.05.392.498.74 1.054.826-.37.043-.698.207-.862.42.2.257.492.464.94.457a1 1 0 00-.577.555c.257.207.585.335 1.326.072-.855.356-.684.527-.82.89.157.057.292.221.699.121.228-.057.612-.42.94-.634-.107.114-.584.463-.798.663-.235.22-.071.456-.071.655.035 0 .078.008.12.015-.006.014-.02.028-.028.043-.285-.122-.627.028-.77.334a.658.658 0 00-.056.193c-.164-.036-.335.057-.42.228a.086.086 0 00-.015.028c-.007.007-.007.022-.007.029 0 .007 0 .007-.007.014a.03.03 0 01-.007.021v.136c0 .014.007.028.007.028 0 .007.007.029.007.029 0 .014.007.028.007.028a.102.102 0 01.014.029.054.054 0 01.015.028.102.102 0 01.014.022 120.901 120.901 0 00.043.042c.007.008.014.015.021.015-.007.007-.014.021-.014.021a.105.105 0 00-.014.021.102.102 0 00-.015.022s-.007.007-.007.014l-.007.007c-.007.007-.007.014-.007.014a.102.102 0 00-.014.022c0 .007-.015.021-.015.021-.007.007-.007.014-.007.022l-.014.028-.014.029a.105.105 0 01-.014.028.071.071 0 01-.008.021v.008a.162.162 0 01-.007.028.162.162 0 01-.007.029.162.162 0 01-.007.028v.143c0 .007.007.028.007.028 0 .007.007.029.007.029 0 .007.007.028.007.028 0 .007.008.029.008.029.007.007.007.028.007.028a.102.102 0 01.014.029c0 .007.007.028.007.028a.102.102 0 01.014.029.126.126 0 01.015.021c.007.007.014.021.014.021.007.008.014.022.014.022a.102.102 0 01.014.021 11.037 11.037 0 01.064.064.1.1 0 00.022.015.102.102 0 00.021.014.1.1 0 00.022.014.103.103 0 00.021.014c.007.007.014.014.021.014a.116.116 0 00-.014.029c-.007.007-.007.029-.007.029a.162.162 0 01-.007.028v.093a.07.07 0 00.007.021c0 .007.007.029.007.029a.1.1 0 01.014.028c0 .007.007.014.007.021l.008.008a.102.102 0 01.014.02c.007.008.014.022.014.022l.021.022c.008.007.022.014.022.014.007.007.021.014.021.014.007.007.014.007.029.014.007.008.014.008.028.008.007 0 .022.007.029.007-.007.007-.007.021-.007.021a.065.065 0 01-.008.021.07.07 0 01-.007.022.071.071 0 01-.007.021.07.07 0 01-.007.021v.171a.07.07 0 00.007.022.07.07 0 00.007.021c0 .007.007.022.007.022 0 .007.008.021.008.021.007.007.007.021.007.021 0 .008.007.015.007.015 0 .007.007.014.007.014v.007a.28.28 0 01.021.028.113.113 0 00.022.029 9.233 9.233 0 00.057.057c.007.007.035.021.035.021.015.008.022.015.036.022.007 0 .014.007.021.007 0 0 .015.007.022.007 0 0 .014 0 .021.007 0 0 .014.007.021.007h.022s.014 0 .021.007h.121s.015-.007.022-.007H8.6s.014.007.021.007c0 0 .015.007.022.007 0 0 .014 0 .021.008h.107s.007 0 .014-.008h.022s.014-.007.021-.007c0 0 .014 0 .021-.007 0 0 .015-.007.022-.007l.014-.007.014-.007s.015-.007.015-.014l.014-.008s.021-.014.035-.02c0 0 .022-.015.029-.03l.028-.028s.022-.021.029-.036c0 0 .014-.014.021-.028h.015s.014 0 .028-.007h.007c.007 0 .014-.007.022-.007.007 0 .014.007.02.007 0 0 .022.007.03.007h.113s.022-.007.029-.007c0 0 .014-.007.021-.007 0 0 .022-.007.029-.014 0 0 .014-.008.021-.015 0 0 .014-.014.022-.014l.02-.021.022-.022.022-.021s.014-.014.014-.021h.093s.014.007.02.007h.008c.007 0 .014 0 .029.007 0 0 .021 0 .028.007h.057s.021 0 .029-.007h.028s.021-.007.029-.007c0 0 .021-.008.028-.008 0 0 .021-.007.029-.007 0 0 .014-.007.028-.007l.221.1.157.014.299-.627a.114.114 0 00.05.029l.142.057v.064l.913.427c-.008.015-.008.029-.008.036v.049c0 .008-.007.008-.007.008s-.007 0-.007.007c-.021.021-.014.057-.007.079-.007 0-.007 0-.007.007-.007 0-.014.007-.014.028.007.043.014.093.057.121a.206.206 0 00.192.036c.071-.036.121-.121.114-.192 0-.015-.007-.029-.007-.043h.007c0 .007 0 .007.007.014.014.043 0 .085-.021.128a.21.21 0 00-.022.15v.007l.015.014c.021.029.05.057.1.064.014.022.05.022.078.022h.028c.007 0 .007-.007.014-.007.029-.007.072-.022.065-.064 0 0 0-.008.007-.008v.008a.26.26 0 00.021.1c.007.02.021.028.043.035.021.014.05.014.078.014h.036c.007 0 .014.007.021.014h.014c.008 0 .022.008.029.008.028 0 .05-.029.064-.043l.007-.007c.029-.043.029-.079.029-.114v-.029l1.703.791a3.87 3.87 0 00-.57.37c-.186.136-.335.25-.463.25-.107 0-.157-.057-.179-.1-.042-.085-.014-.306.079-.356a.309.309 0 00-.157.014c-.135.05-.385.214-.385.513a.53.53 0 00.022.143c-.114.05-.221.12-.328.228-.677.684-.242 1.154-.242 1.154 0-.2.17-.47.406-.684a.617.617 0 00-.014.114c0 .043.007.079.014.121.028.157.107.25.17.335.03.036.05.064.065.093l-.92.477s-.092.05-.042.128l.007.008c.036.078.128.042.128.042l.855-.427-.014.064.079-.021a.283.283 0 00.192-.164l.2-.1a.657.657 0 00.634.47h.042c-.007.007-.014.021-.021.029a.592.592 0 01-.214.206.991.991 0 01-.2.086 1.909 1.909 0 01-.391.078c-.242.014-.463-.021-.592-.107 0 0 .129.627 1.076.485.535-.079.784-.456.905-.784a.773.773 0 00.663.342c.171 0 .335-.05.463-.135.1.22.25.406.449.527l.021.014.022-.014a1.21 1.21 0 00.449-.527.842.842 0 00.463.135.766.766 0 00.598-.256.807.807 0 00.164-.285c.007 0 .007.007.014.007.122.092.264.2.492.2a.674.674 0 00.648-.52l.157.07a.327.327 0 00.086.171c.028.036.15.086.207.1-.022-.043-.029-.1-.036-.15l1.218.57.007.008c.057.02.114.028.171.02h.043c.007 0 .022-.006.029-.006.007 0 .021-.007.028-.007.007 0 .014-.007.022-.007.007 0 .014-.008.021-.015 0 0 .014-.007.021-.014l.022-.021.014-.015.021-.021s.008-.014.015-.021l.014-.029c0-.007.007-.014.007-.028 0 0 0-.015.007-.022v-.014c0-.007 0-.014.007-.021v-.079c0-.007 0-.014-.007-.021 0-.007-.007-.014-.007-.029 0-.007-.007-.014-.007-.021-.007-.007-.007-.014-.014-.021-.008-.008-.008-.015-.015-.022-.007-.007-.014-.014-.014-.021l-.021-.021c-.007-.008-.014-.015-.022-.015-.007-.007-.014-.014-.021-.014-.007-.007-.014-.007-.029-.014h-.007l-.007-.007s-.007 0-.007-.008l-.078-.035c-.007 0-.007-.007-.007-.007s-.015-.007-.022-.007c-.071-.036-.164-.079-.285-.136l.136-.278.62.293.627-1.497-.008-.071-.192-.093c.007 0 .014-.007.014-.007.428-.185.784-.862.592-1.354-.186-.491-.47-.491-.47-.491-.271.042-.4-.036-.4-.036 0 .143.278.385.278.385s.107.071.064.092c-.042.015-.114-.007-.114-.007a1.16 1.16 0 01-.306-.17s-.064.063.15.242c.213.185.263.32.263.32.093.292-.192.478-.192.478-.741.363-1.525-.414-1.76-.677.014-.007.028-.015.036-.036a.136.136 0 00.02-.1v-.007.007c0 .05.044.064.072.072.007 0 .007 0 .014.007h.028c.03 0 .058 0 .08-.022.042-.007.07-.035.099-.064l.007-.007v-.007c.021-.057 0-.1-.021-.15-.014-.043-.036-.078-.022-.128 0-.021.008-.043.015-.064-.007.028-.015.057-.015.085-.007.072.043.157.114.193a.229.229 0 00.193-.036c.043-.028.05-.078.057-.121 0-.014-.007-.021-.014-.028 0-.008-.008-.008-.008-.008.008-.021.008-.057-.007-.078l-.007-.007h-.007s-.007 0-.007-.007v-.05c0-.014 0-.029-.014-.05a.406.406 0 00.135-.22l.029-.015a.134.134 0 00.057-.014l.007-.007.021-.022.078-.035.008.007c.05.014.078-.008.106-.057l1.732-.863.021.043.52-.27-.02-.036.213-.107c-.071-.071-.164-.306-.164-.306l-.207.106-.021-.042-.52.256.028.05-1.667.855c0-.007-.007-.007-.007-.014-.007-.007-.014-.007-.022-.007 0 .007-.007 0-.007.007 0-.007 0-.007-.007-.007l.014-.015c.008-.007.008-.014.008-.014v-.007c0-.014 0-.014-.008-.028-.007-.008-.007-.022-.007-.036 0-.021 0-.036-.014-.057v-.007c0-.007.007-.014 0-.021 0-.079-.078-.093-.135-.107-.022 0-.036-.008-.043-.008l-.078-.05s-.008 0-.008-.006l-.014-.022c-.007-.007-.007-.007-.014-.007h-.064c-.007 0-.007 0-.007.007h-.029c-.028.007-.021.021-.028.043 0 .035-.029.007-.036.035l-.007.008h-.007s-.007 0-.007.007c-.008 0-.008.007-.015.014a.595.595 0 00-.085-.328c-.143-.242-.306-.392-.663-.456a.925.925 0 01.37-.349s.321-.121.507.128c0 0 .078.128.107.406.02.278.114.264.114.264s0-.2.035-.335c0 0 .014-.078.057-.107.043-.021.05.107.05.107s.036.364.15.45c0 0 .007-.15.206-.343 0 0 .136-.185-.05-.549.05.015.093.022.136.05.1-.192.328-.256.292-.491.1.064.313.185.677.206l.128.015s-.021-.015-.043-.036c.007 0 .015 0 .015.007 0-.014.007-.021.007-.028.035.042.071.07.071.07s-.1.05-.1.15c0 .1.136.178.136.178s-.079.065-.05.143c.028.078.135.078.135.078s-.05.1.014.164c.05-.028.293-.142.442-.22a.638.638 0 01-.335-.293.368.368 0 01.05-.342c.086-.114.25-.114.328-.242a.324.324 0 00.093-.2c.085-.014.156-.035.22-.035 0-.207.164-.435-.07-.656-.207-.2-.692-.548-.799-.662.328.213.706.57.94.634.4.1.542-.064.692-.121-.128-.364.035-.535-.82-.891.749.264 1.07.135 1.326-.071a1 1 0 00-.577-.556c.449.007.748-.2.947-.456-.163-.221-.498-.385-.869-.42.542-.107.983-.456 1.033-.848z" fill="#F5F8FF"/><path d="M23.628 17.806a.66.66 0 00-.335.435l-.043.028-.02.057c-.03-.007-.058-.014-.093 0-.122.057-.058.193-.058.193s.058.15.1.242c.064.128.143.235.143.235s.092.107.185.057c.043-.021.057-.064.064-.1l.05.014.085.008c.164.057.343.05.506-.029a.643.643 0 00.285-.862.647.647 0 00-.869-.278zm-1.325 1.126c-.071-.114-.021-.157-.021-.157s-.029 0-.057-.021c0 0-.193.092-.236.114-.042.028-.12.078-.135.135a.68.68 0 00.449-.071zm-.108-.192c-.042-.036-.057-.065-.05-.107 0 0 .015-.078.05-.1-.014 0-.035-.014-.035-.014s-.128-.007-.15 0c0 0-.25.036-.385.17.136.136.414.093.57.05zm-.05-.243s-.078-.057-.071-.135c0-.043 0-.078.064-.135 0 0-.513-.057-.763.057.129.135.285.199.55.206.006-.007.22.007.22.007zm1.582 1.112c-.15-.014-.242.121-.392.121a.366.366 0 01-.306-.157.597.597 0 01-.043-.441c-.15.07-.392.2-.442.22.015.086.129.107.129.107s-.057.086-.015.15c.043.071.143.043.143.043s-.014.15.064.206c.078.064.178.008.178.008s-.007.15.086.213c.085.064.185 0 .185 0s.036.114.085.136c.057.021.129-.015.171-.072.015.072.079.193.157.221.086.029.128.022.214-.028.114-.086.043.05.036.078-.05.164-.114.328-.164.492-.036.114-.079.285-.007.392.007.014.07.078.12.064.05-.185.115-.37.165-.549.064-.206.128-.413.128-.634-.029-.142-.029-.313-.136-.42a.39.39 0 00-.356-.15z" fill="#808D9C"/><path d="M22.637 19.48s-.064.015-.114-.113a.667.667 0 00-.32.32c.057.021.142-.007.185-.029.05-.021.228-.114.228-.12.007-.029.021-.058.021-.058zm.143.25s0-.028.007-.043c-.036.015-.107-.021-.107-.021-.043-.014-.057-.05-.057-.1-.136.1-.328.3-.3.491.193-.028.364-.206.364-.206.014-.014.093-.12.093-.12zm.071.164c-.064-.05-.071-.142-.071-.142s-.114.178-.129.192c-.15.214-.192.37-.156.556.242-.128.499-.577.499-.577-.079.021-.107 0-.143-.029zm.363.256s-.07.008-.128-.063c-.071-.079-.064-.164-.064-.164s-.064.114-.071.114c-.271.42-.228.74-.228.74.085-.035.213-.192.213-.192.029-.021.278-.434.278-.434zm.079.407l.17-.292a.13.13 0 01-.12-.05c-.03-.036-.043-.078-.043-.078s-.029.014-.05.014l-.107.178s-.228.392-.235.82c0 0 .107-.093.135-.15a6.52 6.52 0 00.25-.442zm.37-.193a.48.48 0 01-.1-.157s-.021.036-.064.05c-.028.043-.206.378-.206.378-.143.256-.342.812-.25.962.178-.136.37-.627.37-.627l.25-.606zm.064.713l.264-.72c-.15.1-.206.071-.3.036 0 0-.17.413-.27.662-.071.143-.206.613-.135.884.064-.036.107-.107.15-.171.035-.05.078-.15.078-.15l.213-.541zm.015.085s-.264.613-.264.827c.007.213.064.42.114.52l.335-1.09s-.171.014-.185-.257z" fill="#808D9C"/><path d="M15.982 13.966h-2.23v4.61c0 .57.242.84.726.84h.741c.385 0 .656.293.756.642.1-.35.37-.641.755-.641h.74c.493 0 .728-.271.728-.841v-4.61h-2.216z" fill="#ED1C24"/><path d="M15.078 18.398c-.043 0-.086 0-.122-.008-.007-.056-.042-.085-.05-.142-.028-.014-.007-.05-.007-.071.008-.029-.014-.057-.014-.086a.45.45 0 01.029-.15c.035-.085.092-.156.12-.249.044-.035.093-.085.122-.107.043-.042.078-.085.121-.135.093-.071.214-.114.3-.2.056.043.05.179.007.228a.214.214 0 01.028.072c.036.014.071.035.114.035.121.093.235.186.278.357.014.042.021.07.05.107.007-.015-.007-.029-.007-.05.014.014.028.028.05.042a.055.055 0 00-.036.015c-.007.028-.007.07.028.07-.035.015-.106-.006-.128.037a.185.185 0 00-.1.042c-.035 0-.057.022-.085.029.007-.022 0-.029 0-.05a.258.258 0 00.007-.128c-.036-.157-.143-.236-.306-.236-.015 0-.029 0-.05.008l-.107.021a.355.355 0 00-.093.036c-.128.092-.22.242-.15.434 0 0 0 .007-.007.007s-.014-.014-.02-.014c0 0-.008 0-.008.007-.007.043.036.036.036.079zm1.076-.485l-.193-.691a.498.498 0 00.043-.164c.043.007.092.007.142.014.022.05.064.107.057.164.022.021-.007.071-.007.114.007.029.022.036.029.064.014 0 .021.007.035.007.05 0 .079-.028.121-.035 0 .007.008.014.008.021a.1.1 0 01.042-.014c.022 0 .036.014.05.036.043.042.079.128.121.163.008.036.029.065.029.093.05.078.121.143.142.25h-.014c-.057 0-.071.07-.043.106.008-.028.022-.042.036-.057h.007c.014 0 .014.007.022.007.007-.007 0-.014.007-.02.014.013.014.035.021.056h-.007c-.043 0-.078.057-.043.086.007-.008.007-.022.014-.029h.015c.007 0 .021.007.028.007.007 0 .007 0 .014-.007a.24.24 0 01.008.079c-.015.014-.036.02-.043.042-.014 0-.029-.007-.043-.007-.028 0-.057.007-.064.021 0 .008.007.008.007.008.007 0 .021-.015.036-.015h.014c.007.015 0 .022 0 .043h-.007a.015.015 0 00-.014.014c-.008-.014-.036-.007-.058-.014.022-.014-.042-.035-.064-.05a.217.217 0 00-.057-.028h-.05c-.014-.014-.056-.022-.078-.022h-.007v-.014h.007c.021 0 .036-.014.043-.014 0 0 .007 0 .014.007.029-.007.043-.036.078-.043a.054.054 0 01-.014.036c.007.007.007.014.014.014.022 0 .036-.035.036-.064-.007-.036-.057-.043-.078-.05-.05.007-.079.057-.114.078-.015.008-.043.008-.057.015-.022.014-.029.05-.05.064.007-.029.028-.071.007-.107.05-.014.057-.086.114-.093 0 .015 0 .036-.007.043.007 0 .007.007.014.007.043 0 .057-.078.021-.107-.007 0-.007.008-.014.008-.014 0-.021-.008-.035-.008-.015 0-.022.008-.036.008-.007 0-.021-.008-.029-.008h-.007c-.057.008-.028.079-.064.107-.007-.021.022-.057 0-.085a.073.073 0 01-.035-.043s-.008 0-.008-.007h-.021c-.014 0-.021 0-.021.007-.007 0-.014.007-.014.007zm-.984-3.498c-.007 0-.007 0-.014.007s-.007.014-.007.028l.05.178c-.022.014-.057.057-.057.086v.128c-.05 0-.129.028-.186.036-.07 0-.178 0-.263.035-.057.022-.164.093-.164.171 0 .036.021.064.043.086-.043.035-.093.114-.093.17 0 .022 0 .043.014.058.007.014.036.014.05.028.007.007.007.014.014.022a.19.19 0 00-.021.085c0 .022.014.064.064.079-.007.02.057.064.107.064.014 0 .05-.036.064-.05.043 0 .064.014.093.043.007.014.014 0 .021.014.014.035.022.085.029.107 0 .014.014.021.028.021h.007c.029-.007.072-.05.1-.078a.14.14 0 01.05.007h.036c.028 0 .05 0 .064-.007a.217.217 0 00.05.035c.007-.014.014-.028.028-.028h.007c.029 0 .071.028.114.028a.112.112 0 01.093-.05l.043.157h-.036c-.014.128.078.193.086.314-.008.007-.015.014-.029.014-.014 0-.028-.007-.05-.007h-.064a.588.588 0 00-.356.1c-.007.007-.015.007-.022.007h-.021c-.057-.072-.093-.164-.192-.193a.349.349 0 00-.278.014c-.043.022-.065.05-.093.079-.014.014-.036.029-.05.043a.474.474 0 00-.064.135c-.014.057-.007.121-.021.185-.008.05-.029.093-.036.136-.014.014-.028.028-.021.064.028-.007.064-.029.078-.036a.765.765 0 00-.014.257c.007.092.007.057.007.12.05-.049.1-.099.114-.177a.39.39 0 01-.021.213c.042-.035.064-.064.114-.106.02-.015.05-.022.07-.036.043-.036.043-.1.065-.157.014.086.028.185-.029.235.022-.007.036-.021.05-.035.022 0 .057-.022.064-.036.086-.1.015-.27.008-.392-.008-.064-.029-.114-.022-.178.007-.035.021-.085.05-.107.014-.014.029-.014.05-.014.043 0 .093.043.107.078a.503.503 0 00-.064.278.6.6 0 00.164.385c.02.021.014.1.007.121 0 .007.007.007.007.022a.419.419 0 01-.043.142c-.036.05-.085.071-.15.107-.028.014-.028.057-.035.093-.007.028-.036.07-.007.092-.007.107-.036.193-.057.285-.036.093-.15.136-.136.25.007 0 .007-.015.014-.015h.008c-.008.015.007.015.007.022.014 0 .007-.022.021-.022 0 .015 0 .015.007.015 0 0 .007-.008.014-.008 0 .058-.042.072-.035.129-.007.007-.014.014-.021.014-.029 0-.043-.078-.05-.107-.022-.107-.015-.228-.072-.292a.21.21 0 00-.135-.05c-.021 0-.043 0-.057.014h.007c.086 0 .136.086.15.171.007.064-.007.122 0 .178a.54.54 0 00.071.25c.036.057.085.078.135.128a.789.789 0 00.293.057.61.61 0 00.163-.021v.05c-.035.028-.07.057-.114.07 0 .022.079 0 .179 0 .206 0 .178.13.178.13s-.022.02.014.02c.028-.007.057-.007.078-.007.129 0 .221.036.285.064.064.029.093.05.107.05.007 0 .121-.042.193-.042.014 0 .035 0 .05.007.056.007.113.028.17.028.015 0-.007 0 .043-.007.05-.007.057-.071.093-.142.028-.015.1-.043.1-.043s.021-.007.028-.007c.029-.007.014-.064.007-.136.029 0 .043-.035.072-.05.014-.007.035-.007.05-.007.007.008.014.008.028.008.007-.008.021-.008.036-.008.014 0 .028.008.05.008h.02c.05.02.086.092.15.092.015 0 .029 0 .036-.007l.043-.064c.014-.007.036-.007.057-.007h.057c.021 0 .043-.014.064-.022h.085a.884.884 0 01.129-.014.136.136 0 00.064-.021c.014-.015.014-.05.028-.079.015-.028.036-.05.029-.092-.014.021-.029.05-.043.071.014 0 .021-.036.036-.036a.136.136 0 01-.05.079c0-.043.05-.114.007-.164 0 .057-.028.121-.085.142.007-.021.02-.078 0-.1 0 .03-.015.043-.029.065 0-.022 0-.043-.014-.05-.007.05-.036.071-.079.085 0-.014-.014-.014-.014-.035-.014.007-.014.021-.035.021-.008-.014-.008-.035-.022-.043-.007.008-.014.029-.028.036-.015 0-.007-.036-.022-.043-.007 0-.007.022-.021.022a.31.31 0 00-.057-.107c.028-.014 0-.036.028-.05.008 0 .008.007.008.007.007 0 .014-.007.02-.007 0 0 .008 0 .015.007.007-.014 0-.029.014-.036.008.008.008.022.022.022.014-.007.007-.029 0-.043.014 0 .021-.014.035-.021.029.014.05.021.057.057.015-.036.008-.079 0-.114h.008c.007 0 .007-.008.02-.008.015.022.037.058.03.079.02-.014.014-.064.007-.086.02.008.028.036.042.057.014-.05-.028-.114-.064-.12-.036 0-.071.056-.107.07-.014.008-.035 0-.057.008-.014.007-.028.028-.035.035-.036.029-.079.043-.107.064-.022-.035-.064-.057-.079-.1a.153.153 0 00.029-.085c-.007-.021-.043-.014-.05-.043.007-.014.014-.021.014-.042-.007-.015-.035-.008-.05-.015-.014-.07-.057-.164-.042-.235 0-.014.014-.028.014-.05 0-.028-.014-.042-.014-.064 0-.014 0-.028-.008-.035-.014-.022-.035-.043-.05-.065-.007-.014-.007-.028-.014-.05-.014-.085-.05-.185-.07-.27-.008-.029-.022-.057-.022-.093.014 0 0 .021.007.021.007-.007 0-.028.007-.028.036.014.071.029.1.043.12-.029.164-.121.263-.178.043-.022.086-.057.136-.079.021-.014.057-.014.078-.028.036-.015.05-.036.093-.036h.014c.029.121.021.242-.078.285-.036.014-.072.014-.079.064 0 .015.015.015.022.015-.022.014-.008.042-.022.07-.007 0-.007.008-.014.008-.028-.014-.043-.036-.071-.036h-.007c-.057.007-.1.143-.072.207.008 0 .008 0 .008.007h.02c.086 0 .13-.043.215-.043.028-.028.092-.035.12-.078.015-.014.015-.064.022-.093.022-.057.064-.128.079-.185.007-.036.007-.078.014-.114 0-.093.035-.157.05-.235-.029-.036-.022-.107-.064-.128-.015-.008-.029-.008-.043-.008-.064 0-.128.036-.186.05-.106.029-.213.043-.327.064.05-.178-.057-.306-.079-.456-.007-.05-.021-.1-.028-.15 0 0 .007 0 .007-.006a.08.08 0 00.057.021.06.06 0 00.05-.028c.021-.036.035-.065.071-.072v.015c0 .035.029.057.064.057h.007c.036 0 .05-.015.057-.036 0 .007 0 .007.008.014.007.007.014.007.02.007.008.008.015.015.044.015h.014c.028-.036.093-.022.128-.05.043-.036.007-.157 0-.278-.007-.121-.028-.228-.071-.285.014 0 .036-.007.028-.022a.135.135 0 00.057.015h.008c-.022-.05-.008-.122-.036-.164.014-.014.035-.029.05-.05a.244.244 0 00-.129-.029.111.111 0 00-.085-.042h-.021c.021-.029.05-.057.07-.093h-.013a.695.695 0 00-.122.014c-.02-.021-.056-.028-.085-.028h-.021c-.05-.029-.093-.022-.136-.029a.185.185 0 00-.078-.021c-.064 0-.128.043-.214.05.043.007.078.021.093.05-.036-.008-.065-.022-.093-.022h-.007c-.086 0-.15.072-.192.086h.02c-.035.007-.063.043-.07.078.014-.007.028-.007.042-.007h.008c-.022.036-.164 0-.186.071.014-.007.029-.007.043-.007.036 0 .064.014.093.021-.072.036-.064.15-.157.15h-.014c0-.057-.029-.107-.064-.164-.029-.035-.072-.092-.107-.114-.022-.014-.036-.021-.043-.021 0 .007.007.007.007.014-.007-.007-.021-.014-.021-.036.007-.014-.008-.028.007-.05a.118.118 0 00.035.015h.008c.007 0 .014-.007.02-.021l.022-.022c.022.021.036.036.05.036.05 0 .086-.036.093-.093 0-.014-.007-.028 0-.035.007-.029.035-.072.035-.114 0-.065-.05-.093-.07-.122-.022-.035-.072-.078-.122-.078h-.007c-.029 0-.043-.014-.064-.014-.05 0-.1.021-.143.057h.014l.015-.007a.388.388 0 01.114-.043c.021 0 .028.014.035.014.008 0 .008.007.015.007h.007c.014 0 .021-.007.035-.007h.015c.092.021.078.1.114.114.035.014.035.05.035.064 0 .064-.035.086-.035.121 0 .015 0 .022-.008.036-.007.028-.035.064-.07.071h-.008c-.014 0-.028-.014-.05-.021l.029-.029s0-.007.007-.007c.007-.014.028-.035.028-.057 0 0 0-.007.008-.014h.014s.007 0 .014-.007v-.014c.007-.022.014-.057 0-.065.014-.014.021-.05.014-.07-.007.02-.007.056-.021.07-.029-.007.021-.07-.014-.078a.09.09 0 01-.008.064c-.014 0 .008-.021 0-.035-.014 0-.007.021-.014.028-.021-.007-.028-.028-.05-.028 0-.008.008 0 .015-.015-.093.008-.171.122-.186.214a.205.205 0 01-.057-.028c-.014-.015-.007-.043.007-.057-.014 0-.02.014-.028.021-.007.007-.007.014-.014.014s-.007-.021-.007-.028a.131.131 0 01.064-.1c-.043.014-.064.064-.093.107-.007 0-.021-.014-.021-.021 0-.022 0-.05.007-.058a.138.138 0 01.071-.07h-.007c-.028 0-.064.028-.078.05-.015 0-.022-.022-.022-.022 0-.022.022-.043.05-.071a.17.17 0 01.079-.043c.028-.007.056-.007.092-.036-.028.007-.057.021-.085.029h-.015a.148.148 0 00-.07.042.155.155 0 00-.058.072c-.007.021.014.035.021.064.008.014 0 .035.008.05 0 .007.021.021.035.028h.007s.008 0 .015-.007v.021c.007.008.028 0 .028.008-.014.042-.05.078-.05.078-.035-.036-.078-.057-.107-.079-.057-.028-.085-.035-.12-.05-.03-.014-.08-.07-.165-.085h-.064v-.043a.015.015 0 00.014-.014c.008-.007.008-.035 0-.043-.007-.007-.02-.057-.056-.07.007 0 .007-.008.007-.015-.015 0-.022-.007-.029-.014h-.028l-.05-.193c-.007-.028-.007-.035-.029-.043z" fill="#F5F8FF"/><path d="M15.078 18.398c-.043 0-.086 0-.122-.008-.007-.056-.042-.085-.05-.142-.028-.014-.007-.05-.007-.071.008-.029-.014-.057-.014-.086a.45.45 0 01.029-.15c.035-.085.092-.156.12-.249.044-.035.093-.085.122-.107.043-.042.078-.085.121-.135.093-.071.214-.114.3-.2.056.043.05.179.007.228a.214.214 0 01.028.072c.036.014.071.035.114.035.121.093.235.186.278.357.014.042.021.07.05.107.007-.015-.007-.029-.007-.05.014.014.028.028.05.042a.055.055 0 00-.036.015c-.007.028-.007.07.028.07-.035.015-.106-.006-.128.037a.185.185 0 00-.1.042c-.035 0-.057.022-.085.029.007-.022 0-.029 0-.05a.258.258 0 00.007-.128c-.036-.157-.143-.236-.306-.236-.015 0-.029 0-.05.008l-.107.021a.355.355 0 00-.093.036c-.128.092-.22.242-.15.434 0 0 0 .007-.007.007s-.014-.014-.02-.014c0 0-.008 0-.008.007-.007.043.036.036.036.079zm1.076-.485l-.193-.691a.498.498 0 00.043-.164c.043.007.092.007.142.014.022.05.064.107.057.164.022.021-.007.071-.007.114.007.029.022.036.029.064.014 0 .021.007.035.007.05 0 .079-.028.121-.035 0 .007.008.014.008.021a.1.1 0 01.042-.014c.022 0 .036.014.05.036.043.042.079.128.121.163.008.036.029.065.029.093.05.078.121.143.142.25h-.014c-.057 0-.071.07-.043.106.008-.028.022-.042.036-.057h.007c.014 0 .014.007.022.007.007-.007 0-.014.007-.02.014.013.014.035.021.056h-.007c-.043 0-.078.057-.043.086.007-.008.007-.022.014-.029h.015c.007 0 .021.007.028.007.007 0 .007 0 .014-.007a.24.24 0 01.008.079c-.015.014-.036.02-.043.042-.014 0-.029-.007-.043-.007-.028 0-.057.007-.064.021 0 .008.007.008.007.008.007 0 .021-.015.036-.015h.014c.007.015 0 .022 0 .043h-.007a.015.015 0 00-.014.014c-.008-.014-.036-.007-.058-.014.022-.014-.042-.035-.064-.05a.217.217 0 00-.057-.028h-.05c-.014-.014-.056-.022-.078-.022h-.007v-.014h.007c.021 0 .036-.014.043-.014 0 0 .007 0 .014.007.029-.007.043-.036.078-.043a.054.054 0 01-.014.036c.007.007.007.014.014.014.022 0 .036-.035.036-.064-.007-.036-.057-.043-.078-.05-.05.007-.079.057-.114.078-.015.008-.043.008-.057.015-.022.014-.029.05-.05.064.007-.029.028-.071.007-.107.05-.014.057-.086.114-.093 0 .015 0 .036-.007.043.007 0 .007.007.014.007.043 0 .057-.078.021-.107-.007 0-.007.008-.014.008-.014 0-.021-.008-.035-.008-.015 0-.022.008-.036.008-.007 0-.021-.008-.029-.008h-.007c-.057.008-.028.079-.064.107-.007-.021.022-.057 0-.085a.073.073 0 01-.035-.043s-.008 0-.008-.007h-.021c-.014 0-.021 0-.021.007-.007 0-.014.007-.014.007zm-.984-3.498c-.007 0-.007 0-.014.007s-.007.014-.007.028l.05.178c-.022.014-.057.057-.057.086v.128c-.05 0-.129.028-.186.036-.07 0-.178 0-.263.035-.057.022-.164.093-.164.171 0 .036.021.064.043.086-.043.035-.093.114-.093.17 0 .022 0 .043.014.058.007.014.036.014.05.028.007.007.007.014.014.022a.19.19 0 00-.021.085c0 .022.014.064.064.079-.007.02.057.064.107.064.014 0 .05-.036.064-.05.043 0 .064.014.093.043.007.014.014 0 .021.014.014.035.022.085.029.107 0 .014.014.021.028.021h.007c.029-.007.072-.05.1-.078a.14.14 0 01.05.007h.036c.028 0 .05 0 .064-.007a.217.217 0 00.05.035c.007-.014.014-.028.028-.028h.007c.029 0 .071.028.114.028a.112.112 0 01.093-.05l.043.157h-.036c-.014.128.078.193.086.314-.008.007-.015.014-.029.014-.014 0-.028-.007-.05-.007h-.064a.588.588 0 00-.356.1c-.007.007-.015.007-.022.007h-.021c-.057-.072-.093-.164-.192-.193a.349.349 0 00-.278.014c-.043.022-.065.05-.093.079-.014.014-.036.029-.05.043a.474.474 0 00-.064.135c-.014.057-.007.121-.021.185-.008.05-.029.093-.036.136-.014.014-.028.028-.021.064.028-.007.064-.029.078-.036a.765.765 0 00-.014.257c.007.092.007.057.007.12.05-.049.1-.099.114-.177a.39.39 0 01-.021.213c.042-.035.064-.064.114-.106.02-.015.05-.022.07-.036.043-.036.043-.1.065-.157.014.086.028.185-.029.235.022-.007.036-.021.05-.035.022 0 .057-.022.064-.036.086-.1.015-.27.008-.392-.008-.064-.029-.114-.022-.178.007-.035.021-.085.05-.107.014-.014.029-.014.05-.014.043 0 .093.043.107.078a.503.503 0 00-.064.278.6.6 0 00.164.385c.02.021.014.1.007.121 0 .007.007.007.007.022a.419.419 0 01-.043.142c-.036.05-.085.071-.15.107-.028.014-.028.057-.035.093-.007.028-.036.07-.007.092-.007.107-.036.193-.057.285-.036.093-.15.136-.136.25.007 0 .007-.015.014-.015h.008c-.008.015.007.015.007.022.014 0 .007-.022.021-.022 0 .015 0 .015.007.015 0 0 .007-.008.014-.008 0 .058-.042.072-.035.129-.007.007-.014.014-.021.014-.029 0-.043-.078-.05-.107-.022-.107-.015-.228-.072-.292a.21.21 0 00-.135-.05c-.021 0-.043 0-.057.014h.007c.086 0 .136.086.15.171.007.064-.007.122 0 .178a.54.54 0 00.071.25c.036.057.085.078.135.128a.789.789 0 00.293.057.61.61 0 00.163-.021v.05c-.035.028-.07.057-.114.07 0 .022.079 0 .179 0 .206 0 .178.13.178.13s-.022.02.014.02c.028-.007.057-.007.078-.007.129 0 .221.036.285.064.064.029.093.05.107.05.007 0 .121-.042.193-.042.014 0 .035 0 .05.007.056.007.113.028.17.028.015 0-.007 0 .043-.007.05-.007.057-.071.093-.142.028-.015.1-.043.1-.043s.021-.007.028-.007c.029-.007.014-.064.007-.136.029 0 .043-.035.072-.05.014-.007.035-.007.05-.007.007.008.014.008.028.008.007-.008.021-.008.036-.008.014 0 .028.008.05.008h.02c.05.02.086.092.15.092.015 0 .029 0 .036-.007l.043-.064c.014-.007.036-.007.057-.007h.057c.021 0 .043-.014.064-.022h.085a.884.884 0 01.129-.014.136.136 0 00.064-.021c.014-.015.014-.05.028-.079.015-.028.036-.05.029-.092-.014.021-.029.05-.043.071.014 0 .021-.036.036-.036a.136.136 0 01-.05.079c0-.043.05-.114.007-.164 0 .057-.028.121-.085.142.007-.021.02-.078 0-.1 0 .03-.015.043-.029.065 0-.022 0-.043-.014-.05-.007.05-.036.071-.079.085 0-.014-.014-.014-.014-.035-.014.007-.014.021-.035.021-.008-.014-.008-.035-.022-.043-.007.008-.014.029-.028.036-.015 0-.007-.036-.022-.043-.007 0-.007.022-.021.022a.31.31 0 00-.057-.107c.028-.014 0-.036.028-.05.008 0 .008.007.008.007.007 0 .014-.007.02-.007 0 0 .008 0 .015.007.007-.014 0-.029.014-.036.008.008.008.022.022.022.014-.007.007-.029 0-.043.014 0 .021-.014.035-.021.029.014.05.021.057.057.015-.036.008-.079 0-.114h.008c.007 0 .007-.008.02-.008.015.022.037.058.03.079.02-.014.014-.064.007-.086.02.008.028.036.042.057.014-.05-.028-.114-.064-.12-.036 0-.071.056-.107.07-.014.008-.035 0-.057.008-.014.007-.028.028-.035.035-.036.029-.079.043-.107.064-.022-.035-.064-.057-.079-.1a.153.153 0 00.029-.085c-.007-.021-.043-.014-.05-.043.007-.014.014-.021.014-.042-.007-.015-.035-.008-.05-.015-.014-.07-.057-.164-.042-.235 0-.014.014-.028.014-.05 0-.028-.014-.042-.014-.064 0-.014 0-.028-.008-.035-.014-.022-.035-.043-.05-.065-.007-.014-.007-.028-.014-.05-.014-.085-.05-.185-.07-.27-.008-.029-.022-.057-.022-.093.014 0 0 .021.007.021.007-.007 0-.028.007-.028.036.014.071.029.1.043.12-.029.164-.121.263-.178.043-.022.086-.057.136-.079.021-.014.057-.014.078-.028.036-.015.05-.036.093-.036h.014c.029.121.021.242-.078.285-.036.014-.072.014-.079.064 0 .015.015.015.022.015-.022.014-.008.042-.022.07-.007 0-.007.008-.014.008-.028-.014-.043-.036-.071-.036h-.007c-.057.007-.1.143-.072.207.008 0 .008 0 .008.007h.02c.086 0 .13-.043.215-.043.028-.028.092-.035.12-.078.015-.014.015-.064.022-.093.022-.057.064-.128.079-.185.007-.036.007-.078.014-.114 0-.093.035-.157.05-.235-.029-.036-.022-.107-.064-.128-.015-.008-.029-.008-.043-.008-.064 0-.128.036-.186.05-.106.029-.213.043-.327.064.05-.178-.057-.306-.079-.456-.007-.05-.021-.1-.028-.15 0 0 .007 0 .007-.006a.08.08 0 00.057.021.06.06 0 00.05-.028c.021-.036.035-.065.071-.072v.015c0 .035.029.057.064.057h.007c.036 0 .05-.015.057-.036 0 .007 0 .007.008.014.007.007.014.007.02.007.008.008.015.015.044.015h.014c.028-.036.093-.022.128-.05.043-.036.007-.157 0-.278-.007-.121-.028-.228-.071-.285.014 0 .036-.007.028-.022a.135.135 0 00.057.015h.008c-.022-.05-.008-.122-.036-.164.014-.014.035-.029.05-.05a.244.244 0 00-.129-.029.111.111 0 00-.085-.042h-.021c.021-.029.05-.057.07-.093h-.013a.695.695 0 00-.122.014c-.02-.021-.056-.028-.085-.028h-.021c-.05-.029-.093-.022-.136-.029a.185.185 0 00-.078-.021c-.064 0-.128.043-.214.05.043.007.078.021.093.05-.036-.008-.065-.022-.093-.022h-.007c-.086 0-.15.072-.192.086h.02c-.035.007-.063.043-.07.078.014-.007.028-.007.042-.007h.008c-.022.036-.164 0-.186.071.014-.007.029-.007.043-.007.036 0 .064.014.093.021-.072.036-.064.15-.157.15h-.014c0-.057-.029-.107-.064-.164-.029-.035-.072-.092-.107-.114-.022-.014-.036-.021-.043-.021 0 .007.007.007.007.014-.007-.007-.021-.014-.021-.036.007-.014-.008-.028.007-.05a.118.118 0 00.035.015h.008c.007 0 .014-.007.02-.021l.022-.022c.022.021.036.036.05.036.05 0 .086-.036.093-.093 0-.014-.007-.028 0-.035.007-.029.035-.072.035-.114 0-.065-.05-.093-.07-.122-.022-.035-.072-.078-.122-.078h-.007c-.029 0-.043-.014-.064-.014-.05 0-.1.021-.143.057h.014l.015-.007a.388.388 0 01.114-.043c.021 0 .028.014.035.014.008 0 .008.007.015.007h.007c.014 0 .021-.007.035-.007h.015c.092.021.078.1.114.114.035.014.035.05.035.064 0 .064-.035.086-.035.121 0 .015 0 .022-.008.036-.007.028-.035.064-.07.071h-.008c-.014 0-.028-.014-.05-.021l.029-.029s0-.007.007-.007c.007-.014.028-.035.028-.057 0 0 0-.007.008-.014h.014s.007 0 .014-.007v-.014c.007-.022.014-.057 0-.065.014-.014.021-.05.014-.07-.007.02-.007.056-.021.07-.029-.007.021-.07-.014-.078a.09.09 0 01-.008.064c-.014 0 .008-.021 0-.035-.014 0-.007.021-.014.028-.021-.007-.028-.028-.05-.028 0-.008.008 0 .015-.015-.093.008-.171.122-.186.214a.205.205 0 01-.057-.028c-.014-.015-.007-.043.007-.057-.014 0-.02.014-.028.021-.007.007-.007.014-.014.014s-.007-.021-.007-.028a.131.131 0 01.064-.1c-.043.014-.064.064-.093.107-.007 0-.021-.014-.021-.021 0-.022 0-.05.007-.058a.139.139 0 01.071-.07h-.007c-.028 0-.064.028-.078.05-.015 0-.022-.022-.022-.022 0-.022.022-.043.05-.071a.17.17 0 01.079-.043c.028-.007.056-.007.092-.036-.028.007-.057.021-.085.029h-.015a.148.148 0 00-.07.042.155.155 0 00-.058.072c-.007.021.014.035.021.064.008.014 0 .035.008.05 0 .007.021.021.035.028h.007s.008 0 .015-.007v.021c.007.008.028 0 .028.008-.014.042-.05.078-.05.078-.035-.036-.078-.057-.107-.079-.057-.028-.085-.035-.12-.05-.03-.014-.08-.07-.165-.085h-.064v-.043a.015.015 0 00.014-.014c.008-.007.008-.035 0-.043-.007-.007-.02-.057-.056-.07.007 0 .007-.008.007-.015-.015 0-.022-.007-.029-.014h-.028l-.05-.193c-.007-.028-.007-.035-.029-.043z" stroke="#F5F8FF" stroke-width=".2" stroke-miterlimit="10"/><path d="M21.79 20.7a.055.055 0 00-.036.014c-.008.007-.008.021-.008.028 0 .022.022.043.05.043.015 0 .022-.007.029-.014a.054.054 0 00.014-.029c-.007-.028-.028-.043-.05-.043zm0 .12a.084.084 0 01-.086-.078c0-.021 0-.043.021-.057.014-.014.036-.028.057-.028h.007a.08.08 0 01.079.078c0 .021 0 .043-.022.057a.065.065 0 01-.057.029zm-1.063-2.151c-.028 0-.05.021-.042.05 0 .021.021.042.043.042.02 0 .042-.021.042-.05a.041.041 0 00-.043-.042zm0 .128c-.042 0-.078-.036-.085-.078 0-.043.036-.079.078-.086h.008c.042 0 .078.036.085.079 0 .042-.036.078-.085.085zm3.186 2.6l-.342 1.098a1.572 1.572 0 01-.114-.52c0-.214.263-.834.263-.834.029.271.193.257.193.257zm-.414.2s-.042.1-.078.15c-.043.064-.086.135-.15.171-.07-.27.064-.741.136-.89.1-.25.27-.663.27-.663.093.035.15.064.3-.036l-.271.72-.207.548zm-.1-.648s-.192.491-.37.634c-.093-.15.114-.712.25-.969 0 0 .178-.335.206-.378a.128.128 0 00.064-.042c.022.057.043.1.1.156l-.25.599zm-.377.021c-.036.057-.143.15-.143.15.008-.428.243-.827.243-.827l.107-.178a.14.14 0 00.05-.014s.014.043.042.078c.029.036.071.05.121.05l-.17.292c.006.008-.172.342-.25.45zm-.107-.413s-.128.164-.214.192c0 0-.043-.32.228-.74l.072-.115s-.008.086.064.164c.057.072.128.064.128.064s-.25.414-.278.435zm.057-.656s-.257.45-.499.578c-.035-.186.007-.35.157-.563.014-.015.128-.193.128-.193s0 .093.072.143c.028.028.057.05.142.035zm-.684.129c-.029-.186.171-.392.3-.492.006.057.02.086.056.1 0 0 .072.035.114.021-.007.014-.007.043-.007.043s-.071.1-.093.114a.727.727 0 01-.37.214zm.3-.513s-.186.1-.236.12c-.05.022-.135.05-.192.03a.683.683 0 01.328-.321c.05.128.114.114.114.114s-.008.014-.015.057zm1.496.228c.114.107.107.278.135.42 0 .221-.064.435-.128.641-.05.186-.114.364-.164.556-.05.014-.114-.05-.121-.064-.079-.114-.029-.278.007-.399l.17-.492c.008-.035.086-.17-.035-.078-.092.05-.128.057-.22.029-.072-.029-.143-.15-.157-.221-.05.064-.122.1-.179.07-.057-.02-.092-.134-.092-.134s-.1.056-.185-.008c-.093-.07-.086-.213-.086-.213s-.1.057-.185-.008c-.079-.064-.064-.206-.064-.206s-.1.028-.15-.043c-.043-.071.014-.157.014-.157s-.114-.021-.128-.114c.05-.021.292-.15.442-.22a.596.596 0 00.043.441.348.348 0 00.306.157c.15.007.242-.136.392-.121.164-.022.3.05.385.164zm-3.748-3.563l1.097.378s-.107.12.1.299c0 0-.663-.15-.834-.278a1.57 1.57 0 01-.363-.4zm1.097.99c-.164-.035-.627-.2-.805-.413.071-.035.157-.021.228-.021.057 0 .17.028.17.028l.57.15.749.214c-.171.064-.185.12-.207.22 0 0-.441-.106-.705-.178zm-.677-.021c.22-.057.741.078.741.078l.641.164a.535.535 0 00.064.171s-.042 0-.07.022l-.435-.057c-.293-.043-.87-.214-.941-.378zm1.104.684s-.456-.05-.812-.3c0 0 .143-.028.207-.02.135.006.513.056.513.056l.335.036a.112.112 0 00-.029.121c.007.05.036.086.036.086s-.021.014-.036.035l-.214-.014zm.122.328c-.513-.036-.749-.257-.749-.257.079-.05.285-.057.285-.057.036-.007.52.029.52.029s-.05.05-.02.142c.02.1.092.15.092.15l-.128-.007zm-.107.292c-.271-.007-.42-.071-.549-.207.257-.12.77-.057.77-.057-.064.057-.064.093-.064.136 0 .078.07.135.07.135s-.206-.014-.227-.007zm-.285.207c.135-.136.392-.178.392-.178.021-.008.15 0 .15 0s.028.02.042.02c-.036.022-.05.1-.05.1-.007.043.007.072.05.108-.171.042-.456.085-.584-.05zm.22.313c.015-.064.093-.107.136-.135.043-.022.228-.114.235-.114.036.021.057.021.057.021s-.043.043.029.157a.692.692 0 01-.456.071zm-.356-2.273c0-.014-.021-.1.022-.135.185.071.363.128.548.192.207.071.42.15.599.278.1.107.242.207.264.356a.413.413 0 01-.086.392c-.078.128-.25.121-.335.242a.35.35 0 00-.05.342c.072.136.2.25.335.293-.15.078-.399.2-.442.22-.064-.064-.014-.163-.014-.163s-.1 0-.135-.079c-.029-.078.05-.142.05-.142s-.136-.072-.136-.178c0-.107.1-.15.1-.15s-.121-.086-.121-.2c0-.106.107-.15.107-.15s-.072-.092-.057-.149c.007-.057.085-.093.164-.1-.05-.05-.107-.178-.086-.256.029-.086.064-.114.157-.157.142-.043-.007-.064-.043-.078-.164-.057-.335-.1-.506-.157-.128-.028-.285-.093-.335-.22zm-.22 5.743l-.264.556-.35-.164.186-.385c.157.022.3.015.427-.007zm.263-.078l-.071.15-.157-.079c.093-.021.164-.043.228-.071zm-2.252.37l.4-.847a2.6 2.6 0 00.612.406l-.356.748-.656-.307zm-.15.663l-.868-.399a.781.781 0 00.306-.128.255.255 0 00.071-.05l.62.292-.128.285zm-3.576-.093c-.285.157-.67.057-.998-.106l1.34-.663.228.1a1.2 1.2 0 01-.57.67zm.05-.904l-1.105.562c.079-.327.214-.64.492-.77.028-.013.057-.02.093-.035l.52.242zm1.703-1.81c.456-.235.947-.015 1.325.27l-1.846.934c.05-.456.179-1.055.52-1.204zm-.428 1.468l1.931-.955c.022.498-.078 1.068-.563 1.304-.356.192-.969-.107-1.368-.35zM9.22 19.909a.432.432 0 01-.136 0 .296.296 0 01-.263.27.287.287 0 01-.328-.256.302.302 0 01.071-.235.81.81 0 01-.242-.485.806.806 0 01.877-.89.284.284 0 01.249-.2.287.287 0 01.328.256.332.332 0 01-.05.207c.114.121.185.27.206.449a.808.808 0 01-.712.884zm15.27-1.86a.658.658 0 00-.877-.285.627.627 0 00-.342.442c-.2.156-.242.285-.228.392l-3.783 1.93c-.015-.07-.022-.142-.043-.213 0 0-.42-1.482.47-1.938 0 0 .328-.121.506.128 0 0 .086.128.107.406.021.278.114.264.114.264s0-.2.043-.342c0 0 .014-.079.057-.107.043-.022.05.1.05.1s.035.37.156.456c0 0 .008-.15.207-.343 0 0 .171-.227-.121-.67-.292-.441-1.055-.555-1.468-.327-.399.192-1.012.812-.713 2.252-.683-.414-1.168-.271-1.517-.15-.649.228-.848 1.183-.912 1.632-.235-.079-.613-.171-1.012-.1a6013.527 6013.527 0 00-4.354-2.017l-.22-.1.299-.626-.278-.129-.043-.021a.535.535 0 00-.278-.363c.071-.157.014-.335-.128-.4a.13.13 0 00-.05-.014c.093-.213.014-.463-.185-.555-.2-.093-.442.007-.542.213a.114.114 0 00-.05-.028c-.142-.064-.313.007-.392.156-.278-.114-.62.029-.762.328a.685.685 0 00-.057.186c-.157-.036-.328.057-.406.22a.375.375 0 00.092.457.652.652 0 00-.106.163c-.143.307-.043.649.228.791-.072.157-.015.328.128.392a.135.135 0 00.057.015c-.093.213-.014.456.178.555.2.093.442-.007.549-.213.014.007.028.02.05.028.142.064.313-.007.384-.157.15.064.314.05.463-.021l.008-.014.042.021.278.128.278-.584.306.143 3.813 1.76c-.143.128-.385.42-.492.99-.1-.071-.164-.121-.178-.128-.043-.029-.984-.642-1.668.042-.684.684-.249 1.162-.249 1.162 0-.221.207-.527.463-.741a1.77 1.77 0 01.285-.186c.178-.085.42-.05.62.015.242.071.435.185.435.185.035.029.064.05.092.071l-2.18 1.119s-.093.057-.05.128l.007.014c.036.079.129.043.129.043l2.23-1.104a3.314 3.314 0 01-.057.527c-.022.071-.05.15-.079.228-.028.064-.057.136-.1.193a.539.539 0 01-.213.206 1.043 1.043 0 01-.207.086 1.88 1.88 0 01-.399.078c-.242.014-.47-.021-.598-.114 0 0 .128.627 1.09.485.677-.1.905-.67.983-1.026.036-.15.036-.371.036-.5.784.378 1.24.15 1.24.15.527-.2.812-.612.955-.947l3.854 1.781s.008 0 .008.007a.3.3 0 00.391-.142.284.284 0 00-.135-.385h-.014s-.157-.071-.428-.2l.136-.292.648.3.72-1.511-.2-.093c.007-.007.015-.007.015-.007.427-.192.79-.87.598-1.36-.185-.5-.477-.5-.477-.5-.271.043-.4-.042-.4-.042 0 .142.279.392.279.392s.106.07.064.092c-.043.021-.114-.007-.114-.007-.15-.043-.314-.171-.314-.171s-.064.064.143.25c.213.185.27.32.27.32.093.3-.192.485-.192.485-.898.441-1.86-.77-1.86-.77-.071-.078-.135-.15-.206-.22l3.833-1.896c.071.071.192.092.442.021a.651.651 0 00.563-.014.623.623 0 00.285-.855z" fill="#FABC42"/></svg>