<svg width="193" height="55" fill="none" xmlns="http://www.w3.org/2000/svg"><path d="M75.998 20.893c0 .501-.092.934-.274 1.299a2.88 2.88 0 01-.72.922c-.285.25-.61.444-.976.58a4.265 4.265 0 01-1.113.257v.94h-1.832v-.94h-.017c-.56-.057-1.034-.176-1.422-.359a2.983 2.983 0 01-.959-.734 2.909 2.909 0 01-.53-1.042A5.268 5.268 0 0168 20.5v-3.844c0-.49.086-.922.257-1.298.183-.376.417-.695.702-.957.297-.262.628-.461.993-.598a3.294 3.294 0 011.13-.205V13h1.833l.017.598a3.82 3.82 0 011.114.24c.365.136.69.335.976.597.296.25.53.564.702.94.182.376.274.808.274 1.298v4.22zm-1.73-4.374c0-.432-.131-.768-.394-1.008-.25-.239-.57-.375-.959-.41l.017 7.33c.149-.023.303-.069.463-.137.16-.068.302-.16.428-.273a1.204 1.204 0 00.445-.957v-4.545zm-3.185-1.418c-.411.057-.737.2-.977.427-.24.228-.36.559-.36.991v4.545c0 .216.04.41.12.58.08.16.183.297.309.41.126.115.268.206.428.274.16.057.32.091.48.103V15.1zm6.879 9.789V13h5.292v1.743h-3.442v3.229h2.997v1.76h-2.997v3.416h3.442v1.743h-5.292zm7.654 0v2.256h-1.559v-3.793l.703-.154c.32-.341.536-.734.65-1.178.114-.456.183-1.054.206-1.794L85.82 13h5.326v10.216h.754v3.93h-1.558v-2.255h-4.727zm1.661-4.68a17.709 17.709 0 01-.137 1.776c-.069.49-.2.9-.394 1.23h2.569v-8.508h-1.901l-.137 5.502zm6.189 4.68V13h5.291v1.743h-3.442v3.229h2.997v1.76h-2.997v3.416h3.442v1.743h-5.291zM102.951 13c1.096 0 1.896.285 2.398.854.514.57.771 1.487.771 2.75 0 .559-.052 1.066-.154 1.521-.103.456-.28.849-.531 1.18a2.556 2.556 0 01-.994.75c-.399.183-.907.274-1.524.274h-.753v4.562h-1.85V13h2.637zm-.787 1.743v3.827h.65c.571 0 .965-.16 1.182-.479.228-.33.343-.82.343-1.47 0-.58-.109-1.035-.326-1.366-.205-.341-.594-.512-1.164-.512h-.685zm8.979 10.147l-.463-2.476h-2.192c-.08.41-.16.825-.239 1.247l-.206 1.23h-1.884c.4-1.993.799-3.975 1.199-5.946.4-1.97.799-3.952 1.199-5.945h2.055l2.415 11.89h-1.884zm-1.61-9.14c-.114.82-.234 1.64-.36 2.46-.125.81-.262 1.635-.411 2.478h1.627l-.77-4.937h-.086zM120.372 13v11.89h-1.833V14.744h-1.798v4.578c0 .957-.034 1.76-.103 2.41-.068.648-.194 1.195-.377 1.64a3.024 3.024 0 01-.736 1.093c-.308.273-.708.518-1.199.734l-.702-1.366a2.88 2.88 0 00.719-.564 2.28 2.28 0 00.463-.752c.114-.296.188-.655.222-1.076a15.6 15.6 0 00.069-1.606V13h5.275zm2.143 11.89V13h1.832v4.579h.788c.616 0 1.124.085 1.524.256.411.16.736.393.976.7.251.308.428.684.531 1.128.103.444.154.945.154 1.503 0 1.242-.257 2.176-.77 2.802-.514.615-1.308.923-2.381.923h-2.654zm1.832-1.742h.702c.571 0 .959-.182 1.165-.546.217-.365.325-.832.325-1.401 0-.65-.114-1.122-.342-1.419-.217-.307-.611-.46-1.182-.46h-.668v3.826zm9.558 1.742v-5.193h-2.141v5.194h-1.832V13h1.832v4.972h2.141V13h1.833v11.89h-1.833zm8.244 0l-.462-2.476h-2.193l-.239 1.247-.206 1.23h-1.884c.4-1.993.8-3.975 1.199-5.946.4-1.97.799-3.952 1.199-5.945h2.055l2.415 11.89h-1.884zm-1.61-9.14a123.08 123.08 0 01-.771 4.937h1.627l-.77-4.936h-.086zm4.451 9.14l.668-3.775a3.88 3.88 0 01.376-1.076c.172-.33.412-.587.72-.769-.548-.228-.925-.57-1.131-1.025-.205-.467-.308-1.025-.308-1.674 0-1.174.28-2.062.839-2.666.571-.603 1.348-.905 2.329-.905h2.724v11.89h-1.85v-5.073h-.48c-.319 0-.616.125-.89.376-.263.25-.451.694-.565 1.332l-.565 3.366h-1.867zm3.648-10.147c-.56 0-.954.17-1.182.512-.217.33-.325.769-.325 1.316 0 .58.137.985.411 1.213.285.216.645.324 1.079.324h.736v-3.365h-.719zM72.11 45.535V40.34h-2.14v5.194h-1.833v-11.89h1.832v4.971h2.141v-4.971h1.833v11.89H72.11zm8.244 0l-.462-2.478H77.7c-.08.41-.16.826-.24 1.247l-.206 1.23H75.37c.4-1.993.8-3.974 1.2-5.945.399-1.97.798-3.952 1.198-5.945h2.055l2.415 11.89h-1.884zm-1.61-9.14c-.114.82-.234 1.64-.36 2.46a123.56 123.56 0 01-.41 2.477H79.6l-.77-4.938h-.086zm10.839-2.751v11.89H87.75V35.387h-1.798v4.579c0 .957-.034 1.76-.103 2.409-.068.65-.194 1.196-.376 1.64a3.032 3.032 0 01-.737 1.093c-.308.274-.708.519-1.199.735l-.702-1.367a2.87 2.87 0 00.72-.563c.194-.206.348-.456.462-.752.114-.296.188-.655.223-1.076a15.7 15.7 0 00.068-1.606v-6.834h5.275zm5.979 2.904c0-.33-.074-.626-.223-.888-.137-.262-.405-.393-.805-.393a.863.863 0 00-.53.154.986.986 0 00-.326.358c-.068.137-.12.296-.154.479a3.58 3.58 0 00-.034.478v5.98c0 .307.074.586.222.837.16.239.428.359.805.359.377 0 .645-.126.805-.376.16-.262.24-.575.24-.94v-6.048zm1.867 5.945c0 1.037-.234 1.823-.702 2.358-.469.524-1.205.786-2.21.786-1.004 0-1.735-.25-2.192-.752-.457-.512-.685-1.247-.685-2.203v-5.98c0-.467.052-.894.154-1.281.114-.388.286-.718.514-.991a2.15 2.15 0 01.89-.65c.377-.159.823-.239 1.336-.239.548 0 1.005.074 1.37.222.377.137.674.342.891.615.228.274.388.604.48.991.102.388.154.826.154 1.316v5.808zm3.865-7.107v10.149h-1.85V33.644h5.155v1.742h-3.305zm7.898 1.162c0-.33-.074-.626-.223-.888-.137-.262-.405-.393-.805-.393a.863.863 0 00-.531.154.986.986 0 00-.325.358c-.068.137-.12.296-.154.479a3.58 3.58 0 00-.034.478v5.98c0 .307.074.586.222.837.16.239.428.359.805.359.377 0 .645-.126.805-.376.16-.262.24-.575.24-.94v-6.048zm1.867 5.945c0 1.037-.234 1.823-.703 2.358-.468.524-1.204.786-2.209.786-1.005 0-1.735-.25-2.192-.752-.457-.512-.685-1.247-.685-2.203v-5.98c0-.467.051-.894.154-1.281.114-.388.286-.718.514-.991.228-.285.525-.502.891-.65.376-.159.822-.239 1.335-.239.548 0 1.005.074 1.37.222.377.137.674.342.891.615.228.274.388.604.48.991.102.388.154.826.154 1.316v5.808zm5.851-5.586c0-.547-.108-.94-.325-1.179-.217-.24-.577-.359-1.079-.359h-.582v3.075h.599c.48 0 .828-.13 1.045-.392.228-.262.342-.644.342-1.145zm.103 4.869c0-.558-.103-.974-.308-1.247-.206-.274-.565-.41-1.079-.41h-.702v3.69h.736c.297 0 .531-.051.702-.154.183-.114.32-.262.411-.444a1.6 1.6 0 00.189-.65c.034-.25.051-.512.051-.785zm.394-2.46c.525.17.885.495 1.079.974.194.478.291 1.025.291 1.64 0 1.241-.268 2.152-.805 2.733-.525.581-1.336.872-2.432.872h-2.466V33.644h2.603c1.051 0 1.81.279 2.278.837.48.547.719 1.344.719 2.392 0 .546-.097 1.025-.291 1.435-.182.41-.508.717-.976.922v.086zm7.65 6.219l-.462-2.478h-2.192c-.08.41-.16.826-.24 1.247l-.206 1.23h-1.884c.4-1.993.8-3.974 1.199-5.945.4-1.97.799-3.952 1.199-5.945h2.055l2.415 11.89h-1.884zm-1.61-9.14a130.365 130.365 0 01-.77 4.937h1.627l-.771-4.938h-.086zm4.451 9.14l.668-3.776c.08-.399.205-.758.377-1.076.171-.33.411-.587.719-.77-.548-.227-.925-.569-1.13-1.024-.206-.467-.309-1.025-.309-1.675 0-1.173.28-2.061.839-2.665.571-.603 1.348-.905 2.33-.905h2.723v11.89h-1.85v-5.073h-.48c-.319 0-.616.125-.89.375-.263.25-.451.695-.565 1.333l-.565 3.366h-1.867zm3.648-10.149c-.56 0-.954.171-1.182.513-.217.33-.325.769-.325 1.315 0 .581.137.986.411 1.213.285.217.645.325 1.079.325h.736v-3.366h-.719zm11.295-1.845c.491 0 .914.069 1.268.205.354.137.645.33.873.581.24.24.411.53.514.872.114.33.171.694.171 1.093l-1.798.461c0-.433-.086-.786-.257-1.06-.16-.272-.422-.41-.788-.41a.941.941 0 00-.531.138.986.986 0 00-.325.358c-.069.137-.12.29-.154.462-.023.16-.035.313-.035.46v6.032c0 .114.012.239.035.376.023.136.068.267.137.392.08.114.182.211.308.291.137.08.308.12.514.12.685 0 1.033-.49 1.044-1.47.309.057.617.108.925.154.309.034.617.074.925.12-.023.9-.274 1.611-.753 2.135-.469.524-1.165.786-2.09.786-.982 0-1.707-.245-2.175-.734-.468-.502-.702-1.23-.702-2.187v-5.929c0-.444.046-.86.137-1.247.103-.398.268-.746.497-1.042a2.36 2.36 0 01.89-.7c.377-.171.834-.257 1.37-.257zm10.451.103v11.89h-1.832V35.387h-1.798v4.579c0 .957-.035 1.76-.103 2.409-.069.65-.194 1.196-.377 1.64a3.025 3.025 0 01-.736 1.093c-.309.274-.708.519-1.199.735l-.702-1.367a2.87 2.87 0 00.719-.563 2.26 2.26 0 00.462-.752c.115-.296.189-.655.223-1.076.046-.433.069-.969.069-1.606v-6.834h5.274zm4.729 6.167l1.422-6.167h1.73l-2.398 9.191c-.16.65-.343 1.162-.548 1.538-.194.376-.405.66-.634.854a1.572 1.572 0 01-.702.376 4.376 4.376 0 01-.788.102h-.668V44.22h.428c.286 0 .514-.091.686-.273.182-.194.336-.49.462-.889.011-.011.023-.045.034-.102l.034-.171a1.65 1.65 0 00.052-.188c.023-.057.04-.097.051-.12l-2.517-8.815h1.798l1.473 6.15h.085zm8.438 5.724V40.34h-.445c-.457 0-.805.13-1.045.393-.228.25-.405.689-.531 1.315l-.342 1.743c-.115.58-.235 1.162-.36 1.743h-1.833l.822-3.964c.126-.58.309-1.048.548-1.4a2.03 2.03 0 011.011-.77v-.034c-.331-.137-.628-.381-.891-.735-.251-.364-.434-.837-.548-1.418-.125-.592-.251-1.178-.376-1.76a345.15 345.15 0 01-.377-1.793h1.712l.737 3.365c.068.32.16.587.274.803.114.206.24.37.377.496.137.125.279.216.428.273.16.046.314.069.462.069h.377v-5.023h1.85v5.023h.308c.388 0 .719-.114.993-.342.274-.228.48-.66.617-1.299.022-.113.068-.33.137-.649.08-.319.159-.66.239-1.025l.223-1.042c.069-.319.114-.535.137-.65h1.713c-.115.605-.24 1.203-.377 1.795-.126.58-.251 1.167-.377 1.76-.125.58-.314 1.053-.565 1.417-.251.354-.542.598-.873.735l-.018.017c.434.16.771.422 1.011.786.251.353.439.82.565 1.401l.822 3.964h-1.832l-.703-3.486c-.125-.638-.319-1.082-.582-1.332-.262-.25-.594-.376-.993-.376h-.445v5.194h-1.85zm9.791-1.743h.702a.534.534 0 00.24-.051c.502-.046.833-.24.993-.581.171-.353.257-.792.257-1.316 0-.649-.114-1.122-.343-1.418-.217-.307-.611-.461-1.181-.461h-.668v3.827zm0-5.57h.787c.617 0 1.125.086 1.525.257.411.16.736.393.976.7.251.308.428.683.531 1.128.103.444.154.945.154 1.503 0 1.242-.257 2.176-.771 2.802-.514.615-1.307.923-2.38.923h-2.655V33.644h5.206v1.742h-3.373v2.836zm9.866 7.313l-.462-2.478h-2.192c-.08.41-.16.826-.24 1.247l-.206 1.23h-1.884c.4-1.993.8-3.974 1.199-5.945.4-1.97.799-3.952 1.199-5.945h2.055L188 45.534h-1.884zm-1.61-9.14a130.365 130.365 0 01-.77 4.937h1.627l-.771-4.938h-.086zM26.561 45.342C15.874 45.643 6.96 37.237 6.659 26.55 6.345 15.863 14.763 6.96 25.45 6.646c10.687-.3 19.591 8.105 19.904 18.793.3 10.687-8.117 19.602-18.793 19.903zm25.427-20.089C51.583 10.896 39.611-.405 25.253.012 10.907.428-.405 12.389.012 26.747c.416 14.358 12.377 25.658 26.735 25.242 14.357-.406 25.658-12.378 25.241-26.736z" fill="#fff"/><path d="M25.994 44.89c-10.282 0-18.572-8.058-18.862-18.34-.3-10.42 7.92-19.128 18.33-19.429.185 0 .37-.012.555-.012C36.3 7.11 44.59 15.17 44.88 25.45a18.718 18.718 0 01-5.14 13.5c-3.463 3.671-8.152 5.767-13.189 5.918a9.285 9.285 0 01-.556.023zm0 .464c.186 0 .37 0 .567-.012 10.676-.3 19.094-9.216 18.793-19.903-.301-10.49-8.904-18.804-19.337-18.793h-.567C14.763 6.96 6.357 15.863 6.658 26.55c.3 10.502 8.904 18.804 19.336 18.804z" fill="#fff"/><path d="M26.006 7.584c-.174 0-.36 0-.533.012-10.154.29-18.167 8.788-17.877 18.93.29 10.028 8.371 17.89 18.398 17.89.174 0 .36 0 .533-.012a18.308 18.308 0 0012.864-5.766c3.38-3.578 5.164-8.255 5.013-13.165-.29-10.027-8.371-17.889-18.398-17.889zm-.012 38.245a19.727 19.727 0 01-13.79-5.593 19.66 19.66 0 01-6.01-13.663 19.72 19.72 0 015.396-14.172 19.676 19.676 0 0113.848-6.206c.197-.012.383-.012.58-.012a19.727 19.727 0 0113.79 5.593c3.728 3.612 5.858 8.464 6.009 13.663.15 5.291-1.76 10.328-5.396 14.183a19.72 19.72 0 01-13.848 6.207c-.197-.012-.393 0-.579 0z" fill="#0066B3"/><path d="M44.358 40.757l-.822-1.273-.602.752 1.424.521zm-2.906-.324a2.63 2.63 0 01-.14-.058c-.034-.023-.045-.046-.057-.07 0-.023.011-.057.035-.104a3.47 3.47 0 01.127-.162c.058-.07.104-.127.139-.162l.081-.08c.023-.024.046-.024.058-.024.011 0 .035.011.058.011l.671.244.788-.996-.382-.579a.253.253 0 00-.035-.058v-.07c.011-.023.023-.057.058-.092.023-.035.058-.093.104-.15a.841.841 0 01.127-.14c.035-.034.058-.046.093-.046.023 0 .058.012.081.035.023.023.058.07.093.127l1.702 2.687.034.069c0 .023 0 .046-.011.081a.4.4 0 01-.07.104c-.034.047-.07.105-.127.174-.07.081-.116.15-.15.185l-.105.104c-.035.024-.058.024-.08.024-.024 0-.059 0-.082-.012l-3.01-1.042zm3.15-3.045a.67.67 0 00.196.07.33.33 0 00.185-.024.504.504 0 00.174-.116.731.731 0 00.174-.243l.22-.382-.846-.475-.22.394a.738.738 0 00-.115.463.343.343 0 00.08.174c.024.058.082.104.151.139zm-.302.637a.994.994 0 01-.498-.648 1.194 1.194 0 01.012-.452c.035-.162.116-.36.243-.59l.44-.777a.17.17 0 01.116-.104c.046-.023.104-.011.173.035l2.56 1.436c.069.034.104.08.115.139a.221.221 0 01-.023.15l-.938 1.667-.035.035c-.011 0-.034.012-.058.012a.214.214 0 01-.08-.023c-.035-.012-.07-.035-.116-.058a.404.404 0 01-.105-.07.309.309 0 00-.07-.058c-.01-.023-.022-.035-.022-.046 0-.023 0-.035.011-.046l.707-1.25-.73-.418-.278.487a2.062 2.062 0 01-.312.44.99.99 0 01-.336.22.8.8 0 01-.37.046.98.98 0 01-.406-.127zm.764-3.277c-.023-.012-.035-.012-.046-.035-.012-.011-.012-.035-.012-.058s0-.07.012-.104c.011-.046.023-.104.058-.174.023-.07.046-.127.058-.173.011-.047.035-.07.058-.105.011-.023.034-.034.057-.046.024-.011.047-.011.07-.011l.799.011c.116 0 .208 0 .29-.011a.554.554 0 00.208-.07.368.368 0 00.139-.127.777.777 0 00.092-.197l.047-.128-1.285-.428c-.024-.012-.035-.011-.035-.035A.089.089 0 0145.55 33c0-.023 0-.058.011-.104.012-.046.023-.092.047-.162.023-.058.046-.116.057-.15.012-.047.035-.07.058-.093.012-.023.035-.035.047-.035h.057l1.286.429.046-.128a.785.785 0 00.035-.22.54.54 0 00-.035-.197c-.035-.057-.07-.127-.127-.173a1.652 1.652 0 00-.209-.174l-.648-.475c-.023-.011-.035-.034-.047-.046-.011-.023-.011-.046-.011-.07 0-.034 0-.069.011-.115.012-.047.024-.105.047-.174a.745.745 0 01.07-.162c.01-.046.034-.07.046-.093l.046-.046h.046c.012 0 .023.012.035.012.012 0 .023.011.035.023.011.011.035.023.046.035a.307.307 0 01.07.057l.567.44c.104.081.197.15.255.22.07.07.127.128.162.197.034.07.07.128.08.197.024.07.024.139.035.208.035-.046.082-.092.128-.139a.42.42 0 01.174-.092c.069-.023.15-.046.231-.058.093-.012.197-.023.324-.023h.637c.058 0 .104 0 .14.011.034 0 .057.012.08.012.023.012.035.012.035.035.011.011.011.034.011.058 0 .023-.011.058-.011.104-.012.046-.023.104-.046.162a.75.75 0 01-.07.162c-.011.046-.035.081-.058.093-.011.023-.035.034-.058.046-.023 0-.034.012-.07.012l-.74-.024c-.104 0-.197 0-.267.012a.794.794 0 00-.196.058.368.368 0 00-.14.127.624.624 0 00-.092.197l-.046.127 1.227.383a.16.16 0 01.046.034c.012.012.012.035.012.058s0 .058-.012.104c-.011.035-.023.093-.046.15-.012.059-.046.117-.058.151-.023.035-.035.07-.058.093-.011.023-.034.035-.046.046a.035.035 0 01-.046 0l-1.205-.405-.046.127a.777.777 0 00-.035.209c0 .058.012.127.047.185.023.058.07.116.116.174.057.058.115.104.208.162l.602.428c.023.012.035.035.046.047.012.011.023.034.023.07 0 .022 0 .057-.011.103-.012.047-.023.105-.046.174-.023.07-.047.116-.058.15-.012.047-.035.07-.047.093-.011.023-.034.035-.046.047h-.046a.49.49 0 00-.081-.035 1.138 1.138 0 01-.116-.081l-.498-.382a2.235 2.235 0 01-.231-.197c-.058-.07-.116-.128-.151-.186a.586.586 0 01-.081-.173c-.023-.058-.023-.128-.035-.197-.058.058-.104.116-.162.15a.533.533 0 01-.197.105.748.748 0 01-.243.058 2.732 2.732 0 01-.347.023l-.718.011h-.185c-.035-.011-.035-.011-.047-.011zm2.304-5.187a3.44 3.44 0 01-.451-.29 1.182 1.182 0 01-.266-.278.61.61 0 01-.116-.29 1.734 1.734 0 010-.347.58.58 0 01.023-.139.568.568 0 01.046-.127c.012-.035.035-.07.047-.104a.252.252 0 01.046-.058c.011-.012.023-.023.046-.023.012 0 .035-.012.058-.012h.093c.034 0 .08.012.139.012a.903.903 0 01.208.046c.046.023.058.046.058.081a.087.087 0 01-.023.046.254.254 0 00-.047.058c-.011.024-.034.058-.046.093-.011.035-.023.07-.035.127a.162.162 0 000 .104c0 .035.012.058.035.093.012.035.047.058.081.093a.99.99 0 00.15.116l2.398-.81c.057-.013.104-.024.139-.024.034 0 .057.011.08.035a.23.23 0 01.024.104c0 .046-.012.116-.023.197-.012.08-.024.139-.035.197-.012.046-.023.08-.035.115a.14.14 0 01-.058.058.797.797 0 01-.093.035l-1.076.336-.348.104c-.115.035-.231.058-.347.093v.011c.104.046.22.104.324.162.104.058.22.116.324.174l.973.521c.023.012.046.023.058.046.011.012.023.035.023.07s.012.07 0 .116c0 .046-.011.115-.023.185a1.816 1.816 0 01-.035.185c-.011.046-.023.081-.046.093-.023.023-.046.023-.07.023-.023-.012-.057-.023-.104-.047l-2.096-1.18zm-.555-2.721c-.012 0-.035 0-.047-.012a.124.124 0 01-.034-.058c-.012-.023-.012-.058-.024-.104-.011-.047-.011-.093-.011-.162v-.162c0-.047.011-.081.011-.105.012-.023.012-.046.035-.057.012-.012.023-.012.046-.012l2.721-.081-.023-.73a16.028 16.028 0 01-1.053-.115c-.301-.047-.556-.081-.776-.14a2.392 2.392 0 01-.533-.173 1.012 1.012 0 01-.324-.231.745.745 0 01-.174-.29 1.244 1.244 0 01-.058-.37c0-.024 0-.047.012-.07a.16.16 0 01.035-.046c.023-.012.046-.024.08-.024.036-.011.082-.011.128-.011h.186c.046 0 .08.011.104.011.023.012.046.012.058.035.011.012.011.035.011.047a.32.32 0 00.035.15c.023.046.07.093.127.139.07.046.162.093.278.127.116.035.278.081.463.116.197.035.429.07.695.104.278.035.602.058.984.093.081.012.15.023.185.058a.192.192 0 01.058.139l.047 1.656c0 .057-.012.115-.047.15a.23.23 0 01-.162.058l-3.033.07zm.243-3.462c-.046.011-.081.011-.104.011-.035 0-.058.012-.081 0-.024 0-.047 0-.058-.011-.012-.012-.035-.012-.058-.035a.342.342 0 01-.093-.093c-.035-.046-.08-.104-.127-.174-.046-.069-.081-.162-.128-.254a2.162 2.162 0 01-.092-.325 1.692 1.692 0 01-.012-.636 1.17 1.17 0 01.22-.521c.116-.15.266-.29.463-.394.197-.104.429-.197.707-.243a2.21 2.21 0 01.775-.035c.232.035.44.104.614.209.174.104.313.243.428.428.116.174.197.37.244.602.011.093.023.185.023.278 0 .093 0 .174-.012.255-.011.07-.023.15-.046.208-.023.07-.046.104-.058.139-.023.023-.035.046-.046.058a.256.256 0 01-.058.035.167.167 0 01-.081.023c-.035.011-.07.023-.116.023-.058.012-.093.012-.139.023h-.093a.088.088 0 01-.057-.023c-.012-.012-.024-.023-.024-.035 0-.023 0-.058.024-.104.023-.046.046-.104.069-.174a1.051 1.051 0 00.046-.567.757.757 0 00-.428-.556 1.037 1.037 0 00-.394-.093c-.15-.011-.312 0-.486.035a1.795 1.795 0 00-.498.162.865.865 0 00-.313.243.656.656 0 00-.15.313.993.993 0 000 .37c.023.116.058.22.104.302.046.08.093.15.139.208.046.058.081.104.127.14.035.034.058.068.058.08v.046c0 .012-.023.024-.035.035a.563.563 0 01-.08.035c-.058-.023-.105 0-.174.012zm-.128-8.025l-.162-.312a1.88 1.88 0 00-.185-.278.506.506 0 00-.174-.116.331.331 0 00-.185-.011.668.668 0 00-.197.069.61.61 0 00-.162.127.427.427 0 00-.08.37c.01.082.057.175.115.29l.174.325.856-.464zm-2.095 1.923c-.012.011-.035.011-.047.011-.011 0-.034-.011-.058-.035-.023-.023-.034-.046-.069-.08-.023-.035-.058-.082-.081-.14a.564.564 0 01-.07-.15c-.023-.047-.023-.07-.034-.104v-.07c0-.011.011-.023.035-.035l1.111-.602-.127-.22a.572.572 0 00-.14-.197.38.38 0 00-.15-.08 1.025 1.025 0 00-.197-.024c-.07 0-.15.012-.243.023l-.764.128h-.058c-.023 0-.046-.023-.058-.035-.023-.023-.046-.046-.07-.093a1.58 1.58 0 01-.092-.162c-.035-.07-.07-.127-.08-.173a.546.546 0 00-.036-.105c0-.023 0-.046.012-.057.012-.012.012-.024.023-.024.012-.011.035-.011.058-.023.023-.011.07-.011.116-.023l.706-.093c.093-.011.174-.023.255-.023.07 0 .139.012.208.023.07.012.128.035.174.058a.441.441 0 01.15.104 1.44 1.44 0 01-.034-.312c0-.093.023-.185.058-.266a.724.724 0 01.15-.232c.07-.07.15-.127.243-.185.14-.07.267-.116.406-.128a.906.906 0 01.393.058c.128.047.243.14.37.244.117.115.244.289.371.532l.394.73a.178.178 0 01.023.15c-.011.046-.058.093-.127.127l-2.721 1.483zm-.36-5.535l-1.435.498.59.752.846-1.25zm-1.007 2.744c-.034.058-.07.093-.092.127a.105.105 0 01-.081.035c-.023 0-.058-.023-.093-.058a2.094 2.094 0 01-.127-.15c-.058-.07-.093-.128-.128-.162-.023-.047-.046-.07-.057-.093-.012-.023-.012-.046-.012-.07 0-.011.012-.034.023-.057l.394-.603-.776-.995-.66.231c-.023.012-.046.012-.07.012a.089.089 0 01-.057-.023.345.345 0 01-.081-.07c-.035-.034-.07-.08-.116-.139-.047-.058-.081-.116-.104-.15-.024-.035-.035-.07-.024-.104 0-.024.024-.047.058-.07.035-.023.081-.035.14-.058l3.01-1.019c.034-.011.058-.011.08-.011.024 0 .047.011.07.023.023.023.058.046.093.093.035.046.08.092.139.162.07.08.116.15.15.197a.47.47 0 01.07.127.226.226 0 01.011.08c0 .024-.011.047-.034.082l-1.726 2.663zm-1.389-4.979a.59.59 0 00.104-.15c.023-.058.035-.105.023-.162a.387.387 0 00-.058-.163 1.105 1.105 0 00-.162-.196l-.254-.244-.602.637.277.267a.62.62 0 00.197.139.465.465 0 00.174.034c.058 0 .104-.023.162-.046.046-.035.093-.07.139-.116zm-.868 1.181a.504.504 0 00.115-.173c.023-.058.035-.128.023-.197a.593.593 0 00-.08-.209 1.107 1.107 0 00-.197-.231l-.29-.278-.66.706.36.336a.6.6 0 00.196.139.366.366 0 00.185.046.524.524 0 00.186-.035.356.356 0 00.162-.104zm.544.463c-.081.093-.174.15-.255.209a.873.873 0 01-.278.092 1.207 1.207 0 01-.29 0c-.092-.011-.185-.046-.289-.08-.092-.047-.185-.093-.278-.163a4.263 4.263 0 01-.29-.231l-.648-.614a.165.165 0 01-.069-.139c-.012-.046.011-.104.07-.162l2.014-2.154a.198.198 0 01.15-.08c.059 0 .093.022.14.057l.625.58c.15.138.266.277.347.393.081.127.14.243.162.359a.71.71 0 01-.023.347.889.889 0 01-.208.336 1.167 1.167 0 01-.186.15c-.069.035-.127.07-.196.081a.684.684 0 01-.22.012.518.518 0 01-.22-.058.821.821 0 01.127.243.521.521 0 01.035.267.797.797 0 01-.058.277c-.023.116-.093.197-.162.278zm-2.79-3.288c.103-.15.173-.29.23-.428a.999.999 0 00.082-.394.707.707 0 00-.093-.347.928.928 0 00-.3-.301.875.875 0 00-.406-.151.806.806 0 00-.37.058.884.884 0 00-.325.231c-.104.105-.197.22-.29.36-.103.15-.173.3-.23.44a1.023 1.023 0 00-.093.393c0 .127.034.243.092.347a.928.928 0 00.301.301.875.875 0 00.406.151.805.805 0 00.37-.058c.116-.058.232-.127.336-.231.104-.116.208-.232.29-.371zm.624.37a2.19 2.19 0 01-.497.568 1.5 1.5 0 01-.568.3 1.418 1.418 0 01-.625.013 2.124 2.124 0 01-.66-.278 2.312 2.312 0 01-.521-.464 1.234 1.234 0 01-.243-.532 1.407 1.407 0 01.046-.614c.07-.22.174-.451.348-.695.15-.231.312-.416.486-.555a1.5 1.5 0 01.567-.301c.197-.058.405-.058.625-.012.22.046.429.139.66.278.22.139.383.29.51.463.127.162.208.336.243.533.035.185.023.393-.046.613-.058.209-.162.44-.325.684zm-2.651-3.265l-.058.116c-.023.035-.035.058-.058.07-.011.011-.035.023-.046.034-.012 0-.035 0-.046-.011l-1.02-.463-1.146 2.477c0 .012-.011.024-.034.035-.012 0-.035.012-.07 0-.023 0-.058-.011-.104-.023a.837.837 0 01-.162-.07c-.058-.023-.104-.057-.15-.069a.794.794 0 01-.082-.058c-.023-.023-.035-.035-.035-.058-.011-.011 0-.034 0-.046l1.286-2.79a.253.253 0 01.116-.128c.046-.023.104-.011.162.012l1.459.671c.023.012.046.047.046.093a.716.716 0 01-.058.208zm-4.041-.162a2.83 2.83 0 00.093-.474c.011-.151 0-.278-.035-.394a.652.652 0 00-.197-.301.988.988 0 00-.382-.197.787.787 0 00-.428-.023.844.844 0 00-.336.173 1.033 1.033 0 00-.243.325c-.07.127-.116.266-.162.416a2.737 2.737 0 00-.093.487c-.012.15 0 .278.035.405.034.116.104.22.197.301.092.081.22.15.382.197a.918.918 0 00.428.023.779.779 0 00.336-.174c.092-.08.173-.196.243-.324.058-.139.116-.29.162-.44zm.695.15c-.07.267-.174.499-.301.695a1.57 1.57 0 01-.452.464c-.174.104-.37.173-.59.196a1.9 1.9 0 01-.707-.069 1.902 1.902 0 01-.636-.29 1.07 1.07 0 01-.383-.44c-.092-.173-.127-.37-.139-.602 0-.231.035-.486.116-.775a2.31 2.31 0 01.301-.683 1.4 1.4 0 01.452-.452 1.27 1.27 0 01.59-.197c.22-.023.452 0 .718.07.243.07.463.162.626.29.162.115.3.265.382.427.092.174.139.371.139.591 0 .243-.035.498-.116.776zm-4.354.591c0 .023-.011.035-.023.047a.088.088 0 01-.058.023c-.023.011-.058.011-.104.011-.046 0-.104 0-.162-.011-.07-.012-.128-.012-.162-.023a.54.54 0 01-.105-.035c-.023-.012-.046-.023-.046-.035-.011-.011-.011-.023-.011-.046l.254-2.71-.717-.07c-.093.395-.174.73-.244 1.02-.08.29-.15.544-.231.752a2.81 2.81 0 01-.232.498 1.149 1.149 0 01-.266.301.764.764 0 01-.313.14 1.362 1.362 0 01-.382.01.164.164 0 01-.07-.022.09.09 0 01-.046-.047c-.011-.023-.011-.046-.011-.08V5.14c.011-.07.011-.139.023-.185.012-.047.023-.081.023-.104.012-.024.023-.047.035-.047.011-.011.034-.011.046-.011.058.011.104 0 .162-.012a.33.33 0 00.15-.116 1.98 1.98 0 00.163-.254c.058-.116.116-.267.174-.452a7.82 7.82 0 00.185-.683c.07-.266.139-.59.22-.961.023-.093.046-.15.08-.185.036-.035.082-.047.14-.035l1.655.162a.265.265 0 01.14.07c.034.034.046.092.034.161l-.3 3.057zM24.13 2.744l-.37 1.47.96-.069-.59-1.4zm1.737 2.362c.023.058.046.104.046.15.012.036 0 .059-.012.082-.011.023-.046.035-.092.046-.046.012-.116.012-.209.023-.08.012-.15.012-.208.012-.046 0-.093 0-.116-.012a.088.088 0 01-.058-.023.253.253 0 01-.034-.058l-.278-.66-1.25.081-.163.672c-.011.023-.011.046-.023.07l-.046.046a.231.231 0 01-.104.023c-.047.011-.105.011-.186.023-.08 0-.139.012-.185.012-.046 0-.081-.012-.093-.035-.023-.023-.034-.046-.023-.081 0-.035.012-.081.023-.15l.822-3.07c.012-.022.023-.057.035-.069.012-.023.035-.034.058-.046.035-.011.07-.023.127-.023.058-.012.128-.012.209-.023.104-.012.185-.012.243-.012.058 0 .104 0 .15.012a.563.563 0 01.081.035.247.247 0 01.047.08l1.239 2.895zm-3.74.521v.047c-.012.011-.023.034-.046.046-.024.012-.058.035-.093.046-.046.012-.093.035-.162.047-.07.011-.116.034-.162.034-.047.012-.081.012-.105.012a.088.088 0 01-.057-.023c-.012-.012-.024-.023-.024-.047l-.335-1.32-1.228.301.336 1.332v.046c-.012.012-.023.035-.046.047-.023.011-.058.034-.093.046-.046.012-.092.035-.162.046-.07.012-.116.023-.162.035-.046.012-.081.012-.104.012a.089.089 0 01-.058-.024.152.152 0 01-.035-.046l-.776-3.091v-.047c.012-.011.023-.034.047-.046.023-.012.058-.035.104-.046.046-.012.092-.035.162-.047.07-.011.116-.023.162-.034.046-.012.081-.012.104 0 .023 0 .047.011.058.023.012.011.023.023.023.046l.301 1.204 1.228-.312-.301-1.205v-.046c.011-.011.023-.035.046-.046.023-.012.058-.035.093-.046.046-.012.092-.035.162-.047.07-.023.115-.023.162-.035.046 0 .08-.011.104 0 .023 0 .046.012.058.024l.035.034.764 3.08zm-8.383.313l-.301.185c-.128.081-.209.15-.266.209a.69.69 0 00-.105.173c-.011.058-.023.128 0 .186.012.069.047.127.081.185a.434.434 0 00.14.15.605.605 0 00.173.081.438.438 0 00.208-.011c.081-.023.174-.07.29-.14l.313-.196-.533-.822zm2.05 1.968c.01.012.01.035.01.047 0 .011-.01.034-.034.058-.011.023-.046.046-.08.069-.036.035-.082.058-.14.093-.058.034-.104.058-.139.08-.046.024-.07.035-.104.035a.074.074 0 01-.07 0c-.011-.011-.023-.011-.034-.034L14.53 7.19l-.22.14a.676.676 0 00-.185.15.405.405 0 00-.07.162c-.011.058-.011.127-.011.197.011.07.023.15.046.243l.174.753v.07c0 .022-.012.045-.035.069a79.45 79.45 0 00-.08.08c-.036.024-.094.059-.151.105-.07.046-.128.07-.163.092-.046.024-.069.035-.104.035-.023.012-.046.012-.058 0-.011 0-.023-.011-.034-.023a.089.089 0 01-.024-.058.71.71 0 01-.034-.116l-.14-.694c-.022-.093-.022-.174-.034-.255-.011-.07 0-.14 0-.209a.866.866 0 01.046-.185.408.408 0 01.093-.15c-.104.034-.208.046-.301.058a.986.986 0 01-.266-.035.653.653 0 01-.232-.128.987.987 0 01-.197-.231 1.139 1.139 0 01-.162-.394.755.755 0 01.035-.393 1.3 1.3 0 01.22-.383c.104-.127.278-.254.51-.405l.706-.44a.175.175 0 01.15-.035.275.275 0 01.14.105l1.643 2.593zm-5.5.73l.59 1.39.718-.638-1.309-.752zm2.801.822c.058.035.105.058.128.08.034.024.046.047.046.07 0 .024-.023.058-.058.093a2.075 2.075 0 01-.15.139c-.07.058-.116.104-.162.139-.047.035-.07.046-.093.07-.023.011-.046.011-.058.011-.023 0-.035-.012-.058-.023l-.625-.36-.95.846.278.637c.012.023.012.046.023.07 0 .023 0 .046-.011.069a.372.372 0 01-.07.08c-.034.036-.08.07-.127.128-.058.047-.104.093-.15.116a.185.185 0 01-.093.035c-.023 0-.046-.023-.07-.058a.508.508 0 01-.069-.139l-1.204-2.93a.215.215 0 01-.023-.08c0-.024.011-.047.023-.07.023-.023.046-.058.08-.104.036-.035.094-.081.163-.14.081-.069.139-.126.185-.161.047-.035.093-.07.116-.081.035-.012.058-.023.081-.023s.046.023.081.034l2.767 1.552zm-2.651 2.686c.011.012.023.023.023.046 0 .024 0 .035-.011.07-.012.023-.024.058-.047.092-.023.035-.058.082-.092.14-.047.046-.082.092-.116.127-.035.035-.058.058-.081.07a.195.195 0 01-.058.022c-.023 0-.035 0-.046-.011l-1.066-.857-.787.984 1.065.857c.012.012.023.023.023.035 0 .011 0 .035-.011.07-.012.022-.023.057-.047.092a2.111 2.111 0 01-.104.139c-.046.058-.08.092-.104.127a.368.368 0 01-.081.07.195.195 0 01-.058.023c-.023 0-.035 0-.046-.012l-2.49-1.99a.16.16 0 01-.034-.047c0-.011 0-.034.011-.069.012-.023.023-.058.046-.093.024-.034.058-.08.093-.139.046-.057.081-.092.104-.127.035-.035.058-.058.081-.07.024-.011.047-.023.058-.023.023 0 .035 0 .047.012l.972.776.788-.984-.973-.776c-.012-.012-.023-.023-.023-.046 0-.024 0-.035.011-.07.012-.023.024-.058.047-.093a2.11 2.11 0 01.104-.139c.046-.046.08-.092.116-.127a.369.369 0 01.08-.07c.024-.011.047-.023.059-.023.023 0 .034 0 .046.012l2.5 2.003zM7.19 14.971a.643.643 0 00-.22-.08.425.425 0 00-.393.127c-.058.057-.128.15-.209.29l-.197.347.938.52.197-.358c.081-.15.127-.255.139-.348a.514.514 0 00-.012-.231.393.393 0 00-.104-.162l-.139-.105zm.29-.648c.139.081.254.174.347.278a.883.883 0 01.197.37c.035.14.035.301 0 .475a2.174 2.174 0 01-.266.66l-.406.741c-.011.023-.034.046-.046.07-.023.023-.035.034-.07.034-.023.012-.046.012-.08.012-.035 0-.058-.012-.093-.035l-2.686-1.505-.035-.035v-.07c.012-.022.023-.069.035-.104a.936.936 0 00.07-.15c.034-.058.057-.104.092-.139.023-.035.046-.07.07-.081.022-.023.034-.035.057-.035.012 0 .035 0 .046.012l1.008.556.231-.417c.128-.22.244-.394.36-.498.115-.104.23-.185.358-.243a.96.96 0 01.406-.058c.115.046.266.08.405.162zm-.741 3.59c.011 0 .034.01.034.034.012.012.012.035.012.058s-.012.058-.012.104c-.011.046-.034.093-.057.162-.024.07-.047.116-.058.15-.023.035-.035.07-.058.093-.023.024-.035.035-.047.035-.023.012-.034.012-.046 0l-2.57-.915-.243.684c.358.185.671.347.937.497.267.151.487.29.672.406.174.127.324.243.428.359.105.116.174.22.22.324.047.116.058.22.058.336a1.529 1.529 0 01-.08.37c-.012.023-.024.047-.036.058-.011.012-.034.023-.057.035h-.081a1.843 1.843 0 00-.128-.035 1.347 1.347 0 01-.173-.07.183.183 0 01-.093-.057c-.023-.024-.035-.035-.035-.047v-.058a.368.368 0 00.023-.162c0-.058-.034-.115-.07-.173a1.187 1.187 0 00-.208-.22 3.626 3.626 0 00-.393-.278 8.304 8.304 0 00-.614-.348 50.671 50.671 0 00-.88-.451.492.492 0 01-.162-.127c-.023-.047-.023-.093 0-.151l.556-1.563c.023-.058.058-.104.104-.116.046-.023.104-.023.174.012l2.883 1.053zm-3.972 4.26l1.332.718.162-.938-1.494.22zm2.71-1.1c.07-.011.115-.011.15-.011.035 0 .058.011.081.034a.145.145 0 01.012.105c0 .046-.012.116-.023.197-.012.092-.035.162-.047.208a1.44 1.44 0 01-.034.116.09.09 0 01-.047.046c-.011.012-.034.012-.058.012l-.706.104-.22 1.25.614.325c.023.011.035.023.058.034a.253.253 0 01.034.058c.012.023.012.07 0 .116 0 .046-.011.104-.023.174a1.815 1.815 0 01-.034.185c-.012.046-.035.07-.047.093-.023.011-.046.011-.092 0-.035-.012-.081-.035-.14-.058l-2.778-1.54c-.023-.012-.047-.035-.07-.047a.124.124 0 01-.023-.07v-.127c.012-.057.023-.127.035-.208.023-.104.035-.185.046-.243a.39.39 0 01.046-.139.119.119 0 01.058-.07c.024-.011.047-.011.081-.023l3.127-.52zM2.883 25.01c-.116 0-.22.012-.29.058a.375.375 0 00-.173.15.59.59 0 00-.081.197c-.012.07-.023.14-.023.209l-.012.29 1.146.034.012-.313a1.02 1.02 0 00-.035-.278.505.505 0 00-.116-.185.505.505 0 00-.185-.116.538.538 0 00-.243-.046zm-.023-.73c.185 0 .359.047.498.105.15.058.266.15.359.266.092.116.173.255.22.429.046.162.07.359.058.579l-.012.277 1.077.035c.023 0 .035.012.046.023a.253.253 0 01.035.058c.011.023.011.058.023.104v.163c0 .069-.012.127-.012.173a.231.231 0 01-.023.104.246.246 0 01-.034.058c-.012.012-.035.012-.047.012l-3.045-.081a.245.245 0 01-.185-.07.284.284 0 01-.058-.173l.023-.8c0-.08.012-.161.012-.23.011-.07.023-.163.046-.256.023-.092.058-.208.116-.3.058-.105.127-.186.208-.267a.838.838 0 01.301-.162c.128-.035.255-.046.394-.046zm2.05 3.289c.046 0 .092-.012.127-.012.034 0 .058 0 .08.012.024.012.035.012.047.023.012.012.023.023.023.047l.197 1.69a.32.32 0 01-.035.15c-.034.047-.08.07-.162.082l-2.93.335c-.08.012-.127 0-.173-.046a.264.264 0 01-.07-.139l-.196-1.679c0-.011 0-.023.011-.046a.16.16 0 01.047-.035.167.167 0 01.08-.023c.035-.012.082-.012.128-.023.046-.012.093-.012.127-.012.035 0 .058 0 .082.012.023 0 .034.011.046.023.011.011.011.023.023.046l.139 1.193.822-.093-.116-1.019c0-.011 0-.023.012-.046a.16.16 0 01.046-.035c.023-.011.046-.023.081-.035.035-.011.07-.011.128-.023.046-.011.092-.011.127-.011s.058 0 .081.011c.023 0 .035.012.046.023.012.012.023.024.023.047l.116 1.007.95-.104-.14-1.204c0-.012 0-.035.012-.046l.035-.035a.565.565 0 01.081-.035c.023.012.058.012.104 0zm-1.83 4.539l.22.753a12.2 12.2 0 01.695-.105c.196-.023.382-.046.532-.058.15-.011.29-.011.405-.011.116 0 .22 0 .301.011.082.012.163.023.232.047.07.023.127.034.174.058l-.37-1.309-2.19.614zm3.184-2.05c.023-.011.035-.011.046 0 .012.012.035.024.047.035a.57.57 0 00.046.081c.012.035.035.081.046.14.023.057.023.103.035.138 0 .035.012.07.012.093 0 .023-.012.046-.012.058-.012.011-.023.023-.035.023l-.764.22.614 2.165.764-.22a.035.035 0 01.046 0l.047.046c.011.023.034.047.046.081.011.035.035.081.046.14.012.057.023.103.035.15.012.035.012.07.012.092 0 .024 0 .047-.012.058-.012.012-.023.024-.046.024l-1.17.335c-.046.023-.08.023-.104 0-.023-.011-.046-.046-.058-.08l-.046-.151a1.397 1.397 0 00-.209-.058 1.305 1.305 0 00-.243-.046c-.092-.012-.197-.012-.324-.012s-.278.012-.452.023a7.691 7.691 0 00-.613.07c-.232.034-.51.069-.834.127-.081.011-.139.011-.174-.012-.046-.023-.07-.058-.092-.116l-.475-1.655a.166.166 0 01.012-.15c.023-.047.07-.07.139-.093l2.5-.718-.08-.278c-.012-.046-.012-.081.011-.104.023-.023.046-.047.093-.058l1.146-.348zm.174 4.1a.784.784 0 01.115-.047c.035-.012.058-.012.082-.012.023 0 .046 0 .057.012.012.012.024.023.024.035l.729 1.54c.023.058.035.104.012.15-.012.047-.058.093-.128.128l-2.663 1.262a.243.243 0 01-.174.023.207.207 0 01-.104-.116l-.718-1.528c-.011-.012-.011-.023-.011-.047 0-.011.011-.034.035-.046a.437.437 0 01.069-.058c.035-.023.07-.035.116-.058s.08-.035.116-.046c.034-.012.057-.012.08-.012.024 0 .047 0 .059.012l.034.035.521 1.088.741-.347-.428-.927c-.012-.011-.012-.023-.012-.046 0-.011.012-.035.024-.046a.441.441 0 01.069-.058c.035-.023.07-.035.104-.058a.727.727 0 01.116-.046c.035-.012.058-.012.081-.023.023 0 .035 0 .046.011l.035.035.44.926.857-.405-.521-1.1c-.012-.012-.012-.023 0-.047 0-.011.011-.034.023-.046a.442.442 0 01.07-.058.252.252 0 01.104-.08zm.544 5.603a.895.895 0 00.266.22.59.59 0 00.267.081.49.49 0 00.254-.034.821.821 0 00.243-.128 1.43 1.43 0 00.232-.208.653.653 0 00.127-.232.727.727 0 00.012-.278 1.167 1.167 0 00-.127-.324l-1.274.903zm-.15-1.586a.76.76 0 00-.22.209.653.653 0 00-.128.231.727.727 0 00-.012.278c.024.104.058.208.128.324l1.273-.891a.894.894 0 00-.266-.22.476.476 0 00-.266-.081.532.532 0 00-.266.034c-.082.024-.163.07-.244.116zm-.417-.544c.15-.104.312-.185.474-.22a.946.946 0 01.475-.012c.162.035.324.105.475.209.162.104.312.243.451.428l.324-.22c.012-.011.035-.011.047-.011.011 0 .035.011.058.023.023.011.046.046.07.07.034.034.057.08.103.127.035.058.07.104.093.139.023.034.035.069.046.092.012.023.012.047.012.058 0 .012-.012.035-.035.046l-.324.22c.127.197.208.382.266.556.047.174.07.336.047.498a1.033 1.033 0 01-.174.44 1.81 1.81 0 01-.394.394c-.15.104-.3.173-.463.208a1.096 1.096 0 01-.475.012 1.42 1.42 0 01-.474-.209 1.898 1.898 0 01-.452-.417l-.301.209c-.012.011-.035.011-.046.011-.012 0-.035-.011-.058-.034a.265.265 0 01-.07-.081c-.034-.035-.058-.081-.104-.128-.035-.058-.07-.092-.093-.139-.023-.034-.034-.07-.046-.092-.011-.023-.011-.047-.011-.058 0-.012.011-.035.023-.035l.3-.208a2.406 2.406 0 01-.266-.556 1.254 1.254 0 01-.046-.498c.023-.162.07-.301.162-.44.116-.139.243-.266.406-.382zm30.278 4.712l-.104-.127c-.105-.127-.533-.556-1.552-.556-.359 0-.764.058-1.204.162-.394.093-.88.255-1.459.452a1.467 1.467 0 00-.232-.359c-.416-.475-1.169-.706-2.211-.706-1.436.011-3.427.463-5.454 1.239-1.4.532-2.674.81-3.774.822-1.714.011-2.744-.602-3.648-1.135l-.474-.278-.59-.347-.117.683-1.192 7.225.44.197.208-1.25 1.007-6.091.012.012v-.012l.475.278c.683.405 1.493.88 2.628 1.088.37.07.787.105 1.24.105 1.169-.012 2.488-.29 3.936-.857 1.98-.753 3.902-1.204 5.291-1.204.336 0 .637.023.892.069.44.081.764.243.973.475a.978.978 0 01.254.636c.718-.243 1.39-.474 1.888-.59.405-.104.764-.15 1.088-.15.035 0 .07 0 .104.011h.116c.035 0 .058 0 .093.012l.208.034h.012c.185.047.335.093.44.15.139.082.428-.184.428-.184l-1.25 8.186.416-.174c.023-.197.058-.405.093-.625.139-.845.243-1.46.243-1.46l.023-.161.035-.197-.012-.023c.093-.58.186-1.146.267-1.69.255-1.61.475-2.919.51-3.115v-.023l.022-.163.035-.208-.104-.15z" fill="#0066B3"/><path d="M25.994 44.89c-10.282 0-18.572-8.058-18.862-18.34-.3-10.42 7.92-19.128 18.33-19.429.185 0 .37-.012.555-.012C36.3 7.11 44.59 15.17 44.88 25.45a18.718 18.718 0 01-5.14 13.5c-3.463 3.671-8.152 5.767-13.189 5.918a9.285 9.285 0 01-.556.023zm0 .464c.186 0 .37 0 .567-.012 10.676-.3 19.094-9.216 18.793-19.903-.301-10.49-8.904-18.804-19.337-18.793h-.567C14.763 6.96 6.357 15.863 6.658 26.55c.3 10.502 8.904 18.804 19.336 18.804z" fill="#fff"/><path d="M29.931 41.695c.903 0 1.528.185 1.853.544a.972.972 0 01.254.649c.73-.243 1.401-.475 1.9-.59a4.318 4.318 0 011.088-.151c.833 0 1.03.173 1.088.231l.301-.22-1.679 10.699-.451-.255c-.22-.127-.487-.185-.81-.185-.916 0-2.05.475-3.162.926-.845.348-1.644.672-2.293.776a4.617 4.617 0 01-.636.058c-.996.011-1.158-.533-1.17-.799l.058-.556c-.266.104-.532.209-.787.301-.533.209-1.03.394-1.46.544-.752.267-1.69.406-2.709.417-2.362.012-4.886-.694-6.426-1.806l-.173-.127 1.632-9.877.475.278c.915.532 2.038 1.216 3.89 1.204 1.17-.011 2.49-.29 3.937-.857 1.98-.752 3.902-1.204 5.28-1.204z" fill="#fff"/><path d="M27.129 49.279l-.544 3.879c-.14.706.66.718 1.39.602 1.77-.278 4.862-2.385 6.495-1.482.243-1.945.66-4.412.66-4.412s-.405-.567-1.934-.197c-1.528.383-4.932 1.842-6.067 1.61z" fill="#ED1C24"/><path d="M34.956 48.99c.174-1.077.347-2.235.521-3.254-.231-.15-.845-.405-2.014-.127-1.483.359-4.725 1.748-5.964 1.61l-.451 2.894c.139.474.671.59 1.413.52 1.771-.15 4.863-2.5 6.495-1.643z" fill="#0066B3"/><path d="M26.55 53.424c.104-.74 1.123-.764 1.795-.73.683.035 1.922.012 2.014-.532.128-.73.174-1.61.174-1.61l-3.543.047-.44 2.825z" fill="#BE1E2D"/><path d="M15.099 51.989l.822-4.91c1.424.845 3.67 2.061 8.255.29 3.67-1.413 7.087-1.656 6.913-.209.023.023-.741 5.025-.741 5.025.266-1.725-4.122.336-6.426 1.135-2.501.88-6.623.255-8.823-1.331z" fill="#ED1C24"/><path d="M24.327 46.35c-4.435 1.702-6.75.185-8.198-.683l-.533 3.184c2.212 1.54 5.477 2.084 8.742.833 2.073-.798 6.068-2.176 6.508-.938l.451-3.091c-.544-.938-3.717-.544-6.97.695z" fill="#0066B3"/><path d="M34.655 29.097a9.465 9.465 0 00-.174-.405c.081.046.163.081.243.116.058.104.105.197.151.278-.07.011-.15.023-.208.046-.012-.023-.012-.035-.012-.035zm-1.748.012v-.093c-.07-.532-.174-.984-.197-1.32.127.243.336 1.02.475 1.506-.093-.035-.186-.07-.278-.093zm-.753 4.458c0-.012 0-.012.012-.012h.011a.088.088 0 01-.023.047v-.035zm-.023.486c0-.023-.012-.058-.012-.081 0 .035.012.046.012.081zm2.443 2.443l-.428.915-.464-.22.313-.66c.22.011.405 0 .579-.035zm.428-.127l-.115.231-.255-.115c.139-.023.266-.07.37-.116zM21.19 38.627a.448.448 0 01.139-.22c0 .034-.012.058-.012.092 0 .023 0 .035.012.058l-.139.07zm-.834-4.574c0-.011 0-.011 0 0zm-.51-.011c.013-.024.024-.047.013-.07.011.023 0 .058-.012.07.012.011.012.011 0 0zm-2.604-1.529c.011 0 .023.012.034.012h-.011c-.012-.012-.023-.012-.023-.012zm.74-1.84l-.22-.105-.22-.104-.08-.035a.87.87 0 00-.452-.59.514.514 0 00-.058-.533.404.404 0 00.081-.104c.232-.37.927-1.714 1.181-2.085-.092.278-.822 1.818-.868 1.969-.174.51.266.602.44.938.278-.174.753-.035.938-.533.127-.336.417-1.494.567-1.806-.023.336-.127.787-.197 1.32-.07.498.417.498.683.776.232-.209.672-.151.741-.614.07-.394.082-1.39.082-1.39.069.047.104.07.173.14.174-.186.521-.186.637-.43.046.024.07.059.116.082.382.637.405 1.841-.116 2.281.162 0 .336-.023.463-.081-.011.035-.035.058-.046.081 0 .012-.012.023-.023.023-.012.023-.035.058-.047.081v.012a.928.928 0 01-.15.15c-.278.209-.66.244-1.077.081.023.116.035.186.093.267-.649.092-.927.347-1.17.764-.104.174-.127.359-.139.544l-.034-.035c0-.011-.012-.011-.012-.011h-.012c-.011 0-.011-.012-.023-.012-.011-.046-.058.012-.058-.058-.011-.034 0-.058-.046-.07h-.046l-.012-.01h-.117c-.011 0-.011.01-.023.01l-.023.036s-.012 0-.012.011l-.127.081c-.011 0-.046.012-.07.012-.092.023-.22.035-.231.173 0 .012 0 .024.012.035 0 .012.011.012 0 .012a.217.217 0 00-.024.092v.024s-.034-.012-.046-.024c0 0-.035-.011-.046-.023 0 0-.023-.011-.035-.023 0 0-.023-.012-.035-.012l-.07-.034s-.034-.012-.057-.023c0 0-.058-.024-.07-.035l-.023-.012-.208-.07.023.012.023.012a.562.562 0 00.058.023c.012 0 .058.023.058.023l.07.035c.011 0 .034.023.034.023.012 0 .035.023.035.023a.164.164 0 00.046.023.17.17 0 01.047.024.165.165 0 00.046.023 11.433 11.433 0 01.093.046c.011 0 .023.012.034.012-.37-.174-.579-.267-.579-.267-.011 0-.023.012-.034.023-.047-.023-.105-.057-.14-.057l-.185-.058c-.011 0-.011 0-.023-.012l.51-1.042zm18.11-2.456a.196.196 0 000 .116c-.023-.023-.035-.058-.058-.092a.339.339 0 01.081-.186c.012.012.023.035.046.047-.046.034-.058.07-.07.115zm-1.818.035c.058.023.116.047.185.07.035.07.081.139.116.208-.046 0-.104 0-.162.012a6.908 6.908 0 01-.14-.29zm-3.705 1.969a.857.857 0 01-.44-.44c.116.057.3.08.451.08-.52-.44-.498-1.644-.115-2.28.046-.024.08-.058.115-.081.128.243.463.243.637.428.07-.07.104-.081.174-.139 0 0 .011.996.08 1.39 0 .023.013.034.013.057-.302.15-.672.463-.915.985zm1.864 7.236l-.903-.417.625-1.331c.29.243.579.417.845.544l-.567 1.204zM19.88 33.845v.07c0-.012-.012-.012-.023-.024.011-.012.011-.023.023-.046zm15.712-6.218l.208.07a.14.14 0 00.058.057l-.22-.058c-.011-.023-.035-.046-.046-.07zm-1.621-.023c.035.023.081.046.116.07.046.08.092.161.139.254-.035 0-.081 0-.116-.012-.035-.115-.093-.22-.14-.312zm-2.478 6.565c0 .058.012.127.012.197 0-.07 0-.14-.012-.197zm-.023-.266c0 .034.012.057.012.092 0-.035-.012-.07-.012-.092zm-2.513 4.156l.44.209c-.046.08-.139.208-.359.173-.07-.011-.127-.011-.185-.011a3.398 3.398 0 00-.046-.347c.046-.012.104-.012.15-.024zm-4.087-.868l.382-.197c-.07.324-.127.648-.174 1.007a.995.995 0 01-.37 0 3.73 3.73 0 01.162-.81zm-2.235 1.111l.22-.104c0 .07-.011.15-.011.232a.274.274 0 01-.209-.127zm2.56-2.003l.196.093c-.011.035-.011.07-.023.104l-.313.162c.047-.127.081-.243.14-.359zm4.029-3.867c-.521-.07-.95.058-1.286.185a1.6 1.6 0 00-.486.29c.174-.348.486-.649.753-.718.451-.104.81.011 1.019.243zm-1.066 2.628a4.16 4.16 0 01-.648-.393v-.023h.035a.32.32 0 00.104.011h.046-.011a.987.987 0 01.648.313l-.174.092zm-3.137.024c-.024 0-.047.011-.058.011.07-.07.139-.15.197-.231-.047.07-.093.139-.14.22zm.636-.012h-.023c.023-.081.046-.15.058-.22l-.035.22zm1.91.776l.244-.116c.266.197.567.428.753.672a5.176 5.176 0 01-.915-.452.635.635 0 01-.081-.104zm-.173-.429c.012.012.023.012.023.024l-.034.011c.011-.011.011-.023.011-.035zm-1.088-.567c.035.127.07.266.104.394-.012-.012-.035-.012-.046-.024a4.846 4.846 0 00-.058-.37zm2.13-1.436c.012.336.313.568.452.626.208.092.648.127.96-.151a.458.458 0 00.093.266l-1.528.788c0-.475-.359-.695-.683-.904.116-.243.278-.44.486-.532.07-.046.15-.07.22-.093zm.035-.011c.266-.081.521-.07.776-.012-.209.185-.58.093-.776.012zm1.783.451a.65.65 0 01.093.07l.046-.023-.231.115c.023-.046.046-.092.092-.162zm-.197 2.34c-.092-.07-.208-.14-.312-.232a6.09 6.09 0 00-1.066-.672l1.946-.973c.023.672-.081 1.413-.568 1.876zm-5.87-1.437s-.023-.011-.035-.011c0 0-.023-.012-.035-.012 0 0-.023-.011-.034-.023 0 0-.023-.011-.035-.011a.66.66 0 01.162-.047l-.011.012c.046-.012.08-.012.127-.012.07 0 .139-.011.197-.023a4.695 4.695 0 01-.255.174s-.023-.012-.035-.012c0 0-.023-.011-.035-.023.012 0 0-.012-.011-.012zm-.753-.347s-.023-.012-.034-.012c0 0-.024-.011-.035-.011 0 0-.023-.012-.035-.012 0 0-.023-.011-.035-.011 0 0-.023-.012-.034-.012 0 0-.024-.011-.035-.011 0 0-.023-.012-.035-.012 0 0-.023-.012-.035-.012 0 0-.023-.011-.034-.011 0 0-.024-.012-.035-.012 0 0-.023-.011-.035-.011 0 0-.023-.012-.035-.012 0 0-.023-.012-.034-.012 0 0-.024-.011-.035-.011 0 0-.023-.012-.035-.012 0 0-.023-.011-.035-.011 0 0-.023-.012-.034-.012 0 0-.023-.011-.035-.011 0 0-.023-.012-.035-.012 0 0-.023-.012-.034-.012 0 0-.024-.011-.035-.011.139 0 .266-.023.359-.058.139-.058.451-.301.451-.648-.266.115-.891.289-.972-.36-.07-.567.428-1.03 1.18-.833h.012c.023.011.047.011.07.023.532.22 1.204 1.274.532 1.725-.231.162-.544.313-.706.59 0 0-.023-.01-.035-.01 0 0-.023-.012-.034-.012 0 0-.023-.012-.035-.012 0 0-.023-.011-.035-.011 0 0-.023-.012-.035-.012 0 0-.023-.012-.034-.012 0 0-.023-.011-.035-.011.081-.104.058-.116.046-.116zm-.868 3.52c0-.023.011-.046.023-.07.012.012.035.024.046.035l-.07.035zm-3.659-5.685c0 .011 0 .023.012.023 0 .011.011.035.011.046h-.011s-.024-.011-.035-.023l-.012-.011v-.035h.035zm6.137 7.04c-.14-.081-.243-.243-.301-.463.104.011.197.011.29.011v.116c-.012.104 0 .22.01.336zm1.83-1.656a3.25 3.25 0 00.23-.44l.035.011c.105.371.174.742.174 1.17 0 .29-.058.544-.174.718a.475.475 0 01-.185.185c.012-.116.023-.22.023-.347a9.04 9.04 0 00-.104-1.297zm6.194-5.361v-.023c.011.011.023 0 .034 0v.035c.035-.012-.023.15-.023.243l-.474.243c-.012-.047-.012-.093-.012-.15h.023a.19.19 0 00.07-.035s.011 0 .011-.012c.105-.023.209-.035.267-.15l.023-.047c.058 0 .07-.058.08-.104zm1.69-5.79c.07.058.301.325.568.649a.802.802 0 01-.15-.058c-.22-.3-.395-.533-.418-.59zm-.984.649c.023.035.058.081.081.127h-.035c-.011-.058-.034-.092-.046-.127zm-17.68.95c-.07-.012-.128-.024-.186-.024.475-.567 1.204-1.459 1.343-1.574-.058.127-.706.95-1.158 1.597zm-1.112 4.26c-.081.012-.15.012-.232.012a.492.492 0 01-.382.44s-.011 0-.011-.012c-.024-.011-.035-.023-.058-.034a.14.14 0 01-.058-.058c-.023-.023-.035-.046-.058-.07a.867.867 0 01-.058-.185v-.104a.51.51 0 01.116-.267.61.61 0 01-.14-.162 1.003 1.003 0 01-.115-.185 1.086 1.086 0 01-.127-.428c-.012-.093-.012-.174-.012-.267.012-.08.023-.173.046-.243a1.295 1.295 0 011.367-.926.477.477 0 01.393-.324h.116a.54.54 0 01.15.29.48.48 0 01-.092.335c.185.197.313.452.347.741.07.695-.451 1.355-1.192 1.447zm10.444-17.97c.174.012.37.012.567.012.197 0 .394 0 .567-.012.429.429 1.39.973 2.34 1.17-.545 0-1.506-.047-1.622-.185.024.347.765.74 1.24.845-.394.046-.765 0-1.077-.15.173.242.358.44.683.543-.336.406-1.02.672-1.714.603a.853.853 0 00.753.3c-.556.869-1.066 1.83-1.17 3.15-.116-1.32-.625-2.281-1.18-3.15a.865.865 0 00.752-.3c-.683.069-1.366-.197-1.702-.603.324-.104.51-.3.683-.544-.313.14-.683.185-1.077.15.486-.104 1.227-.497 1.239-.845-.116.14-1.077.186-1.621.186.95-.197 1.91-.741 2.339-1.17zm-7.862 17.426l-.07-.035c.012.012.024.012.035.024.012 0 .023.011.035.011zM32.13 33.73c-.012.011-.023.011-.035.023 0-.012.012-.035.012-.046 0-.023.011-.047.011-.07.012.023 0 .058.012.093zm-.023.07c-.012.034 0 .069.035.115a.025.025 0 00-.024.023c-.011-.046-.011-.092-.011-.139zm8.464-11.753c-.37-.232-.973-.29-1.563-.255.938-.312 1.574-1.019 1.62-1.644-.509-.15-1.018-.07-1.47.023.475-.347 1.216-.96 1.135-1.887-.44-.104-1.262.197-1.61.347 1.112-.613 1.506-2.05.915-2.871-.336.197-1.899 1.794-2.153 1.968.798-.915 1.18-1.575 1.4-2.2.244-.683.267-1.852-.555-2.258-.394.903-1.783 3.23-2.57 4.18-.07-.07-.14-.162-.244-.185-.197.59-.752 1.378-1.239 1.737-.023-.047-.07-.186-.162-.313-.52.788-1.887 1.864-2.339 2.513-.336.498-.347.95.128 1.412.196.186.567.533.243.996-.521.753-1.668.718-2.003.081.73-.08.95-.984.497-1.505-.196.347-.613.51-1.042.336-.266-.116-.474-.255-.578-.382.59.196 1.1-.15 1.03-.765-.475.406-.961.012-1.054-.092-.312-.348-.382-.741-.266-1.343.104-.521.648-1.355 1.007-1.633.047.058.128.162.301.127.116-.023.29-.127.406-.162.359-.116.718-.011.938.116.416.255.37.521.37.741.637-.359.405-.938-.405-1.17.567 0 1.019.51 1.134.58.302.208.753.162 1.008.046.498-.232.614-.81.475-.938a.56.56 0 01-.498.428c-.429.047-.845-.127-1.17-.266a2.543 2.543 0 00-1.03-.174c.555-.312 1.435-.277 1.748.197a.882.882 0 00.36-.602c.15-.822-.487-1.25-1.194-1.25.012-.197-.127-.301-.312-.243 0-.082-.023-.14-.081-.174h.046c.706-.058 1.378-.278 1.737-.648.637-.66-.37-1.517-.012-2.189.336.162.59.348 1.077.428.047.093.081.302.104.394.15.753-.59.88-.405 1.68.081.358.359.474.452.902.011 0 .046.313-.232.568.614.011.926-.498.73-.973-.082-.185-.29-.382-.278-.602.312.428.579.394 1.053.243.22-.058.243.243.116.475a.796.796 0 00.405-.649c0-.335-.254-.486-.51-.428-.15.035-.44.22-.462-.058-.035-.475.706-.451.544-1.216-.081-.405-.51-.59-1.17-.694a1.695 1.695 0 01-.324-.36c-.393-.613-.764-.775-.984-.648-.266.15-.405.266-.637.382-.173.081-.359.128-.474.267-.29.37-.024.926.139 1.262.092.197.335.671.243.995-.128.406-.81.672-1.228.753-.011 0-.046.012-.07.012v-.162a4.59 4.59 0 00.313-.695c.267-.73-.139-1.042-.764-1.17a.34.34 0 00-.266-.034h-.012l-.011.104-.081-.012.011-.15h-.023a.323.323 0 00.093-.232.272.272 0 00-.07-.197h.093l-.035-.034c-.023-.035-.058-.07-.092-.116-.024-.023-.035-.046-.047-.07.023.012.047.035.07.047.046.034.08.07.116.092l.034.035v-.683l-.034.035a.85.85 0 00-.116.104.234.234 0 01-.07.046c.012-.023.023-.046.047-.07.034-.046.07-.092.092-.115l.035-.035h-.695l.035.035c.023.023.058.07.093.116.023.023.034.046.046.07-.023-.012-.046-.036-.07-.047a.516.516 0 01-.115-.104l-.035-.035v.683l.035-.035c.023-.023.07-.058.116-.092a.24.24 0 01.069-.047c-.012.024-.023.047-.046.07-.035.046-.07.08-.093.116l-.035.034h.093a.314.314 0 00-.07.197c0 .093.035.162.093.232h-.011l.011.15-.081.012-.012-.104h-.011a.27.27 0 00-.267.034c-.625.128-1.03.44-.752 1.17.08.231.185.475.313.695v.104c-.614-.197-1.737-.869-2.027-1.286-.034-.046-.07-.08-.08-.104v-.44c.23-.359.416-.81.567-1.204.393-1.053-.197-1.505-1.112-1.702-.093-.07-.208-.092-.359-.046l-.023.173-.185-.023.011-.208c-.035 0-.07.011-.104.011a.43.43 0 00.232-.382.467.467 0 00-.162-.335h.15c-.07-.081-.243-.255-.266-.36.104.024.278.186.359.255v-.856c-.081.069-.255.231-.36.254.024-.104.186-.29.255-.359h-.868c.07.081.232.255.255.36-.105-.024-.278-.186-.36-.255v.856c.082-.07.256-.231.36-.254-.023.104-.186.278-.255.359h.15a.447.447 0 00-.162.335c0 .174.093.313.232.383-.035 0-.07-.012-.116-.012l.012.208-.197.023-.023-.173c-.15-.046-.267-.023-.36.046-.925.197-1.504.637-1.11 1.702.15.394.335.845.567 1.204v.452c-.024.023-.047.058-.081.092-.29.417-1.425 1.089-2.027 1.286v-.104a4.59 4.59 0 00.313-.695c.278-.73-.139-1.042-.753-1.17a.34.34 0 00-.266-.034h-.012l-.011.104-.081-.012.011-.15h-.011a.323.323 0 00.092-.232.272.272 0 00-.069-.197h.093l-.035-.034c-.023-.035-.07-.07-.104-.116a.24.24 0 01-.047-.07.24.24 0 01.07.047c.046.034.092.07.116.092l.034.035v-.683l-.034.035c-.024.023-.07.058-.116.104a.234.234 0 01-.07.046.238.238 0 01.047-.07.989.989 0 01.104-.115l.035-.035h-.649l.035.035c.023.023.058.07.093.116.023.023.034.046.046.07-.023-.012-.046-.036-.07-.047-.046-.035-.092-.07-.115-.104l-.047-.035v.683l.047-.035c.023-.023.07-.058.115-.092a.24.24 0 01.07-.047c-.012.024-.023.047-.046.07-.035.046-.07.08-.105.116l-.034.034h.092a.314.314 0 00-.07.197c0 .093.035.162.093.232h-.023l.012.15-.081.012-.012-.104h-.011a.27.27 0 00-.267.034c-.625.128-1.03.44-.752 1.17.08.231.197.475.312.695v.162c-.023 0-.046-.012-.07-.012-.416-.092-1.087-.347-1.215-.752-.104-.325.139-.8.243-.996.162-.336.429-.903.14-1.262-.105-.14-.302-.186-.476-.267-.231-.116-.358-.231-.625-.382-.231-.127-.602.035-.995.649a1.695 1.695 0 01-.325.359c-.66.092-1.088.289-1.17.694-.15.776.591.741.545 1.216-.023.278-.313.093-.463.058-.255-.058-.51.093-.51.428 0 .15.081.475.406.649-.128-.232-.105-.533.115-.475.475.15.753.174 1.054-.243.012.22-.208.417-.278.602-.197.486.116.984.73.973-.267-.255-.232-.568-.22-.568.092-.428.37-.532.451-.903.186-.81-.555-.926-.405-1.679.023-.092.058-.3.104-.394.487-.08.741-.254 1.077-.428.359.672-.648 1.529-.012 2.189.36.37 1.03.59 1.737.648h.047a.176.176 0 00-.07.174c-.185-.047-.324.046-.313.243-.706 0-1.343.428-1.192 1.25a.882.882 0 00.359.602c.312-.486 1.192-.52 1.748-.197a2.577 2.577 0 00-1.03.174c-.325.14-.741.324-1.17.267a.573.573 0 01-.498-.429c-.139.139-.023.706.475.938.266.116.706.162 1.019-.046.116-.081.567-.58 1.135-.58-.81.232-1.042.8-.406 1.17-.011-.22-.046-.486.371-.74.22-.128.579-.233.938-.117.116.035.29.14.405.162.174.035.255-.07.301-.127.37.278.903 1.112 1.008 1.633.115.602.046.995-.267 1.343-.093.104-.59.498-1.065.092-.07.614.451.961 1.042.765-.116.127-.313.266-.59.382-.429.173-.846.011-1.043-.336-.451.52-.231 1.424.498 1.505-.335.648-1.482.672-2.003-.08-.324-.464.058-.811.243-.997.487-.463.475-.914.14-1.412-.44-.66-1.819-1.726-2.34-2.513-.104.128-.139.266-.162.313-.486-.36-1.053-1.146-1.239-1.737-.104.023-.173.116-.243.185-.776-.96-2.177-3.277-2.559-4.18-.833.405-.81 1.575-.567 2.258.232.625.602 1.274 1.401 2.2-.255-.174-1.818-1.771-2.154-1.968-.579.822-.185 2.258.915 2.871-.359-.15-1.17-.451-1.61-.347-.08.915.66 1.54 1.135 1.887-.44-.104-.96-.174-1.47-.023.046.625.695 1.332 1.62 1.644-.59-.035-1.18.023-1.562.255.08.637.81 1.204 1.713 1.343-.602.07-1.134.336-1.4.683.324.417.798.753 1.528.741-.348.116-.776.463-.938.903.417.336.95.545 2.153.116-1.389.58-1.111.857-1.331 1.447.255.093.475.36 1.135.197.37-.092.995-.683 1.528-1.03-.174.185-.95.752-1.297 1.077-.382.359-.116.74-.116 1.065.058 0 .128.011.197.023-.011.023-.034.046-.046.07-.463-.197-1.019.046-1.25.544a1.068 1.068 0 00-.093.312c-.267-.057-.544.093-.683.37-.012.012-.023.047-.023.047-.012.012-.012.035-.012.046 0 .012 0 .012-.012.024 0 .023-.011.034-.011.034v.219a.12.12 0 00.011.047c0 .011.012.046.012.046a.12.12 0 00.011.046.164.164 0 01.024.047.088.088 0 01.023.046.17.17 0 01.023.035l.035.034.034.035c.012.012.024.023.035.023a.167.167 0 00-.023.035.167.167 0 00-.023.035c-.012.011-.023.035-.023.035s-.012.011-.012.023l-.011.011c-.012.012-.012.023-.012.023a.163.163 0 00-.023.035c0 .012-.023.035-.023.035-.012.012-.012.023-.012.035l-.023.046-.023.046a.17.17 0 01-.023.047.117.117 0 01-.012.034v.012c0 .012-.011.046-.011.046 0 .012-.012.047-.012.047 0 .011-.012.046-.012.046v.231c0 .012.012.047.012.047 0 .011.011.046.011.046 0 .012.012.046.012.046 0 .012.012.047.012.047.011.011.011.046.011.046a.156.156 0 01.023.046c0 .012.012.047.012.047a.165.165 0 01.023.046.165.165 0 01.023.035.165.165 0 01.023.034c.012.012.024.035.024.035a.167.167 0 01.023.035l.034.035a31.968 31.968 0 01.07.07.165.165 0 00.035.022.165.165 0 00.034.023.167.167 0 00.035.024.165.165 0 00.035.023c.011.011.023.023.035.023a.145.145 0 00-.023.046c-.012.012-.012.047-.012.047 0 .011-.012.046-.012.046v.15c0 .012.012.035.012.035 0 .012.011.046.011.046a.164.164 0 01.024.047c0 .011.011.023.011.035l.012.011a.165.165 0 01.023.035.17.17 0 01.023.035l.035.034a.167.167 0 00.035.023.167.167 0 00.034.024c.012.011.024.011.047.023.011.011.023.011.046.011.012 0 .035.012.046.012-.011.012-.011.035-.011.035a.117.117 0 01-.012.034.119.119 0 01-.011.035.112.112 0 01-.012.035.117.117 0 01-.012.035v.278c0 .011.012.034.012.034 0 .012.012.035.012.035 0 .012.011.035.011.035 0 .011.012.034.012.034.011.012.011.035.011.035 0 .012.012.023.012.023 0 .012.011.023.011.023v.012a.462.462 0 01.035.046.215.215 0 00.035.047.155.155 0 00.046.046l.046.046a.37.37 0 00.058.035c.024.012.035.023.058.035.012 0 .024.011.035.011 0 0 .023.012.035.012 0 0 .023 0 .034.011 0 0 .024.012.035.012h.035s.023 0 .035.012h.197s.023-.012.034-.012h.023s.024.012.035.012c0 0 .023.011.035.011 0 0 .023 0 .035.012h.174s.012 0 .024-.012h.034s.023-.011.035-.011c0 0 .023 0 .035-.012 0 0 .023-.011.034-.011l.024-.012.023-.012s.023-.011.023-.023l.023-.011s.035-.024.058-.035c0 0 .035-.023.046-.046l.047-.047s.034-.035.046-.058c0 0 .023-.023.035-.046h.023s.023 0 .046-.011h.012c.011 0 .023-.012.034-.012.012 0 .024.011.035.011 0 0 .035.012.046.012h.186s.034-.011.046-.011c0 0 .023-.012.035-.012 0 0 .035-.012.046-.023 0 0 .023-.012.035-.023 0 0 .023-.024.035-.024l.034-.034.035-.035.035-.035s.023-.023.023-.035h.15s.024.012.035.012h.012c.011 0 .023 0 .046.012 0 0 .035 0 .046.011h.093s.035 0 .046-.011h.047s.034-.012.046-.012c0 0 .035-.011.046-.011 0 0 .035-.012.047-.012 0 0 .023-.012.046-.012l.359.162.255.024.486-1.02a.187.187 0 00.081.047l.232.093v.104l1.482.695c-.012.023-.012.046-.012.057v.082c0 .011-.012.011-.012.011s-.011 0-.011.012c-.035.034-.023.092-.012.127-.011 0-.011 0-.011.012-.012 0-.023.011-.023.046.011.07.023.15.092.197.093.07.197.092.313.058.116-.058.197-.197.185-.313 0-.023-.012-.046-.012-.07h.012c0 .012 0 .012.012.024.023.07 0 .139-.035.208a.343.343 0 00-.035.243v.012l.023.023a.237.237 0 00.162.104c.024.035.081.035.128.035h.046c.012 0 .012-.012.023-.012.047-.011.116-.034.105-.104 0 0 0-.011.011-.011v.011a.41.41 0 00.035.162c.011.035.035.047.07.058.034.023.08.023.127.023h.058c.011 0 .023.012.034.023h.023c.012 0 .035.012.047.012.046 0 .08-.046.104-.07l.011-.011c.047-.07.047-.127.047-.185v-.047l2.767 1.286a6.14 6.14 0 00-.926.602c-.301.22-.544.405-.753.405-.173 0-.255-.093-.29-.162-.069-.14-.022-.498.128-.58a.502.502 0 00-.255.024c-.22.081-.625.348-.625.834 0 .07.012.15.035.231a1.71 1.71 0 00-.533.37c-1.1 1.112-.393 1.877-.393 1.877 0-.325.277-.765.66-1.112a1.01 1.01 0 00-.024.185c0 .07.012.128.024.197.046.255.173.405.277.544a.892.892 0 01.105.15l-1.494.777s-.15.08-.07.208l.012.012c.058.127.209.07.209.07l1.389-.696-.023.105.127-.035a.46.46 0 00.313-.266l.324-.163c.046.14.116.267.209.382.208.244.497.383.822.383h.069c-.012.011-.023.034-.035.046a.961.961 0 01-.347.336 1.607 1.607 0 01-.324.139c-.209.07-.429.104-.637.127-.394.023-.753-.035-.961-.174 0 0 .208 1.02 1.748.788.869-.128 1.274-.741 1.47-1.274.232.347.614.556 1.078.556.277 0 .544-.081.752-.22.162.359.405.66.73.857l.034.023.035-.023c.313-.197.568-.498.73-.857.208.139.474.22.752.22.394 0 .73-.14.973-.417.116-.127.208-.29.266-.463.012 0 .012.011.023.011.197.151.429.325.8.325.323 0 .613-.14.821-.383.116-.127.185-.289.232-.463l.255.116a.53.53 0 00.139.278c.046.058.243.139.335.162-.034-.07-.046-.162-.058-.243l1.98.926.012.012a.577.577 0 00.278.035h.07c.01 0 .034-.012.046-.012.011 0 .034-.011.046-.011.011 0 .023-.012.035-.012.011 0 .023-.012.034-.023 0 0 .024-.012.035-.023l.035-.035.023-.023.035-.035s.011-.023.023-.035l.023-.046c0-.012.012-.023.012-.046 0 0 0-.024.011-.035v-.023c0-.012 0-.023.012-.035v-.127c0-.012 0-.024-.012-.035 0-.012-.011-.023-.011-.046 0-.012-.012-.024-.012-.035-.011-.012-.011-.023-.023-.035-.012-.011-.012-.023-.023-.035-.012-.011-.023-.023-.023-.034a5.676 5.676 0 00-.035-.035c-.012-.012-.023-.023-.035-.023-.011-.012-.023-.024-.035-.024-.011-.011-.023-.011-.046-.023h-.012l-.011-.011s-.012 0-.012-.012c-.023-.011-.07-.035-.127-.058-.012 0-.012-.011-.012-.011s-.023-.012-.034-.012c-.116-.058-.267-.127-.463-.22l.22-.451 1.007.474 1.019-2.431-.012-.116-.312-.15c.011 0 .023-.012.023-.012.694-.301 1.273-1.401.96-2.2-.3-.799-.763-.799-.763-.799-.44.07-.649-.058-.649-.058 0 .232.452.625.452.625s.173.116.104.15c-.07.024-.185-.01-.185-.01-.232-.07-.498-.279-.498-.279s-.104.105.243.394c.347.301.428.521.428.521.15.475-.312.776-.312.776-1.204.59-2.478-.672-2.86-1.1.023-.012.046-.023.058-.058a.222.222 0 00.035-.162v-.012.012c0 .081.069.104.115.116.012 0 .012 0 .023.011h.047c.046 0 .092 0 .127-.034.07-.012.116-.058.162-.105l.012-.011v-.012c.035-.092 0-.162-.035-.243-.023-.07-.058-.127-.035-.208 0-.035.012-.07.024-.105-.012.047-.024.093-.024.14-.011.115.07.254.186.312.115.023.22.012.312-.058.07-.046.081-.127.093-.197 0-.023-.012-.034-.023-.046 0-.012-.012-.012-.012-.012.012-.034.012-.092-.012-.127l-.011-.011h-.012s-.011 0-.011-.012v-.081c0-.023 0-.046-.023-.081a.659.659 0 00.22-.36l.046-.022c.035 0 .07-.012.093-.024l.011-.011.035-.035.127-.058.012.012c.08.023.127-.012.173-.093l2.814-1.4.035.069.845-.44-.035-.058.348-.174c-.116-.116-.267-.498-.267-.498l-.335.174-.035-.07-.845.417.046.081-2.71 1.39c0-.012-.011-.012-.011-.023-.012-.012-.023-.012-.035-.012 0 .012-.011 0-.011.012 0-.012 0-.012-.012-.012l.023-.023c.012-.012.012-.023.012-.023v-.012c0-.023 0-.023-.012-.046-.011-.012-.011-.035-.011-.058 0-.035 0-.058-.023-.093v-.011c0-.012.011-.023 0-.035 0-.127-.128-.15-.22-.174-.035 0-.058-.011-.07-.011l-.127-.081s-.012 0-.012-.012l-.023-.035c-.012-.011-.012-.011-.023-.011h-.104c-.012 0-.012 0-.012.011h-.046c-.047.012-.035.035-.047.07 0 .058-.046.011-.057.058l-.012.011h-.012s-.011 0-.011.012c-.012 0-.012.012-.023.023a.967.967 0 00-.14-.532c-.231-.394-.497-.637-1.076-.742.139-.231.336-.428.602-.567 0 0 .52-.197.822.209 0 0 .127.208.174.66.034.451.185.428.185.428s0-.324.058-.544c0 0 .023-.128.092-.174.07-.035.081.174.081.174s.058.59.244.73c0 0 .011-.244.335-.557 0 0 .22-.3-.08-.891.08.023.15.034.22.08.161-.312.532-.416.474-.798.162.104.51.301 1.1.336l.209.023s-.035-.023-.07-.058c.012 0 .023 0 .023.012 0-.024.012-.035.012-.047.058.07.116.116.116.116s-.163.081-.163.243c0 .162.22.29.22.29s-.127.104-.08.231c.046.128.22.128.22.128s-.082.162.023.266c.08-.046.474-.232.717-.36a1.036 1.036 0 01-.544-.474.598.598 0 01.081-.556c.14-.185.405-.185.533-.393a.527.527 0 00.15-.324c.14-.024.255-.058.36-.058 0-.336.266-.707-.116-1.066-.336-.324-1.124-.891-1.297-1.076.532.347 1.146.926 1.528 1.03.648.162.88-.104 1.123-.197-.208-.59.058-.868-1.331-1.447 1.216.428 1.736.22 2.153-.116-.162-.44-.59-.787-.938-.903.73.012 1.216-.324 1.54-.741-.266-.359-.81-.625-1.412-.683.88-.174 1.598-.741 1.679-1.378z" fill="#fff"/><path d="M38.395 28.935a1.07 1.07 0 00-.544.707l-.07.046-.035.093c-.046-.012-.092-.024-.15 0-.197.092-.093.312-.093.312s.093.243.163.394c.104.208.231.382.231.382s.15.174.301.093c.07-.035.093-.105.104-.163l.081.024.14.011c.266.093.555.081.821-.046.51-.266.73-.892.464-1.401a1.051 1.051 0 00-1.413-.452zm-2.154 1.83c-.115-.186-.034-.255-.034-.255s-.047 0-.093-.035c0 0-.313.15-.382.186-.07.046-.197.127-.22.22.22.046.498.011.73-.116zm-.173-.313c-.07-.058-.093-.104-.081-.174 0 0 .023-.127.08-.162-.023 0-.057-.023-.057-.023s-.209-.012-.243 0c0 0-.406.058-.626.278.22.22.672.15.927.081zm-.081-.394s-.128-.092-.116-.22c0-.07 0-.127.104-.22 0 0-.834-.092-1.239.093.209.22.463.324.892.336.011-.012.359.011.359.011zm2.57 1.807c-.243-.023-.394.197-.637.197a.594.594 0 01-.498-.255.969.969 0 01-.07-.718c-.242.116-.636.324-.717.359.023.139.208.174.208.174s-.092.138-.023.243c.07.115.232.07.232.07s-.023.242.104.335c.127.104.29.011.29.011s-.012.244.139.348c.138.104.3 0 .3 0s.058.185.14.22c.092.035.208-.023.277-.116.023.116.128.313.255.359.139.046.209.035.347-.046.186-.14.07.08.058.127-.08.266-.185.533-.266.799-.058.185-.127.463-.012.637.012.023.116.127.197.104.081-.301.185-.602.267-.892.104-.335.208-.671.208-1.03-.046-.232-.046-.51-.22-.683a.634.634 0 00-.579-.243z" fill="#808D9C"/><path d="M36.785 31.656s-.104.023-.185-.185a1.085 1.085 0 00-.52.521c.092.035.23-.012.3-.046.081-.035.37-.186.37-.197a.528.528 0 01.035-.093zm.232.406s0-.047.012-.07c-.058.023-.174-.035-.174-.035-.07-.023-.093-.08-.093-.162-.22.162-.532.486-.486.8.313-.047.59-.337.59-.337.024-.023.151-.197.151-.197zm.116.266c-.104-.081-.116-.232-.116-.232s-.185.29-.208.313c-.243.347-.313.602-.255.903.394-.209.81-.938.81-.938-.127.035-.173 0-.231-.046zm.59.417s-.115.011-.208-.104c-.116-.128-.104-.267-.104-.267s-.105.185-.116.185c-.44.684-.37 1.205-.37 1.205.138-.058.347-.313.347-.313.046-.035.451-.706.451-.706zm.127.66l.279-.475a.21.21 0 01-.197-.081.47.47 0 01-.07-.128s-.046.024-.08.024l-.174.29s-.371.636-.383 1.33c0 0 .174-.15.22-.242.128-.186.406-.718.406-.718zm.603-.313a.782.782 0 01-.162-.255s-.035.058-.104.081c-.047.07-.336.614-.336.614-.232.417-.556 1.32-.405 1.563.289-.22.602-1.019.602-1.019l.405-.984zm.104 1.158l.428-1.17c-.243.163-.335.116-.486.059 0 0-.278.671-.44 1.076-.116.232-.336.996-.22 1.436.104-.058.174-.174.243-.278.058-.08.128-.243.128-.243l.347-.88zm.023.139s-.428.996-.428 1.343c.011.347.104.683.185.845l.544-1.771s-.278.023-.3-.417z" fill="#808D9C"/><path d="M25.97 22.694h-3.623v7.492c0 .926.393 1.366 1.18 1.366h1.205c.625 0 1.065.475 1.227 1.042.163-.567.602-1.042 1.228-1.042h1.204c.799 0 1.18-.44 1.18-1.366v-7.492h-3.6z" fill="#ED1C24"/><path d="M24.5 29.896c-.069 0-.139 0-.196-.011-.012-.093-.07-.14-.081-.232-.047-.023-.012-.08-.012-.116.012-.046-.023-.092-.023-.139 0-.092.023-.173.046-.243.058-.139.15-.254.197-.405.07-.058.15-.139.197-.174.07-.07.127-.139.197-.22.15-.115.347-.185.486-.324.093.07.081.29.012.37.023.035.034.07.046.116.058.024.116.058.185.058.197.15.382.301.452.58.023.069.034.115.08.173.012-.023-.01-.046-.01-.081a.502.502 0 00.08.07.089.089 0 00-.058.023c-.011.046-.011.115.047.115-.058.024-.174-.011-.209.058a.301.301 0 00-.162.07c-.058 0-.093.034-.139.046.012-.035 0-.046 0-.081a.419.419 0 00.012-.208c-.058-.255-.232-.383-.498-.383-.023 0-.046 0-.081.012l-.174.035a.578.578 0 00-.15.058c-.209.15-.36.393-.244.706 0 0 0 .012-.011.012-.012 0-.023-.024-.035-.024 0 0-.011 0-.011.012-.012.07.057.058.057.127zm1.749-.787l-.313-1.123a.81.81 0 00.07-.267c.07.012.15.012.231.024.035.08.105.173.093.266.035.035-.012.116-.012.185.012.047.035.058.047.105.023 0 .034.011.058.011.08 0 .127-.046.196-.058 0 .012.012.023.012.035a.164.164 0 01.07-.023c.034 0 .057.023.08.058.07.07.128.208.197.266.012.058.047.104.047.15.08.128.197.232.231.406h-.023c-.093 0-.116.116-.07.173a.182.182 0 01.058-.092h.012c.023 0 .023.011.035.011.011-.011 0-.023.011-.034.023.023.023.057.035.092h-.012c-.069 0-.127.093-.069.14.012-.012.012-.036.023-.047h.023c.012 0 .035.011.047.011.011 0 .011 0 .023-.011a.433.433 0 01.011.127c-.023.023-.058.035-.07.07-.022 0-.045-.012-.069-.012-.046 0-.092.012-.104.035 0 .011.012.011.012.011.011 0 .035-.023.058-.023h.023c.011.023 0 .035 0 .07h-.012a.025.025 0 00-.023.023c-.011-.023-.058-.012-.093-.023.035-.023-.069-.058-.104-.081a.346.346 0 00-.092-.047h-.081c-.023-.023-.093-.034-.128-.034h-.011v-.023h.011c.035 0 .058-.024.07-.024 0 0 .011 0 .023.012.046-.012.07-.058.127-.07a.088.088 0 01-.023.058c.012.012.012.024.023.024.035 0 .058-.058.058-.105-.011-.058-.092-.07-.127-.08-.081.01-.128.092-.186.127-.023.011-.069.011-.092.023-.035.023-.046.08-.081.104.011-.046.046-.116.011-.174.081-.023.093-.139.186-.15 0 .023 0 .058-.012.07.012 0 .012.01.023.01.07 0 .093-.127.035-.173-.012 0-.012.012-.023.012-.023 0-.035-.012-.058-.012s-.035.012-.058.012c-.012 0-.035-.012-.046-.012h-.012c-.093.012-.046.127-.104.174-.012-.035.035-.093 0-.14a.119.119 0 01-.058-.069s-.012 0-.012-.011h-.034c-.023 0-.035 0-.035.011-.012 0-.023.012-.023.012zm-1.598-5.685c-.012 0-.012 0-.023.011-.012.012-.012.024-.012.047l.081.29c-.034.022-.092.092-.092.138v.209c-.081 0-.209.046-.301.057-.116 0-.29 0-.429.058-.092.035-.266.15-.266.278 0 .058.035.104.07.14-.07.057-.151.184-.151.277 0 .035 0 .07.023.093.012.023.058.023.081.046.012.012.012.023.023.035a.31.31 0 00-.035.139.14.14 0 00.105.127c-.012.035.092.104.173.104.024 0 .081-.058.105-.08.07 0 .104.022.15.069.012.023.023 0 .035.023.023.058.035.139.046.174 0 .023.023.034.046.034h.012c.046-.011.116-.08.162-.127a.22.22 0 01.081.012h.058c.046 0 .081 0 .104-.012a.355.355 0 00.081.058c.012-.023.024-.046.047-.046h.011c.047 0 .116.046.186.046a.182.182 0 01.15-.081l.07.255h-.058c-.024.208.127.312.139.509-.012.012-.024.023-.047.023s-.046-.011-.08-.011h-.105c-.232 0-.452.057-.579.162-.012.011-.023.011-.035.011h-.034c-.093-.116-.15-.266-.313-.312a.568.568 0 00-.452.023c-.07.035-.104.08-.15.127-.023.023-.058.046-.081.07a.77.77 0 00-.104.22c-.024.092-.012.196-.035.3-.012.082-.046.151-.058.22-.023.024-.046.047-.035.105.047-.012.104-.047.128-.058a1.25 1.25 0 00-.024.417c.012.15.012.092.012.197.081-.081.162-.162.185-.29a.635.635 0 01-.034.348c.069-.058.104-.105.185-.174.034-.023.08-.035.116-.058.07-.058.07-.162.104-.255.023.14.046.301-.047.382.035-.011.058-.035.082-.058.034 0 .092-.034.104-.058.139-.162.023-.44.011-.636-.011-.105-.046-.186-.034-.29.011-.058.034-.139.08-.174.024-.023.047-.023.082-.023.07 0 .15.07.173.128a.816.816 0 00-.104.451c.012.278.127.463.266.625.035.035.024.163.012.197 0 .012.012.012.012.035a.678.678 0 01-.07.232c-.058.08-.139.116-.243.173-.046.023-.046.093-.058.15-.011.047-.058.117-.011.151-.012.174-.058.313-.093.464-.058.15-.243.22-.22.405.011 0 .011-.023.023-.023h.012c-.012.023.011.023.011.034.023 0 .012-.034.035-.034 0 .023 0 .023.012.023 0 0 .011-.012.023-.012 0 .093-.07.116-.058.209-.012.011-.023.023-.035.023-.046 0-.07-.128-.081-.174-.035-.174-.023-.37-.116-.475a.34.34 0 00-.22-.08c-.034 0-.07 0-.092.023h.011c.14 0 .22.139.243.277.012.105-.011.197 0 .29.012.15.047.3.116.405.058.093.14.128.22.209.14.057.313.092.475.092a.986.986 0 00.266-.035v.082c-.058.046-.116.092-.185.115 0 .035.127 0 .29 0 .335 0 .289.209.289.209s-.035.034.023.034c.046-.011.093-.011.127-.011.209 0 .36.058.463.104.105.046.151.081.174.081.012 0 .197-.07.313-.07.023 0 .058 0 .08.012.093.012.186.047.279.047.023 0-.012 0 .07-.012.08-.012.092-.116.15-.232.046-.023.162-.07.162-.07s.035-.01.046-.01c.047-.012.023-.105.012-.22.046 0 .07-.059.116-.082.023-.011.057-.011.08-.011.012.011.024.011.047.011.011-.011.035-.011.058-.011s.046.011.08.011h.036c.08.035.139.15.243.15.023 0 .046 0 .058-.01l.07-.105c.022-.012.057-.012.092-.012h.092c.035 0 .07-.023.105-.034h.139c.069-.012.15-.023.208-.023a.219.219 0 00.104-.035c.023-.023.023-.081.046-.128.024-.046.058-.08.047-.15-.023.035-.047.081-.07.116.023 0 .035-.058.058-.058a.22.22 0 01-.08.127c0-.07.08-.185.01-.266 0 .092-.046.197-.138.231.011-.034.035-.127 0-.162 0 .047-.023.07-.046.104 0-.034 0-.069-.024-.08-.011.08-.058.115-.127.138 0-.023-.023-.023-.023-.058-.023.012-.023.035-.058.035-.012-.023-.012-.058-.035-.07-.011.012-.023.047-.046.059-.023 0-.012-.058-.035-.07-.012 0-.012.035-.035.035a.503.503 0 00-.092-.174c.046-.023 0-.058.046-.08.012 0 .012.01.012.01.011 0 .023-.01.034-.01 0 0 .012 0 .023.01.012-.022 0-.046.024-.057.011.012.011.035.034.035.024-.012.012-.047 0-.07.024 0 .035-.023.058-.035.047.024.081.035.093.093a.333.333 0 000-.185h.012c.011 0 .011-.012.034-.012.023.035.058.093.047.128.034-.024.023-.105.011-.14.035.012.047.059.07.093.023-.08-.047-.185-.105-.197-.057 0-.115.093-.173.116-.023.012-.058 0-.093.012-.023.011-.046.046-.058.058-.058.046-.127.07-.174.104-.034-.058-.104-.093-.127-.162a.248.248 0 00.047-.14c-.012-.034-.07-.022-.082-.069.012-.023.024-.034.024-.07-.012-.022-.058-.01-.081-.022-.024-.116-.093-.267-.07-.382 0-.023.023-.047.023-.081 0-.047-.023-.07-.023-.105 0-.023 0-.046-.011-.058-.024-.034-.058-.069-.082-.104-.011-.023-.011-.046-.023-.08-.023-.14-.08-.302-.116-.44-.011-.047-.034-.093-.034-.151.023 0 0 .034.011.034.012-.011 0-.046.012-.046.058.023.116.046.162.07.197-.047.266-.197.428-.29.07-.035.14-.092.22-.127.035-.023.093-.023.128-.046.058-.024.08-.058.15-.058h.024c.046.196.034.393-.128.463-.058.023-.116.023-.127.104 0 .023.023.023.035.023-.035.023-.012.07-.035.116-.012 0-.012.011-.023.011-.047-.023-.07-.057-.116-.057h-.012c-.092.011-.162.231-.116.335.012 0 .012 0 .012.012h.035c.139 0 .208-.07.347-.07.046-.046.15-.057.197-.127.023-.023.023-.104.035-.15.034-.093.104-.209.127-.302.012-.057.012-.127.023-.185 0-.15.058-.255.081-.382-.046-.058-.035-.174-.104-.208-.023-.012-.046-.012-.07-.012-.104 0-.208.058-.3.081-.174.046-.348.07-.533.104.08-.289-.093-.497-.127-.74-.012-.082-.035-.163-.047-.244 0 0 .012 0 .012-.011a.132.132 0 00.092.034.1.1 0 00.082-.046c.034-.058.057-.104.115-.116v.023c0 .058.047.093.104.093h.012c.058 0 .081-.023.093-.058 0 .012 0 .012.011.023.012.012.023.012.035.012.012.012.023.023.07.023h.023c.046-.058.15-.035.208-.081.07-.058.012-.255 0-.451-.011-.197-.046-.371-.116-.464.023 0 .058-.011.047-.034a.218.218 0 00.092.023h.012c-.035-.081-.012-.197-.058-.267.023-.023.058-.046.08-.08a.396.396 0 00-.207-.047.18.18 0 00-.14-.07h-.034c.035-.046.08-.092.116-.15h-.023a1.14 1.14 0 00-.197.023c-.035-.035-.093-.046-.14-.046h-.034c-.081-.046-.15-.035-.22-.046a.301.301 0 00-.127-.035c-.105 0-.209.07-.348.08.07.012.128.036.15.082-.057-.012-.104-.035-.15-.035h-.011c-.14 0-.243.116-.313.14h.035c-.058.01-.105.069-.116.127.023-.012.046-.012.07-.012h.011c-.035.058-.266 0-.301.116.023-.012.046-.012.07-.012.057 0 .104.023.15.035-.116.058-.104.243-.255.243h-.023c0-.093-.046-.174-.104-.266-.046-.058-.116-.15-.174-.185-.035-.024-.058-.035-.07-.035 0 .011.012.011.012.023-.011-.012-.034-.023-.034-.058.011-.023-.012-.046.011-.081.023.011.046.023.058.023h.012c.011 0 .023-.012.034-.035l.035-.034c.035.034.058.057.081.057.081 0 .14-.057.15-.15 0-.023-.01-.046 0-.058.012-.046.058-.116.058-.185 0-.104-.08-.15-.115-.197-.035-.058-.116-.127-.197-.127h-.012c-.046 0-.07-.024-.104-.024a.367.367 0 00-.231.093h.023l.023-.011a.688.688 0 01.185-.07c.035 0 .046.023.058.023.012 0 .012.012.023.012h.012c.023 0 .035-.012.058-.012h.023c.15.035.127.162.185.186.058.023.058.08.058.104 0 .104-.058.139-.058.197 0 .023 0 .034-.012.057-.011.047-.057.105-.115.116h-.012c-.023 0-.046-.023-.08-.035l.045-.046s0-.011.012-.011c.012-.024.046-.058.046-.093 0 0 0-.012.012-.023h.023s.012 0 .023-.012v-.023c.012-.035.023-.093 0-.104.023-.023.035-.081.023-.116-.011.035-.011.093-.034.116-.047-.012.034-.116-.024-.127a.155.155 0 01-.011.104c-.023 0 .011-.035 0-.058-.023 0-.012.035-.023.046-.035-.011-.047-.046-.081-.046 0-.012.011 0 .023-.023-.15.011-.278.197-.301.347a.34.34 0 01-.093-.046c-.023-.023-.011-.07.012-.093-.023 0-.035.023-.047.035-.011.011-.011.023-.023.023-.011 0-.011-.035-.011-.046a.213.213 0 01.104-.162c-.07.023-.104.104-.15.173-.012 0-.035-.023-.035-.035 0-.034 0-.08.011-.092a.225.225 0 01.116-.116h-.012c-.046 0-.104.046-.127.081-.023 0-.035-.035-.035-.035 0-.034.035-.07.081-.115a.277.277 0 01.128-.07c.046-.011.092-.011.15-.058-.046.012-.092.035-.139.047h-.023a.24.24 0 00-.116.069.247.247 0 00-.092.116c-.012.035.023.058.035.104.011.023 0 .058.011.081 0 .012.035.035.058.046h.011s.012 0 .024-.011v.035c.011.011.046 0 .046.011a.38.38 0 01-.081.127c-.058-.057-.127-.092-.174-.127-.092-.046-.139-.058-.197-.08-.046-.024-.127-.117-.266-.14h-.103v-.07c.012 0 .023-.01.023-.022.012-.012.012-.058 0-.07-.012-.012-.035-.093-.093-.116.012 0 .012-.011.012-.023-.023 0-.035-.012-.046-.023h-.047l-.08-.313c-.012-.046-.012-.058-.047-.07z" fill="#fff"/><path d="M24.5 29.896c-.069 0-.139 0-.196-.011-.012-.093-.07-.14-.081-.232-.047-.023-.012-.08-.012-.116.012-.046-.023-.092-.023-.139 0-.092.023-.173.046-.243.058-.139.15-.254.197-.405.07-.058.15-.139.197-.174.07-.07.127-.139.197-.22.15-.115.347-.185.486-.324.093.07.081.29.012.37.023.035.034.07.046.116.058.024.116.058.185.058.197.15.382.301.452.58.023.069.034.115.08.173.012-.023-.01-.046-.01-.081a.502.502 0 00.08.07.089.089 0 00-.058.023c-.011.046-.011.115.047.115-.058.024-.174-.011-.209.058a.301.301 0 00-.162.07c-.058 0-.093.034-.139.046.012-.035 0-.046 0-.081a.419.419 0 00.012-.208c-.058-.255-.232-.383-.498-.383-.023 0-.046 0-.081.012l-.174.035a.578.578 0 00-.15.058c-.209.15-.36.393-.244.706 0 0 0 .012-.011.012-.012 0-.023-.024-.035-.024 0 0-.011 0-.011.012-.012.07.057.058.057.127zm1.749-.787l-.313-1.123a.81.81 0 00.07-.267c.07.012.15.012.231.024.035.08.105.173.093.266.035.035-.012.116-.012.185.012.047.035.058.047.105.023 0 .034.011.058.011.08 0 .127-.046.196-.058 0 .012.012.023.012.035a.164.164 0 01.07-.023c.034 0 .057.023.08.058.07.07.128.208.197.266.012.058.047.104.047.15.08.128.197.232.231.406h-.023c-.093 0-.116.116-.07.173a.182.182 0 01.058-.092h.012c.023 0 .023.011.035.011.011-.011 0-.023.011-.034.023.023.023.057.035.092h-.012c-.069 0-.127.093-.069.14.012-.012.012-.036.023-.047h.023c.012 0 .035.011.047.011.011 0 .011 0 .023-.011a.433.433 0 01.011.127c-.023.023-.058.035-.07.07-.022 0-.045-.012-.069-.012-.046 0-.092.012-.104.035 0 .011.012.011.012.011.011 0 .035-.023.058-.023h.023c.011.023 0 .035 0 .07h-.012a.025.025 0 00-.023.023c-.011-.023-.058-.012-.093-.023.035-.023-.069-.058-.104-.081a.346.346 0 00-.092-.047h-.081c-.023-.023-.093-.034-.128-.034h-.011v-.023h.011c.035 0 .058-.024.07-.024 0 0 .011 0 .023.012.046-.012.07-.058.127-.07a.088.088 0 01-.023.058c.012.012.012.024.023.024.035 0 .058-.058.058-.105-.011-.058-.092-.07-.127-.08-.081.01-.128.092-.186.127-.023.011-.069.011-.092.023-.035.023-.046.08-.081.104.011-.046.046-.116.011-.174.081-.023.093-.139.186-.15 0 .023 0 .058-.012.07.012 0 .012.01.023.01.07 0 .093-.127.035-.173-.012 0-.012.012-.023.012-.023 0-.035-.012-.058-.012s-.035.012-.058.012c-.012 0-.035-.012-.046-.012h-.012c-.093.012-.046.127-.104.174-.012-.035.035-.093 0-.14a.119.119 0 01-.058-.069s-.012 0-.012-.011h-.034c-.023 0-.035 0-.035.011-.012 0-.023.012-.023.012zm-1.598-5.685c-.012 0-.012 0-.023.011-.012.012-.012.024-.012.047l.081.29c-.034.022-.092.092-.092.138v.209c-.081 0-.209.046-.301.057-.116 0-.29 0-.429.058-.092.035-.266.15-.266.278 0 .058.035.104.07.14-.07.057-.151.184-.151.277 0 .035 0 .07.023.093.012.023.058.023.081.046.012.012.012.023.023.035a.31.31 0 00-.035.139.14.14 0 00.105.127c-.012.035.092.104.173.104.024 0 .081-.058.105-.08.07 0 .104.022.15.069.012.023.023 0 .035.023.023.058.035.139.046.174 0 .023.023.034.046.034h.012c.046-.011.116-.08.162-.127a.22.22 0 01.081.012h.058c.046 0 .081 0 .104-.012a.355.355 0 00.081.058c.012-.023.024-.046.047-.046h.011c.047 0 .116.046.186.046a.182.182 0 01.15-.081l.07.255h-.058c-.024.208.127.312.139.509-.012.012-.024.023-.047.023s-.046-.011-.08-.011h-.105c-.232 0-.452.057-.579.162-.012.011-.023.011-.035.011h-.034c-.093-.116-.15-.266-.313-.312a.568.568 0 00-.452.023c-.07.035-.104.08-.15.127-.023.023-.058.046-.081.07a.77.77 0 00-.104.22c-.024.092-.012.196-.035.3-.012.082-.046.151-.058.22-.023.024-.046.047-.035.105.047-.012.104-.047.128-.058a1.25 1.25 0 00-.024.417c.012.15.012.092.012.197.081-.081.162-.162.185-.29a.635.635 0 01-.034.348c.069-.058.104-.105.185-.174.034-.023.08-.035.116-.058.07-.058.07-.162.104-.255.023.14.046.301-.047.382.035-.011.058-.035.082-.058.034 0 .092-.034.104-.058.139-.162.023-.44.011-.636-.011-.105-.046-.186-.034-.29.011-.058.034-.139.08-.174.024-.023.047-.023.082-.023.07 0 .15.07.173.128a.816.816 0 00-.104.451c.012.278.127.463.266.625.035.035.024.163.012.197 0 .012.012.012.012.035a.678.678 0 01-.07.232c-.058.08-.139.116-.243.173-.046.023-.046.093-.058.15-.011.047-.058.117-.011.151-.012.174-.058.313-.093.464-.058.15-.243.22-.22.405.011 0 .011-.023.023-.023h.012c-.012.023.011.023.011.034.023 0 .012-.034.035-.034 0 .023 0 .023.012.023 0 0 .011-.012.023-.012 0 .093-.07.116-.058.209-.012.011-.023.023-.035.023-.046 0-.07-.128-.081-.174-.035-.174-.023-.37-.116-.475a.34.34 0 00-.22-.08c-.034 0-.07 0-.092.023h.011c.14 0 .22.139.243.277.012.105-.011.197 0 .29.012.15.047.3.116.405.058.093.14.128.22.209.14.057.313.092.475.092a.986.986 0 00.266-.035v.082c-.058.046-.116.092-.185.115 0 .035.127 0 .29 0 .335 0 .289.209.289.209s-.035.034.023.034c.046-.011.093-.011.127-.011.209 0 .36.058.463.104.105.046.151.081.174.081.012 0 .197-.07.313-.07.023 0 .058 0 .08.012.093.012.186.047.279.047.023 0-.012 0 .07-.012.08-.012.092-.116.15-.232.046-.023.162-.07.162-.07s.035-.01.046-.01c.047-.012.023-.105.012-.22.046 0 .07-.059.116-.082.023-.011.057-.011.08-.011.012.011.024.011.047.011.011-.011.035-.011.058-.011s.046.011.08.011h.036c.08.035.139.15.243.15.023 0 .046 0 .058-.01l.07-.105c.022-.012.057-.012.092-.012h.092c.035 0 .07-.023.105-.034h.139c.069-.012.15-.023.208-.023a.219.219 0 00.104-.035c.023-.023.023-.081.046-.128.024-.046.058-.08.047-.15-.023.035-.047.081-.07.116.023 0 .035-.058.058-.058a.22.22 0 01-.08.127c0-.07.08-.185.01-.266 0 .092-.046.197-.138.231.011-.034.035-.127 0-.162 0 .047-.023.07-.046.104 0-.034 0-.069-.024-.08-.011.08-.058.115-.127.138 0-.023-.023-.023-.023-.058-.023.012-.023.035-.058.035-.012-.023-.012-.058-.035-.07-.011.012-.023.047-.046.059-.023 0-.012-.058-.035-.07-.012 0-.012.035-.035.035a.503.503 0 00-.092-.174c.046-.023 0-.058.046-.08.012 0 .012.01.012.01.011 0 .023-.01.034-.01 0 0 .012 0 .023.01.012-.022 0-.046.024-.057.011.012.011.035.034.035.024-.012.012-.047 0-.07.024 0 .035-.023.058-.035.047.024.081.035.093.093a.333.333 0 000-.185h.012c.011 0 .011-.012.034-.012.023.035.058.093.047.128.034-.024.023-.105.011-.14.035.012.047.059.07.093.023-.08-.047-.185-.105-.197-.057 0-.115.093-.173.116-.023.012-.058 0-.093.012-.023.011-.046.046-.058.058-.058.046-.127.07-.174.104-.034-.058-.104-.093-.127-.162a.248.248 0 00.047-.14c-.012-.034-.07-.022-.082-.069.012-.023.024-.034.024-.07-.012-.022-.058-.01-.081-.022-.024-.116-.093-.267-.07-.382 0-.023.023-.047.023-.081 0-.047-.023-.07-.023-.105 0-.023 0-.046-.011-.058-.024-.034-.058-.069-.082-.104-.011-.023-.011-.046-.023-.08-.023-.14-.08-.302-.116-.44-.011-.047-.034-.093-.034-.151.023 0 0 .034.011.034.012-.011 0-.046.012-.046.058.023.116.046.162.07.197-.047.266-.197.428-.29.07-.035.14-.092.22-.127.035-.023.093-.023.128-.046.058-.024.08-.058.15-.058h.024c.046.196.034.393-.128.463-.058.023-.116.023-.127.104 0 .023.023.023.035.023-.035.023-.012.07-.035.116-.012 0-.012.011-.023.011-.047-.023-.07-.057-.116-.057h-.012c-.092.011-.162.231-.116.335.012 0 .012 0 .012.012h.035c.139 0 .208-.07.347-.07.046-.046.15-.057.197-.127.023-.023.023-.104.035-.15.034-.093.104-.209.127-.302.012-.057.012-.127.023-.185 0-.15.058-.255.081-.382-.046-.058-.035-.174-.104-.208-.023-.012-.046-.012-.07-.012-.104 0-.208.058-.3.081-.174.046-.348.07-.533.104.08-.289-.093-.497-.127-.74-.012-.082-.035-.163-.047-.244 0 0 .012 0 .012-.011a.132.132 0 00.092.034.1.1 0 00.082-.046c.034-.058.057-.104.115-.116v.023c0 .058.047.093.104.093h.012c.058 0 .081-.023.093-.058 0 .012 0 .012.011.023.012.012.023.012.035.012.012.012.023.023.07.023h.023c.046-.058.15-.035.208-.081.07-.058.012-.255 0-.451-.011-.197-.046-.371-.116-.464.023 0 .058-.011.047-.034a.218.218 0 00.092.023h.012c-.035-.081-.012-.197-.058-.267.023-.023.058-.046.08-.08a.396.396 0 00-.207-.047.18.18 0 00-.14-.07h-.034c.035-.046.08-.092.116-.15h-.023a1.14 1.14 0 00-.197.023c-.035-.035-.093-.046-.14-.046h-.034c-.081-.046-.15-.035-.22-.046a.301.301 0 00-.127-.035c-.105 0-.209.07-.348.08.07.012.128.036.15.082-.057-.012-.104-.035-.15-.035h-.011c-.14 0-.243.116-.313.14h.035c-.058.01-.105.069-.116.127.023-.012.046-.012.07-.012h.011c-.035.058-.266 0-.301.116.023-.012.046-.012.07-.012.057 0 .104.023.15.035-.116.058-.104.243-.255.243h-.023c0-.093-.046-.174-.104-.266-.046-.058-.116-.15-.174-.185-.035-.024-.058-.035-.07-.035 0 .011.012.011.012.023-.011-.012-.034-.023-.034-.058.011-.023-.012-.046.011-.081.023.011.046.023.058.023h.012c.011 0 .023-.012.034-.035l.035-.034c.035.034.058.057.081.057.081 0 .14-.057.15-.15 0-.023-.01-.046 0-.058.012-.046.058-.116.058-.185 0-.104-.08-.15-.115-.197-.035-.058-.116-.127-.197-.127h-.012c-.046 0-.07-.024-.104-.024a.367.367 0 00-.231.093h.023l.023-.011a.688.688 0 01.185-.07c.035 0 .046.023.058.023.012 0 .012.012.023.012h.012c.023 0 .035-.012.058-.012h.023c.15.035.127.162.185.186.058.023.058.08.058.104 0 .104-.058.139-.058.197 0 .023 0 .034-.012.057-.011.047-.057.105-.115.116h-.012c-.023 0-.046-.023-.08-.035l.045-.046s0-.011.012-.011c.012-.024.046-.058.046-.093 0 0 0-.012.012-.023h.023s.012 0 .023-.012v-.023c.012-.035.023-.093 0-.104.023-.023.035-.081.023-.116-.011.035-.011.093-.034.116-.047-.012.034-.116-.024-.127a.155.155 0 01-.011.104c-.023 0 .011-.035 0-.058-.023 0-.012.035-.023.046-.035-.011-.047-.046-.081-.046 0-.012.011 0 .023-.023-.15.011-.278.197-.301.347a.34.34 0 01-.093-.046c-.023-.023-.011-.07.012-.093-.023 0-.035.023-.047.035-.011.011-.011.023-.023.023-.011 0-.011-.035-.011-.046a.213.213 0 01.104-.162c-.07.023-.104.104-.15.173-.012 0-.035-.023-.035-.035 0-.034 0-.08.011-.092a.225.225 0 01.116-.116h-.012c-.046 0-.104.046-.127.081-.023 0-.035-.035-.035-.035 0-.034.035-.07.081-.115a.277.277 0 01.128-.07c.046-.011.092-.011.15-.058-.046.012-.092.035-.139.047h-.023a.24.24 0 00-.116.069.247.247 0 00-.092.116c-.012.035.023.058.035.104.011.023 0 .058.011.081 0 .012.035.035.058.046h.011s.012 0 .024-.011v.035c.011.011.046 0 .046.011a.38.38 0 01-.081.127c-.058-.057-.127-.092-.174-.127-.092-.046-.139-.058-.197-.08-.046-.024-.127-.117-.266-.14h-.103v-.07c.012 0 .023-.01.023-.022.012-.012.012-.058 0-.07-.012-.012-.035-.093-.093-.116.012 0 .012-.011.012-.023-.023 0-.035-.012-.046-.023h-.047l-.08-.313c-.012-.046-.012-.058-.047-.07z" stroke="#fff" stroke-width=".2" stroke-miterlimit="10"/><path d="M35.408 33.636a.089.089 0 00-.058.023c-.012.012-.012.035-.012.047 0 .034.035.07.081.07.023 0 .035-.012.047-.024a.088.088 0 00.023-.046c-.012-.047-.047-.07-.081-.07zm0 .197c-.07 0-.128-.046-.14-.127 0-.035 0-.07.035-.093.024-.023.058-.046.093-.046h.012c.07 0 .127.058.127.127 0 .035 0 .07-.035.093a.105.105 0 01-.092.046zm-1.726-3.497c-.046 0-.08.035-.07.081 0 .035.036.07.07.07.035 0 .07-.035.07-.081 0-.035-.023-.07-.07-.07zm0 .209c-.07 0-.127-.058-.139-.128 0-.069.058-.127.128-.139h.011c.07 0 .128.058.14.128 0 .07-.059.127-.14.139zm5.176 4.226l-.556 1.783a2.557 2.557 0 01-.185-.845c0-.348.428-1.355.428-1.355.047.44.313.417.313.417zm-.671.324s-.07.162-.128.243c-.07.105-.139.22-.243.278-.116-.44.104-1.204.22-1.447.162-.405.44-1.077.44-1.077.15.058.243.104.486-.058l-.44 1.17-.335.891zm-.163-1.053s-.312.798-.602 1.03c-.15-.243.186-1.158.406-1.575 0 0 .289-.544.335-.613a.219.219 0 00.105-.07.617.617 0 00.162.255l-.406.973zm-.613.034a1.597 1.597 0 01-.232.243c.012-.694.394-1.343.394-1.343l.173-.29a.228.228 0 00.082-.022s.023.07.069.127c.046.058.116.081.197.081l-.278.475c.012.011-.278.556-.405.73zm-.174-.671s-.208.266-.347.312c0 0-.07-.52.37-1.204l.116-.185s-.012.139.104.266c.093.116.209.104.209.104s-.406.672-.452.707zm.093-1.066s-.417.73-.81.938c-.059-.3.01-.567.254-.914.023-.023.208-.313.208-.313s0 .15.116.232c.046.046.093.08.232.058zm-1.112.209c-.046-.301.278-.637.486-.799.012.093.035.139.093.162 0 0 .116.058.185.035-.011.023-.011.07-.011.07s-.116.161-.15.185c0 .011-.29.3-.603.347zm.486-.834s-.3.162-.382.197c-.08.035-.22.081-.312.046a1.11 1.11 0 01.532-.52c.081.208.186.185.186.185s-.012.023-.024.092zm2.432.37c.185.174.174.452.22.684 0 .359-.104.706-.208 1.042-.082.301-.186.59-.267.903-.08.023-.185-.08-.197-.104-.127-.185-.046-.452.012-.648l.278-.8c.011-.057.139-.277-.058-.127-.15.081-.208.093-.359.047-.116-.047-.232-.244-.255-.36-.08.105-.197.163-.29.116-.092-.034-.15-.22-.15-.22s-.162.093-.3-.011c-.151-.116-.14-.348-.14-.348s-.162.093-.3-.011c-.128-.104-.105-.336-.105-.336s-.162.046-.243-.07c-.07-.115.023-.254.023-.254s-.185-.035-.208-.185c.08-.035.474-.244.718-.36a.97.97 0 00.069.719c.104.173.301.254.498.254.243.012.394-.22.637-.197a.657.657 0 01.625.267zm-6.09-5.789l1.783.614s-.174.197.162.486c0 0-1.077-.243-1.355-.451a2.55 2.55 0 01-.59-.649zm1.783 1.61c-.267-.058-1.02-.324-1.309-.672.116-.058.255-.035.37-.035.093 0 .279.047.279.047l.926.243 1.216.347c-.278.105-.301.197-.336.36 0 0-.718-.174-1.146-.29zm-1.1-.035c.359-.093 1.204.127 1.204.127l1.042.267a.87.87 0 00.104.278s-.07 0-.116.034l-.706-.092c-.475-.07-1.413-.348-1.528-.614zm1.794 1.112s-.74-.081-1.32-.487c0 0 .232-.046.336-.034.22.011.834.092.834.092l.544.058a.182.182 0 00-.046.197.317.317 0 00.058.139s-.035.023-.058.058l-.348-.023zm.197.532c-.833-.058-1.215-.416-1.215-.416.127-.082.463-.093.463-.093.057-.012.845.046.845.046s-.081.081-.035.232c.035.162.15.243.15.243l-.208-.012zm-.173.475c-.44-.012-.684-.116-.892-.336.417-.197 1.25-.092 1.25-.092-.104.092-.104.15-.104.22 0 .127.116.22.116.22s-.336-.024-.37-.012zm-.464.336c.22-.22.637-.29.637-.29.035-.011.243 0 .243 0s.047.035.07.035c-.058.035-.081.162-.081.162-.012.07.011.116.08.174-.277.07-.74.139-.949-.081zm.36.51c.023-.105.15-.174.22-.22a9.11 9.11 0 01.382-.186.203.203 0 00.092.035s-.07.07.046.255a1.12 1.12 0 01-.74.115zm-.58-3.694c0-.023-.034-.162.035-.22.301.115.59.208.892.312.336.116.683.243.972.452.162.174.394.336.429.579a.672.672 0 01-.14.637c-.127.208-.404.197-.543.393-.116.162-.163.37-.081.556.115.22.324.405.544.475-.243.127-.649.324-.718.359-.104-.105-.023-.267-.023-.267s-.162 0-.22-.127c-.047-.127.08-.232.08-.232s-.22-.115-.22-.289.163-.243.163-.243-.197-.14-.197-.324c0-.174.174-.244.174-.244s-.116-.15-.093-.243c.012-.092.139-.15.266-.162-.08-.08-.173-.29-.139-.417.047-.139.105-.185.255-.254.232-.07-.011-.105-.07-.128-.266-.092-.544-.162-.821-.254-.209-.047-.464-.15-.545-.36zm-.358 9.332l-.429.903-.567-.266.3-.625c.256.034.487.023.696-.012zm.428-.127l-.116.243-.255-.127c.15-.035.267-.07.37-.116zm-3.659.602l.648-1.378c.348.301.672.51.996.66l-.579 1.216-1.065-.498zm-.243 1.077c-.428-.197-.903-.417-1.413-.649.186-.034.348-.104.498-.208a.415.415 0 00.116-.081l1.007.474-.208.464zm-5.813-.15c-.463.254-1.088.092-1.62-.175l2.176-1.076.37.162c-.15.428-.44.822-.926 1.088zm.081-1.471l-1.794.914c.127-.532.347-1.042.799-1.25.046-.023.092-.035.15-.058l.845.394zm2.768-2.941c.74-.383 1.54-.023 2.153.44l-2.998 1.516c.08-.74.289-1.713.845-1.956zm-.695 2.385l3.138-1.552c.035.81-.128 1.737-.915 2.12-.579.312-1.575-.174-2.223-.568zm-12.39-3.497a.699.699 0 01-.22 0 .481.481 0 01-.428.44.467.467 0 01-.532-.417.49.49 0 01.116-.382 1.316 1.316 0 01-.394-.787 1.31 1.31 0 011.146-1.448c.093-.011.185-.011.278 0a.461.461 0 01.405-.324c.267-.035.51.15.533.417a.54.54 0 01-.081.336c.185.197.3.44.336.73.08.694-.429 1.342-1.158 1.435zm24.814-3.022a1.069 1.069 0 00-1.424-.463c-.301.15-.498.417-.556.718-.324.255-.394.463-.37.637l-6.149 3.137c-.023-.115-.035-.231-.07-.347 0 0-.682-2.408.765-3.15 0 0 .533-.196.822.21 0 0 .139.207.174.66.034.45.185.427.185.427s0-.324.07-.555c0 0 .023-.128.092-.174.07-.035.081.162.081.162s.058.602.255.741c0 0 .011-.243.336-.556 0 0 .278-.37-.197-1.088-.475-.718-1.714-.903-2.386-.533-.648.313-1.644 1.32-1.157 3.66-1.112-.672-1.9-.44-2.467-.244-1.053.37-1.378 1.922-1.482 2.652-.382-.128-.995-.278-1.644-.163-3.67-1.702-7.074-3.276-7.074-3.276l-.36-.162.487-1.02-.452-.208-.07-.034a.87.87 0 00-.45-.591c.115-.255.023-.544-.21-.648a.214.214 0 00-.08-.023c.15-.348.023-.753-.301-.904-.324-.15-.718.012-.88.348a.185.185 0 00-.081-.047c-.232-.104-.51.012-.637.255-.452-.185-1.007.046-1.239.533a1.113 1.113 0 00-.093.3c-.254-.057-.532.093-.66.36-.127.266-.057.579.15.74a1.114 1.114 0 00-.173.267c-.231.498-.07 1.054.37 1.285-.115.255-.022.533.21.637a.218.218 0 00.092.023c-.15.348-.023.741.29.903.323.15.717-.011.89-.347.024.012.047.035.082.046.232.105.51-.011.625-.254.243.104.51.08.753-.035l.011-.023.07.034.451.209.452-.95.498.232 6.194 2.86c-.231.208-.625.683-.799 1.61-.162-.116-.266-.197-.289-.209-.07-.046-1.598-1.042-2.71.07-1.11 1.111-.405 1.887-.405 1.887 0-.36.336-.857.753-1.204.15-.116.301-.22.463-.301.29-.14.683-.081 1.008.023.393.116.706.3.706.3.058.047.104.082.15.116l-3.543 1.818s-.15.093-.08.209l.01.023c.059.127.21.07.21.07l3.623-1.795c-.011.231-.034.625-.092.857a6.884 6.884 0 01-.128.37c-.046.104-.092.22-.162.313a.876.876 0 01-.347.336c-.104.057-.22.104-.336.139a3.072 3.072 0 01-.648.127c-.394.023-.764-.035-.973-.185 0 0 .209 1.019 1.772.787 1.1-.162 1.47-1.088 1.597-1.667.058-.244.058-.603.058-.81 1.274.613 2.015.242 2.015.242.857-.324 1.32-.996 1.552-1.54l6.264 2.895s.011 0 .011.011a.487.487 0 00.637-.231.462.462 0 00-.22-.625h-.023s-.255-.116-.695-.325l.22-.474 1.054.486 1.17-2.455-.325-.15c.012-.012.023-.012.023-.012.695-.312 1.285-1.412.973-2.211-.301-.81-.776-.81-.776-.81-.44.069-.648-.07-.648-.07 0 .231.451.637.451.637s.174.115.104.15c-.069.035-.185-.011-.185-.011-.243-.07-.51-.278-.51-.278s-.104.104.232.405c.348.3.44.52.44.52.15.487-.312.788-.312.788-1.46.718-3.022-1.25-3.022-1.25-.116-.128-.22-.243-.336-.36l6.23-3.08c.115.117.312.151.717.036.278.127.614.127.915-.024.52-.243.73-.868.463-1.389z" fill="#FABC42"/></svg>